<svg width="220" height="38" id="Layer_1" data-name="Layer 1" xmlns="http://www.w3.org/2000/svg" viewBox="0 0 1560.73 270.17"><defs><style>.cls-1{fill:#231f20;}</style></defs><title>Tervisekassa Logo Black</title><path class="cls-1" d="M1537.93,106.44c-1.16-7.24-8.71-9.81-15.25-7.38-3.39,1.25-8.64,2.6-17.92,2.17a55.57,55.57,0,0,0-8.28-24.62,28.75,28.75,0,0,0,11-5.74c7.32-5.92,10-17.4,2.68-22.94-5.27-4-15.81-5-23.41,1.11-4.36,3.55-7.21,7.11-8.73,10.45a62.42,62.42,0,0,0-28.79-7.26c1.81-6.81,6.64-9.2,6.24-14.63-.38-5.1-5-7-9.18-6-2.86.67-4.57,2.45-5.6,5.57a39,39,0,0,0-1.51,15.53,95.61,95.61,0,0,0-37.66,12.79l.42.77a92.07,92.07,0,0,1,37.65-10.18,52.6,52.6,0,0,0,7.34,20.08l-1,.46a154.2,154.2,0,0,0-19.1,11.2c-.47.32-.93.65-1.39,1-7.54-5.19-18.64-9.2-29.34-10.87l-.23.85c10.18,3.54,19.73,9,25.11,13.27-4,3-7.83,6.14-11.62,9.33q-7.44,6.33-14.27,13.34c-8.31-4.4-22.22-6.93-33.08-6a99.74,99.74,0,0,1,14.11-22.47l-.64-.6a93.88,93.88,0,0,0-18.82,23.77,92.09,92.09,0,0,0-24.66,7.28c-5.2,2.32-8.86,4.65-10.61,7.39-2.86,4.46-1.71,9,.47,11.25,4.26,4.32,9.7,3.1,14-2.33a42.9,42.9,0,0,1,15.77-12.54c-6.58,17.78-6,36.09,1.78,50.85a58.57,58.57,0,0,1-2.91,9.28c-.77,1.93-1.64,3.85-2.58,5.72a50,50,0,0,1-3.19,5.49v0a1.63,1.63,0,0,0-.2,1.52,1.66,1.66,0,0,0,2.14,1,53.12,53.12,0,0,0,6.35-2.88c2-1.07,4.06-2.26,6-3.53,1.56-1,3.09-2.06,4.61-3.19,10.66,10.14,25.91,15.89,42.83,16.19a77.83,77.83,0,0,1-9.62,16.61c-6.72,9-2.83,17,2.75,19.87,6.72,3.5,14.26.17,17.41-6.66,2.39-5.18,5-16.05,6.69-31.33a92.9,92.9,0,0,0,20.44-6.5c17.44-7.84,38-23.37,50.59-46.65a84.82,84.82,0,0,0,10-31.5c8.45,2.3,15.3,3.76,20.54,3.69C1533,118.34,1539.11,113.86,1537.93,106.44Zm-89.4-50.15a57,57,0,0,1,27.84,9.62c-3.28.7-6.51,1.55-9.7,2.5q-5.37,1.65-10.56,3.71c-1.22.48-2.42,1-3.62,1.5A27.46,27.46,0,0,1,1448.53,56.29Zm-88.06,105.24c-5.61-11-7.23-26.54-2-43.57,11.5-3.1,21.64-1.22,30.66,3.1q-5.33,5.94-10.22,12.29A211.73,211.73,0,0,0,1360.47,161.53Zm50.88,22.56c-15.35,1.44-29.85-1.67-40-9.85-.33-.22-.66-.45-1-.69a175.82,175.82,0,0,1,17.06-34.2q4.36-6.73,9.27-13.17C1410.31,138.56,1416.13,158.71,1411.35,184.09Zm26-6.66a91,91,0,0,1-12.3,4.19c.69-28.22-9.39-49.12-23.21-61.86a162,162,0,0,1,12.2-13.2,103.23,103.23,0,0,1,11.83-9.88c17.39,17.83,28.71,39.5,34.89,66.81A105.52,105.52,0,0,1,1437.36,177.43Zm45.69-38a90.15,90.15,0,0,1-11,13.9c-11.31-27.47-27.48-47.57-41.13-60a129.47,129.47,0,0,1,18.25-9.66c.95-.41,1.9-.81,2.86-1.19,11,11.7,26.64,23,42,28.94A85.18,85.18,0,0,1,1483.05,139.43Zm-24.9-59.21.8-.28c3.31-1.08,6.67-2,10-2.76a86.21,86.21,0,0,1,10.17-1.67c2.28-.25,4.53-.4,6.79-.44a47,47,0,0,1,8.75,25.08C1480.3,97.46,1467.55,89.55,1458.15,80.22Z"/><path class="cls-1" d="M64.61,91H23.24a48.93,48.93,0,0,1-.59-7.91A12.92,12.92,0,0,1,27.2,72.67q4.56-3.87,12.27-3.86h93a59.52,59.52,0,0,1,.59,8.51,12.51,12.51,0,0,1-4.25,10C126,89.76,122,91,116.85,91H91.92V201.41H64.61Z"/><path class="cls-1" d="M217.59,180.43q7.91,0,12.17,3.66T234,194.48q0,2.18-.09,3.66t-.3,3.27h-85.7V68.81h82.53a37.73,37.73,0,0,1,.6,7.32q0,7.53-3.86,10.69t-13,3.16h-39v32.66h41.95v21.17H175.24v36.62Z"/><path class="cls-1" d="M341.28,106.81q0,14.06-6.63,24.14a36.5,36.5,0,0,1-18.51,14.45L348.8,200A39.31,39.31,0,0,1,333,203.39a22.29,22.29,0,0,1-12.27-3.17q-4.95-3.16-9.11-10.29L289,151.53H278.15v49.88H250.84V69.6a302.84,302.84,0,0,1,35-2q28.31,0,41.86,9.6T341.28,106.81Zm-28.5,2.57q0-11.47-5.94-17t-18.4-5.54c-2.38,0-4.42.07-6.14.19s-3.16.27-4.35.4v45.72h9.3q12.27,0,18.9-6.14T312.78,109.38Z"/><path class="cls-1" d="M422.82,202.39H392.74L348.21,70a33.49,33.49,0,0,1,6.33-1.39,58.06,58.06,0,0,1,8.31-.59q7.13,0,11.68,3.56t6.92,11.08l27.12,90.05,27.7-90.64q2.39-7.32,6.73-10.69T454.48,68a55.23,55.23,0,0,1,13.46,2Z"/><path class="cls-1" d="M481.79,69a67.55,67.55,0,0,1,9.5-1q17.61,0,17.61,15.43v118H481.79Z"/><path class="cls-1" d="M534.83,170.93a67,67,0,0,0,16.62,9.89,44.28,44.28,0,0,0,16,3q10.1,0,16.13-4.65t6-13.16q-.2-6.93-3.76-11a27.4,27.4,0,0,0-9.4-6.73,109.57,109.57,0,0,0-12.77-4.85q-6.33-2-12.66-4.65a49.47,49.47,0,0,1-11.58-6.83A31.13,31.13,0,0,1,531,121.25q-3.27-6.52-3.26-16.23,0-12.06,6.13-20.78a39.06,39.06,0,0,1,16.92-13.35,60.16,60.16,0,0,1,24-4.66,75,75,0,0,1,20,2.68q9.69,2.67,14.44,6.23,5.55,3.17,5.54,8.91a15.07,15.07,0,0,1-2.17,6.63,36.9,36.9,0,0,1-5.74,7.81,52.76,52.76,0,0,0-14-8,42.51,42.51,0,0,0-15.44-3.07q-9.71,0-15.44,3.86a12.65,12.65,0,0,0-5.74,11.18,13.73,13.73,0,0,0,1.88,7.13,18.75,18.75,0,0,0,6.24,5.93q4.35,2.77,16.23,7.13,6.33,2.37,12.86,5.14a51.08,51.08,0,0,1,11.88,7A33,33,0,0,1,614,145.5q3.36,6.44,3.37,16.13,0,20.18-13.36,31.66t-36.32,11.48a87.67,87.67,0,0,1-20-2.18,58.58,58.58,0,0,1-15.83-5.93q-5.54-3.76-5.54-8.71Q526.32,182.21,534.83,170.93Z"/><path class="cls-1" d="M707.4,180.43q7.92,0,12.17,3.66t4.26,10.39c0,1.45,0,2.67-.1,3.66s-.17,2.08-.3,3.27H637.74V68.81h82.53a38.63,38.63,0,0,1,.59,7.32q0,7.53-3.86,10.69T704,90h-39v32.66h42v21.17h-42v36.62Z"/><path class="cls-1" d="M740.65,69a67.55,67.55,0,0,1,9.5-1q17.61,0,17.61,15.43v48.29a25.06,25.06,0,0,1,2.28-8.21,50.3,50.3,0,0,1,5.84-9.2L803,78.7a31.85,31.85,0,0,1,8.81-8.11,19.66,19.66,0,0,1,10-2.57,25.76,25.76,0,0,1,9,1.58,19.47,19.47,0,0,1,7,4.35l-43.73,58.39L843.36,199a30.48,30.48,0,0,1-15.63,4.55q-13.26,0-21.18-10.29l-29.09-37.6q-8.91-11.48-9.7-21.57v67.29H740.65Z"/><path class="cls-1" d="M947.26,201.41,936,169H890.27l-10.89,32.46H852.47L898.38,70.79Q904.71,68,914.21,68q14.65,0,18.61,12.27l42.55,121.12ZM913.42,92.75l-18,56.41h35.43Z"/><path class="cls-1" d="M989.81,170.93a66.84,66.84,0,0,0,16.63,9.89,44.24,44.24,0,0,0,16,3q10.1,0,16.13-4.65t6-13.16q-.2-6.93-3.76-11a27.4,27.4,0,0,0-9.4-6.73,110.08,110.08,0,0,0-12.76-4.85q-6.35-2-12.67-4.65a49.67,49.67,0,0,1-11.58-6.83A31.24,31.24,0,0,1,986,121.25q-3.26-6.52-3.26-16.23,0-12.06,6.13-20.78a39.06,39.06,0,0,1,16.92-13.35,60.16,60.16,0,0,1,24-4.66,75,75,0,0,1,20,2.68q9.69,2.67,14.45,6.23,5.54,3.17,5.54,8.91,0,2.57-2.18,6.63a36.21,36.21,0,0,1-5.74,7.81,52.61,52.61,0,0,0-14-8,42.47,42.47,0,0,0-15.44-3.07q-9.69,0-15.43,3.86a12.63,12.63,0,0,0-5.74,11.18,13.64,13.64,0,0,0,1.88,7.13,18.61,18.61,0,0,0,6.23,5.93q4.35,2.77,16.23,7.13,6.33,2.37,12.86,5.14a50.67,50.67,0,0,1,11.88,7A33.17,33.17,0,0,1,1069,145.5q3.36,6.44,3.36,16.13,0,20.18-13.36,31.66t-36.31,11.48a87.61,87.61,0,0,1-20-2.18,58.52,58.52,0,0,1-15.84-5.93q-5.54-3.76-5.54-8.71Q981.3,182.21,989.81,170.93Z"/><path class="cls-1" d="M1092.33,170.93a66.8,66.8,0,0,0,16.62,9.89,44.28,44.28,0,0,0,16,3q10.1,0,16.13-4.65t6-13.16q-.21-6.93-3.76-11a27.5,27.5,0,0,0-9.4-6.73,110.26,110.26,0,0,0-12.77-4.85q-6.33-2-12.66-4.65a49.26,49.26,0,0,1-11.58-6.83,31,31,0,0,1-8.51-10.69q-3.27-6.52-3.27-16.23,0-12.06,6.14-20.78a39.06,39.06,0,0,1,16.92-13.35,60.11,60.11,0,0,1,24-4.66,75,75,0,0,1,20,2.68q9.7,2.67,14.45,6.23,5.54,3.17,5.54,8.91,0,2.57-2.18,6.63a36.21,36.21,0,0,1-5.74,7.81,52.61,52.61,0,0,0-14-8,42.46,42.46,0,0,0-15.43-3.07q-9.7,0-15.44,3.86a12.63,12.63,0,0,0-5.74,11.18,13.73,13.73,0,0,0,1.88,7.13,18.61,18.61,0,0,0,6.23,5.93q4.37,2.77,16.23,7.13,6.33,2.37,12.87,5.14a50.8,50.8,0,0,1,11.87,7,33.17,33.17,0,0,1,8.71,10.69q3.36,6.44,3.36,16.13,0,20.18-13.35,31.66t-36.32,11.48a87.61,87.61,0,0,1-20-2.18,58.45,58.45,0,0,1-15.83-5.93q-5.55-3.76-5.54-8.71Q1083.82,182.21,1092.33,170.93Z"/><path class="cls-1" d="M1273.61,201.41,1262.33,169h-45.72l-10.89,32.46h-26.91l45.91-130.62q6.35-2.78,15.84-2.77,14.64,0,18.6,12.27l42.55,121.12ZM1239.76,92.75l-18,56.41h35.42Z"/></svg>