<?xml version="1.0" encoding="UTF-8"?>
<svg version="1.1" xmlns="http://www.w3.org/2000/svg" width="1395" height="202">
<path d="M0 0 C3.10212155 1.30640647 4.3858693 1.11418982 7.55078125 0.07421875 C9.19465927 -0.65548948 10.8191096 -1.42994022 12.42578125 -2.23828125 C25.3152182 -8.20593443 39.37468876 -11.71612161 53.17578125 -6.9609375 C63.32729352 -2.53634745 70.54437478 4.71985207 74.82421875 14.8984375 C78.93009333 27.19398664 76.19472962 38.63957185 70.92578125 50.01171875 C64.75397404 61.88292323 55.60649571 72.27600928 43.42578125 77.94921875 C36.05053502 82.00607156 34.64978393 88.07730134 32.11328125 95.625 C28.36437145 106.77097744 19.76050386 118.35210239 9.86328125 124.82421875 C5.67733744 126.40382019 3.81170001 126.494525 -0.44921875 125.07421875 C-3.4323877 123.03531901 -5.91818561 120.64411613 -8.44921875 118.07421875 C-9.11050781 117.42324219 -9.77179688 116.77226562 -10.453125 116.1015625 C-18.79757619 107.36519971 -27.44921875 94.49357919 -27.44921875 82.07421875 C-28.33222656 81.81511719 -29.21523438 81.55601563 -30.125 81.2890625 C-45.80986142 75.55699211 -57.97882689 59.81011757 -64.79296875 45.19140625 C-69.04329693 34.53522632 -69.49037091 24.31968569 -65.515625 13.54296875 C-61.05957476 3.55154814 -54.03552963 -2.83680825 -44.02734375 -7.05078125 C-29.21465092 -12.07811942 -13.0731977 -7.63681846 0 0 Z M-43.26171875 15.38671875 C-47.16928221 20.18743957 -49.15568971 24.31200276 -48.92578125 30.51953125 C-47.1217414 40.19036783 -40.26338776 50.70897439 -32.23046875 56.32421875 C-30.85375 57.19046875 -30.85375 57.19046875 -29.44921875 58.07421875 C-29.04703125 56.2953125 -29.04703125 56.2953125 -28.63671875 54.48046875 C-25.23587425 40.1695724 -20.20539508 27.93154086 -11.44921875 16.07421875 C-22.24465813 10.6175034 -33.19060147 7.10602232 -43.26171875 15.38671875 Z M20.55078125 16.07421875 C21.08703125 17.02296875 21.62328125 17.97171875 22.17578125 18.94921875 C22.54058594 19.59503906 22.90539062 20.24085937 23.28125 20.90625 C24.14567843 22.38242778 25.0459793 23.83804478 25.9765625 25.2734375 C32.40865292 35.32877266 35.93854678 46.28325022 37.55078125 58.07421875 C46.22766532 54.42286029 51.6889756 45.09387618 55.453125 36.89453125 C57.77202043 30.93637289 58.29592205 25.94260401 55.68359375 19.96484375 C52.81045783 15.16967896 48.7611847 12.12999369 43.42578125 10.51171875 C35.53740678 9.15632795 27.12098267 11.75491967 20.55078125 16.07421875 Z M3.55078125 28.07421875 C-5.74956293 40.18878811 -10.93524136 52.76450648 -10.44921875 68.07421875 C-5.46099365 69.69410628 -1.24902579 70.34611878 4.05078125 70.32421875 C5.9225 70.33195312 5.9225 70.33195312 7.83203125 70.33984375 C11.7478235 70.0601443 14.83601455 69.28056051 18.55078125 68.07421875 C19.44680209 54.2605641 15.69026694 42.31956082 7.55078125 31.07421875 C5.46058271 29.27475994 5.46058271 29.27475994 3.55078125 28.07421875 Z M-4.44921875 89.07421875 C-2.88391051 92.98748935 -1.80393637 95.20621137 0.67578125 98.38671875 C1.21460937 99.08410156 1.7534375 99.78148437 2.30859375 100.5 C2.71851562 101.01949219 3.1284375 101.53898437 3.55078125 102.07421875 C7.48320273 100.76341159 8.09487016 99.06119361 10.23828125 95.57421875 C10.86089844 94.57390625 11.48351562 93.57359375 12.125 92.54296875 C13.63413422 90.405041 13.63413422 90.405041 13.55078125 89.07421875 C7.61078125 89.07421875 1.67078125 89.07421875 -4.44921875 89.07421875 Z " fill="#001A72" transform="translate(86.44921875,42.92578125)"/>
<path d="M0 0 C0 0.66 0 1.32 0 2 C0.57878906 2.26039062 1.15757813 2.52078125 1.75390625 2.7890625 C4.15195442 4.08192325 5.92218697 5.54725075 7.9375 7.375 C10.0703705 9.30009584 12.16636064 11.12332729 14.4765625 12.8359375 C17.37867939 15.32474981 19.40410214 18.05253594 21.4375 21.25 C21.82292969 21.85191162 22.20835938 22.45382324 22.60546875 23.07397461 C27.60488958 31.20740738 31.40110382 40.56812761 33 50 C33.226875 51.299375 33.45375 52.59875 33.6875 53.9375 C33.6640625 56.00390625 33.6640625 56.00390625 33 58 C27.62977756 62.98663513 21.07095564 64.85952328 14 66 C13.91363281 64.91203125 13.82726562 63.8240625 13.73828125 62.703125 C12.2129468 45.86097058 6.34128163 30.82449077 -6.75 19.5 C-15.31125093 13.21821526 -26.35975645 9.35060974 -37 9 C-42.65227716 9.91074898 -46.39448638 12.54613023 -50 17 C-52.55807973 21.38527953 -52.84539537 26.06852699 -52 31 C-49.21030491 38.3975018 -45.29002433 44.20616383 -40 50 C-40 50.66 -40 51.32 -40 52 C-39.071875 52.433125 -39.071875 52.433125 -38.125 52.875 C-36 54 -36 54 -34 56 C-33.71503396 58.56763211 -33.5348223 61.04988093 -33.4375 63.625 C-33.36642647 65.07561231 -33.29352941 66.5261365 -33.21875 67.9765625 C-33.16654297 69.01925293 -33.16654297 69.01925293 -33.11328125 70.08300781 C-32.91623035 73.41758465 -32.48176166 76.69649146 -32 80 C-46.82008548 75.65133258 -58.84857806 62.18899172 -66.34375 49.1953125 C-72.21021618 37.8774603 -74.91453003 26.43207528 -71 14 C-67.31972215 4.02167345 -60.92643045 -3.44868703 -51.25 -8 C-33.69583015 -15.39122941 -15.66719482 -8.71487712 0 0 Z " fill="#EE426F" transform="translate(91,45)"/>
<path d="M0 0 C6.27 0 12.54 0 19 0 C19 10.23 19 20.46 19 31 C24.94 31 30.88 31 37 31 C37 20.77 37 10.54 37 0 C42.94 0 48.88 0 55 0 C55 25.08 55 50.16 55 76 C49.06 76 43.12 76 37 76 C37 65.11 37 54.22 37 43 C31.06 43 25.12 43 19 43 C19 53.89 19 64.78 19 76 C12.73 76 6.46 76 0 76 C0 50.92 0 25.84 0 0 Z " fill="#001A72" transform="translate(976,64)"/>
<path d="M0 0 C6.27 0 12.54 0 19 0 C19.00410889 1.70051514 19.00821777 3.40103027 19.01245117 5.15307617 C19.0318725 10.78115677 19.07421655 16.40875474 19.13209057 22.03657055 C19.16633468 25.44772768 19.19146631 28.85843825 19.19555664 32.26977539 C19.20066642 36.1945785 19.24579916 40.11843673 19.29296875 44.04296875 C19.2890361 45.26396774 19.28510345 46.48496674 19.28105164 47.7429657 C19.16835061 54.58423509 19.16835061 54.58423509 22.41088867 60.27978516 C25.04278714 62.02842793 26.04688684 62.6401637 29.125 62.1875 C30.11886719 62.08501953 30.11886719 62.08501953 31.1328125 61.98046875 C34.27293627 60.33157531 34.74468411 58.30600444 36 55 C36.47216651 50.79721322 36.48867853 46.6090316 36.51171875 42.3828125 C36.52966995 41.17051971 36.54762115 39.95822693 36.56611633 38.709198 C36.62017724 34.84783374 36.6541027 30.98659284 36.6875 27.125 C36.72067666 24.50258702 36.75516664 21.88019031 36.79101562 19.2578125 C36.87590186 12.8386307 36.94273402 6.41948522 37 0 C42.61 0 48.22 0 54 0 C54.09065547 7.6847946 54.16391937 15.36938771 54.20724869 23.05458832 C54.22805315 26.62383519 54.25623769 30.19269474 54.30175781 33.76171875 C54.345474 37.21120466 54.36919071 40.66031992 54.37950897 44.11006165 C54.39041005 46.05539182 54.42159466 48.00057452 54.45318604 49.94567871 C54.45527437 58.24471255 53.6264478 63.7862732 48.0703125 70.2421875 C47.42835938 70.78101563 46.78640625 71.31984375 46.125 71.875 C45.48820313 72.42929688 44.85140625 72.98359375 44.1953125 73.5546875 C36.84994521 78.39060547 27.4564655 77.79963193 19 77 C12.69722163 75.68264832 8.35499952 73.11767106 4.25390625 68.171875 C-0.27623647 60.32527266 -0.4051538 53.42404073 -0.29296875 44.53125 C-0.28872391 43.25519897 -0.28447906 41.97914795 -0.28010559 40.66442871 C-0.26621934 37.29738106 -0.23933995 33.93096124 -0.20599365 30.56408691 C-0.17512035 27.11830017 -0.16156367 23.67244815 -0.14648438 20.2265625 C-0.11349893 13.48418143 -0.06175894 6.74217642 0 0 Z " fill="#001A72" transform="translate(471,64)"/>
<path d="M0 0 C3.74217391 1.33128665 6.57380269 2.97931791 9.6875 5.4375 C10.45449219 6.03433594 11.22148438 6.63117188 12.01171875 7.24609375 C14 9 14 9 16 12 C15.55269531 12.58265625 15.10539062 13.1653125 14.64453125 13.765625 C3.91564006 28.31482499 0.31034308 43.23386775 2.359375 61.140625 C4.07214319 69.79704799 8.59187779 77.13207668 14 84 C14.99 84.33 15.98 84.66 17 85 C17.47308594 84.16855469 17.94617188 83.33710938 18.43359375 82.48046875 C24.5066683 72.50073806 24.5066683 72.50073806 29.3125 71 C30.87369555 70.66060966 32.4363188 70.32774758 34 70 C35.96715939 69.2949912 37.92553662 68.56505964 39.875 67.8125 C42.87633109 66.67096809 44.77082276 66 48 66 C44.48631507 82.39719634 35.97821522 97.0158612 22.97265625 107.74609375 C19.46807224 109.97376002 17.17129284 110.20183675 13 110 C10.37503672 108.8016472 9.08044712 107.89744482 7 106 C6.236875 105.32710938 5.47375 104.65421875 4.6875 103.9609375 C-10.39177198 89.84710671 -17.64398618 71.58687156 -18.3347168 51.20092773 C-18.62062385 33.80564931 -13.98217413 16.02284489 -2.5 2.5 C-1.675 1.675 -0.85 0.85 0 0 Z " fill="#00CEB3" transform="translate(75,59)"/>
<path d="M0 0 C0.80824219 -0.020625 1.61648438 -0.04125 2.44921875 -0.0625 C10.77691104 -0.11579723 18.08192455 1.70584541 24.25 7.53125 C30.85570248 15.1002841 32.09394324 25.09050596 31.625 34.8125 C30.8173168 42.80381257 28.55207972 50.44792028 22.75 56.25 C14.79660415 62.43597455 7.46146451 62.46823516 -2.25 62.25 C-2.58 69.84 -2.91 77.43 -3.25 85.25 C-9.19 85.25 -15.13 85.25 -21.25 85.25 C-21.25 58.52 -21.25 31.79 -21.25 4.25 C-13.49283049 0.92549878 -8.21500127 0.05142411 0 0 Z M-3.25 11.25 C-3.25 24.12 -3.25 36.99 -3.25 50.25 C2.31532914 51.63070607 2.31532914 51.63070607 5.875 50.3125 C10.70669352 46.84628508 12.27215944 42.98450363 13.28515625 37.1875 C14.11516438 29.09730585 14.3159273 21.17907617 9.75 14.1875 C5.29556394 9.87226507 4.4361658 11.25 -3.25 11.25 Z " fill="#001A72" transform="translate(1169.25,78.75)"/>
<path d="M0 0 C5.94 0 11.88 0 18 0 C18.01981934 1.28165039 18.03963867 2.56330078 18.06005859 3.88378906 C18.13614503 8.64001067 18.22485798 13.39592757 18.31738281 18.15185547 C18.35565995 20.21006249 18.39051504 22.26833612 18.421875 24.32666016 C18.46755278 27.28572388 18.52554302 30.24432957 18.5859375 33.203125 C18.59748871 34.12305237 18.60903992 35.04297974 18.62094116 35.99078369 C18.64081085 36.8513739 18.66068054 37.71196411 18.68115234 38.59863281 C18.69447601 39.35364075 18.70779968 40.10864868 18.7215271 40.88653564 C19.04054391 43.30770714 19.71889519 44.92785869 21 47 C24.11803399 48.74535599 24.11803399 48.74535599 33 48 C33 32.16 33 16.32 33 0 C38.94 0 44.88 0 51 0 C51 18.81 51 37.62 51 57 C42.42135581 60.21699157 36.62505892 61.20545767 27.75 61.25 C26.23212891 61.2809375 26.23212891 61.2809375 24.68359375 61.3125 C17.67162365 61.34887857 11.70888038 60.8926403 5.9765625 56.421875 C5.53054688 55.87015625 5.08453125 55.3184375 4.625 54.75 C3.93277344 53.93789062 3.93277344 53.93789062 3.2265625 53.109375 C-0.35424276 46.95130227 -0.27241109 40.61000799 -0.1953125 33.69140625 C-0.1924826 32.72468491 -0.18965271 31.75796356 -0.18673706 30.76194763 C-0.17560407 27.69533548 -0.15051224 24.62902285 -0.125 21.5625 C-0.11496131 19.47461361 -0.10583701 17.38672262 -0.09765625 15.29882812 C-0.07568727 10.19910456 -0.04120507 5.09960295 0 0 Z " fill="#001A72" transform="translate(379,80)"/>
<path d="M0 0 C6.6 0 13.2 0 20 0 C21.14470737 4.60693613 22.28580777 9.21446896 23.41796875 13.82446289 C23.80391114 15.39138254 24.19191017 16.95779715 24.58203125 18.52368164 C25.14348402 20.77880252 25.69743553 23.03565579 26.25 25.29296875 C26.42499023 25.98899704 26.59998047 26.68502533 26.78027344 27.40214539 C27.65465773 31.0069189 28.20114668 34.28821523 28 38 C28.66 38 29.32 38 30 38 C30.08121094 36.9996875 30.16242187 35.999375 30.24609375 34.96875 C31.11675862 28.00343104 33.21323711 21.25603723 35.0625 14.5 C35.44385293 13.09127935 35.82471657 11.68242615 36.20507812 10.2734375 C37.13018338 6.84712175 38.06527885 3.42376222 39 0 C44.94 0 50.88 0 57 0 C54.55860045 9.40150271 51.57013705 18.58282529 48.4921875 27.7890625 C47.96060998 29.38514479 47.42921048 30.98128639 46.89797974 32.57748413 C45.79216763 35.89784898 44.68421819 39.21749053 43.57470703 42.53662109 C42.15041913 46.79800192 40.73159887 51.06118034 39.31432915 55.32489967 C38.22188225 58.60944446 37.12659636 61.89303693 36.03042984 65.17634201 C35.50563534 66.7493896 34.98173497 68.32273577 34.45873642 69.89638138 C33.73172957 72.08245284 33.00091832 74.26721464 32.26904297 76.45166016 C31.85395477 77.69533356 31.43886658 78.93900696 31.01119995 80.22036743 C30 83 30 83 29 84 C27.58429877 84.08651611 26.164405 84.10704904 24.74609375 84.09765625 C23.89208984 84.09443359 23.03808594 84.09121094 22.15820312 84.08789062 C21.26037109 84.07951172 20.36253906 84.07113281 19.4375 84.0625 C18.53580078 84.05798828 17.63410156 84.05347656 16.70507812 84.04882812 C14.46998686 84.03700225 12.23502563 84.0205222 10 84 C10.93539524 81.47836818 11.87325455 78.95769759 12.8125 76.4375 C13.07353516 75.73302734 13.33457031 75.02855469 13.60351562 74.30273438 C13.86455078 73.60341797 14.12558594 72.90410156 14.39453125 72.18359375 C14.65443848 71.47702637 14.9143457 70.77045898 15.18212891 70.04248047 C16 68 16 68 17.82421875 64.53515625 C20.42491074 56.71579995 15.628261 47.49602658 13.0859375 40 C12.5241832 38.32466187 12.5241832 38.32466187 11.95108032 36.61547852 C10.76334024 33.07552785 9.56947933 29.53768172 8.375 26 C7.17445816 22.43340229 5.97520355 18.86637873 4.77749634 15.29882812 C4.03376147 13.0846504 3.28818126 10.87109152 2.5406189 8.65820312 C2.0397728 7.17030273 2.0397728 7.17030273 1.52880859 5.65234375 C1.23283783 4.77570068 0.93686707 3.89905762 0.63192749 2.99584961 C0 1 0 1 0 0 Z " fill="#001A72" transform="translate(883,80)"/>
<path d="M0 0 C3.3891032 2.9764579 5.57083707 5.7125112 7 10 C7.08687799 11.54970448 7.1176866 13.10289707 7.11352539 14.6550293 C7.11344986 15.59577805 7.11337433 16.53652679 7.11329651 17.50578308 C7.10813522 18.51836685 7.10297394 19.53095062 7.09765625 20.57421875 C7.0962413 21.61318802 7.09482635 22.65215729 7.09336853 23.72261047 C7.08776656 27.04426948 7.07521372 30.36586133 7.0625 33.6875 C7.05748525 35.93815007 7.0529223 38.18880119 7.04882812 40.43945312 C7.03779648 45.95966133 7.02053051 51.47981928 7 57 C1.06 57 -4.88 57 -11 57 C-11.01458252 55.65252686 -11.02916504 54.30505371 -11.04418945 52.91674805 C-11.10210298 47.92380046 -11.17933628 42.93130717 -11.26245117 37.9387207 C-11.29573322 35.77668625 -11.32375485 33.61456423 -11.34643555 31.45239258 C-11.37992108 28.34678782 -11.432234 25.24198802 -11.48828125 22.13671875 C-11.49467117 21.16788254 -11.5010611 20.19904633 -11.50764465 19.20085144 C-11.53733589 17.84979057 -11.53733589 17.84979057 -11.56762695 16.47143555 C-11.58428154 15.28229805 -11.58428154 15.28229805 -11.60127258 14.06913757 C-12.10158959 11.47281569 -12.91888763 10.59106362 -15 9 C-18.81536284 8.08763062 -22.03629868 8 -26 8 C-26 24.17 -26 40.34 -26 57 C-31.94 57 -37.88 57 -44 57 C-44 38.19 -44 19.38 -44 0 C-31.05723632 -4.85353638 -12.55076576 -7.75128083 0 0 Z " fill="#001A72" transform="translate(580,83)"/>
<path d="M0 0 C6.41049416 4.6712128 9.39783827 10.86171028 11.015625 18.46875 C12.24723747 29.22353922 12.15054914 40.15549166 6.015625 49.46875 C0.98692445 55.31319458 -3.97457696 58.07028681 -11.71875 58.83984375 C-19.97782189 59.09404757 -27.28177096 58.93296815 -33.984375 53.46875 C-41.73702876 45.07141927 -43.5464531 34.96814159 -43.26953125 23.8671875 C-42.61246034 16.0363424 -40.19975297 8.48649382 -34.984375 2.46875 C-25.19818248 -5.36800178 -10.83549998 -6.45824502 0 0 Z M-20.609375 9.46875 C-26.230399 16.56899085 -25.63756379 25.79915328 -24.984375 34.46875 C-24.00656812 39.2640221 -22.87502346 43.29074507 -18.984375 46.46875 C-15.40005414 47.00258502 -13.70150318 46.98667591 -10.734375 44.84375 C-6.68734253 39.35134879 -6.6462601 33.58354253 -6.671875 27.03125 C-6.65576172 26.21076172 -6.63964844 25.39027344 -6.62304688 24.54492188 C-6.61869353 19.09018173 -7.42362178 15.30295243 -9.984375 10.46875 C-11.78932931 8.46696137 -11.78932931 8.46696137 -13.984375 7.46875 C-18.00410297 7.06472119 -18.00410297 7.06472119 -20.609375 9.46875 Z " fill="#001A72" transform="translate(1082.984375,82.53125)"/>
<path d="M0 0 C0.76892578 -0.020625 1.53785156 -0.04125 2.33007812 -0.0625 C8.59953201 -0.10482543 14.17100175 0.8973643 19.2109375 4.828125 C19.65695312 5.37984375 20.10296875 5.9315625 20.5625 6.5 C21.02398438 7.04140625 21.48546875 7.5828125 21.9609375 8.140625 C25.42736366 14.10199483 25.46317574 20.20165704 25.3828125 26.90234375 C25.3799826 27.80247696 25.37715271 28.70261017 25.37423706 29.63002014 C25.36311278 32.4826532 25.33802283 35.33496311 25.3125 38.1875 C25.30246017 40.13085482 25.29333608 42.07421459 25.28515625 44.01757812 C25.26319888 48.76184176 25.22872301 53.50586624 25.1875 58.25 C17.40158039 61.76129708 10.94089988 62.45464853 2.4375 62.5 C1.48617188 62.520625 0.53484375 62.54125 -0.4453125 62.5625 C-7.47678534 62.60102862 -14.33075566 62.08207103 -19.96875 57.49609375 C-20.4121875 56.89925781 -20.855625 56.30242187 -21.3125 55.6875 C-21.7765625 55.08808594 -22.240625 54.48867187 -22.71875 53.87109375 C-25.00361948 50.48459078 -25.0071658 48.00917474 -25.0625 43.9375 C-25.08828125 42.80699219 -25.1140625 41.67648438 -25.140625 40.51171875 C-24.64641938 35.59907955 -22.68019159 33.11769159 -19.25 29.6875 C-11.55111905 23.68690161 -2.25459338 22.37476347 7.1875 21.25 C6.74046014 16.77116304 6.74046014 16.77116304 4.1875 13.25 C-1.88209297 11.73260176 -6.80201982 12.86828042 -12.8125 14.25 C-14.81060662 14.59450114 -16.80972415 14.93377223 -18.8125 15.25 C-19.31865298 13.98160474 -19.81719099 12.71016898 -20.3125 11.4375 C-20.5909375 10.72980469 -20.869375 10.02210937 -21.15625 9.29296875 C-21.8125 7.25 -21.8125 7.25 -21.8125 4.25 C-20.595625 3.775625 -19.37875 3.30125 -18.125 2.8125 C-17.44050781 2.54566406 -16.75601562 2.27882813 -16.05078125 2.00390625 C-10.70827846 0.20442451 -5.58559445 0.03689906 0 0 Z M-6.25 35.875 C-8.64592769 39.51681009 -8.5976761 43.02093267 -7.8125 47.25 C-5.61418636 50.28215675 -4.36286806 51.06654398 -0.8125 52.25 C3.842297 52.5553818 3.842297 52.5553818 8.1875 51.25 C8.1875 44.65 8.1875 38.05 8.1875 31.25 C2.26690012 31.25 -1.35566827 32.61211218 -6.25 35.875 Z " fill="#001A72" transform="translate(1295.8125,78.75)"/>
<path d="M0 0 C0.73976074 -0.00966797 1.47952148 -0.01933594 2.24169922 -0.02929688 C8.28756403 0.06261433 13.89903538 1.2142647 18.7109375 5.05078125 C19.15695312 5.61152344 19.60296875 6.17226562 20.0625 6.75 C20.52398437 7.30300781 20.98546875 7.85601562 21.4609375 8.42578125 C24.9536444 14.1542655 24.95824724 19.72362319 24.8828125 26.2109375 C24.8799826 27.1346817 24.87715271 28.0584259 24.87423706 29.01016235 C24.86309179 31.94440976 24.83799765 34.8783457 24.8125 37.8125 C24.80246289 39.80858932 24.79333832 41.80468346 24.78515625 43.80078125 C24.76317097 48.67980649 24.72868017 53.55860054 24.6875 58.4375 C16.94303706 61.93010094 10.45937618 62.66500962 2 62.75 C1.05705078 62.77900391 0.11410156 62.80800781 -0.85742188 62.83789062 C-8.04545887 62.90211364 -15.44870786 61.90899782 -21.00292969 56.91870117 C-25.59631014 51.54150367 -25.65446307 47.52787568 -25.59375 40.64453125 C-25.13095885 35.3674266 -22.79264055 32.96249329 -19.25 29.3125 C-11.36737909 24.28103984 -2.45756747 22.65045834 6.6875 21.4375 C6.24046014 16.95866304 6.24046014 16.95866304 3.6875 13.4375 C-2.37082092 11.92291977 -7.31768664 13.03035731 -13.3125 14.4375 C-14.97808741 14.77618491 -16.64447756 15.11101874 -18.3125 15.4375 C-18.98369549 13.9812455 -19.64931807 12.52242133 -20.3125 11.0625 C-20.68375 10.25039062 -21.055 9.43828125 -21.4375 8.6015625 C-22.3125 6.4375 -22.3125 6.4375 -22.3125 4.4375 C-14.7907006 1.46067479 -8.0476088 0.03342724 0 0 Z M-6.75 36.0625 C-9.14592769 39.70431009 -9.0976761 43.20843267 -8.3125 47.4375 C-6.11418636 50.46965675 -4.86286806 51.25404398 -1.3125 52.4375 C3.342297 52.7428818 3.342297 52.7428818 7.6875 51.4375 C7.6875 44.8375 7.6875 38.2375 7.6875 31.4375 C1.76690012 31.4375 -1.85566827 32.79961218 -6.75 36.0625 Z " fill="#001A72" transform="translate(268.3125,78.5625)"/>
<path d="M0 0 C6.44005882 4.10340031 10.38053056 9.11859907 12.375 16.5 C13.36063448 21.27095464 13.80399665 25.64391943 13.4375 30.5 C10.53706114 33.40043886 2.73994371 33.00953156 -1.1875 33.5625 C-2.45980469 33.74876953 -3.73210938 33.93503906 -5.04296875 34.12695312 C-6.27917969 34.30291016 -7.51539063 34.47886719 -8.7890625 34.66015625 C-9.91908691 34.82136963 -11.04911133 34.98258301 -12.21337891 35.14868164 C-15.68763309 35.5131263 -19.07180501 35.55955399 -22.5625 35.5 C-19.86093789 42.13682494 -19.86093789 42.13682494 -14.5625 46.5 C-8.18661093 48.01684458 -2.79119994 47.23879578 3.4375 45.5 C4.77015363 45.16395953 6.1032895 44.82980484 7.4375 44.5 C8.13656942 46.09915881 8.82139468 47.70455045 9.5 49.3125 C10.07427734 50.65248047 10.07427734 50.65248047 10.66015625 52.01953125 C11.4375 54.5 11.4375 54.5 10.4375 57.5 C4.53578391 61.04102965 -2.95574035 60.84218094 -9.625 60.9375 C-10.46329346 60.95965576 -11.30158691 60.98181152 -12.1652832 61.00463867 C-20.37479919 60.97652114 -27.64462594 58.35307982 -33.5625 52.5 C-35.328125 49.6953125 -35.328125 49.6953125 -36.8125 46.625 C-37.31265625 45.61695313 -37.8128125 44.60890625 -38.328125 43.5703125 C-42.33241388 33.6102775 -41.18235704 22.40338248 -37.5625 12.5 C-30.67339103 -0.48414618 -13.57766607 -6.0911664 0 0 Z M-19.375 11.6875 C-23.31625831 16.75483211 -23.64429874 20.1494429 -23.5625 26.5 C-20.95783457 26.19127671 -18.35382309 25.87818277 -15.75 25.5625 C-15.01201172 25.47548828 -14.27402344 25.38847656 -13.51367188 25.29882812 C-10.39516879 24.91783454 -7.55141878 24.49630626 -4.5625 23.5 C-4.26692608 18.47524332 -4.5342621 15.57647409 -7.5625 11.5 C-9.48892608 9.16795289 -9.48892608 9.16795289 -12.875 9.0625 C-16.66368022 9.19000102 -16.66368022 9.19000102 -19.375 11.6875 Z " fill="#001A72" transform="translate(717.5625,80.5)"/>
<path d="M0 0 C6.6 0 13.2 0 20 0 C23.14096019 11.63318588 26.10269078 23.30389515 29 35 C31.58431276 27.56513099 33.67114513 20.04408298 35.6875 12.4375 C36.00783203 11.23802734 36.32816406 10.03855469 36.65820312 8.80273438 C37.44127206 5.86914778 38.22098 2.93466439 39 0 C44.94 0 50.88 0 57 0 C55.545307 7.21751529 53.44302197 14.06485321 51.0859375 21.03515625 C50.71143463 22.15442001 50.33693176 23.27368378 49.95108032 24.42686462 C48.76330076 27.97351744 47.56925364 31.51802261 46.375 35.0625 C45.56468805 37.47837609 44.75478792 39.89439036 43.9453125 42.31054688 C41.96830277 48.20864054 39.9856723 54.10481735 38 60 C32.06 60 26.12 60 20 60 C17.27737796 53.35324936 14.81919147 46.69838573 12.6171875 39.86328125 C12.31684601 38.93960251 12.01650452 38.01592377 11.70706177 37.06425476 C11.07867192 35.12953363 10.45188792 33.19429023 9.82666016 31.25854492 C8.87372423 28.30855062 7.91580705 25.36021023 6.95703125 22.41210938 C6.34346016 20.52092735 5.73016918 18.62965441 5.1171875 16.73828125 C4.83382538 15.86520828 4.55046326 14.99213531 4.2585144 14.09260559 C3.99128571 13.26451889 3.72405701 12.43643219 3.44873047 11.58325195 C3.10042679 10.50597588 3.10042679 10.50597588 2.74508667 9.40693665 C1.77915954 6.28659441 0.89735674 3.1407486 0 0 Z " fill="#001A72" transform="translate(620,80)"/>
<path d="M0 0 C15.18 0 30.36 0 46 0 C46 4.29 46 8.58 46 13 C41.38 13 36.76 13 32 13 C32 33.79 32 54.58 32 76 C26.06 76 20.12 76 14 76 C14 55.21 14 34.42 14 13 C9.38 13 4.76 13 0 13 C0 8.71 0 4.42 0 0 Z " fill="#001A72" transform="translate(199,64)"/>
<path d="M0 0 C3 1.6875 3 1.6875 4 4.6875 C3.22265625 6.73046875 3.22265625 6.73046875 2.0625 8.875 C1.49208984 9.94814453 1.49208984 9.94814453 0.91015625 11.04296875 C0.60980469 11.58566406 0.30945312 12.12835938 0 12.6875 C-0.81984375 12.51992187 -1.6396875 12.35234375 -2.484375 12.1796875 C-4.10085938 11.87417969 -4.10085938 11.87417969 -5.75 11.5625 C-6.81734375 11.35367188 -7.8846875 11.14484375 -8.984375 10.9296875 C-12.15938415 10.67469972 -13.42232561 10.89093906 -16 12.6875 C-17.25695267 14.46463532 -17.25695267 14.46463532 -17 16.6875 C-13.44704385 21.6879568 -8.33785865 23.62201924 -2.83984375 26.0625 C0.9071827 28.20660317 3.07899583 30.84549166 5 34.6875 C5.65042476 42.31133125 6.03053054 48.65086336 1 54.6875 C-7.85996307 61.49737101 -17.2191578 61.48280803 -28 60.6875 C-31.3156351 59.98861613 -33.89445293 59.06774314 -37 57.6875 C-36.45660208 53.12295749 -35.20536179 49.7146824 -33 45.6875 C-32.41992188 45.831875 -31.83984375 45.97625 -31.2421875 46.125 C-24.69419976 47.70259364 -24.69419976 47.70259364 -18 47.6875 C-15.65738392 46.30823227 -15.65738392 46.30823227 -14 44.6875 C-13.92749392 41.81297616 -13.92749392 41.81297616 -15 38.6875 C-17.46190598 37.05423555 -19.58701409 35.87104929 -22.25 34.6875 C-28.27948106 31.94577066 -33.11423337 29.18432812 -35.8125 22.75 C-36.37671575 16.54362672 -36.32981687 11.09845242 -33 5.6875 C-24.50116131 -2.49263224 -11.08595079 -3.87096271 0 0 Z " fill="#001A72" transform="translate(1135,80.3125)"/>
<path d="M0 0 C1.1290979 -0.00193359 1.1290979 -0.00193359 2.28100586 -0.00390625 C8.2721729 0.10990329 12.52058141 1.33242918 17.75 4.375 C17.35404157 5.85984412 16.93249294 7.3378831 16.5 8.8125 C16.26796875 9.63621094 16.0359375 10.45992187 15.796875 11.30859375 C14.75 13.375 14.75 13.375 12.8203125 14.22265625 C10.75 14.375 10.75 14.375 7.875 13.375 C4.31739014 12.23656484 2.32340825 12.40043411 -1.25 13.375 C-3.49748441 15.17721125 -3.49748441 15.17721125 -3.375 17.6875 C-1.35124487 22.52202615 3.60690444 24.31745938 8.140625 26.5546875 C12.46482972 28.74542698 15.98646691 30.62581872 18.15625 35.2265625 C19.86819813 41.42111165 19.9370188 48.05895579 16.875 53.8125 C13.37617563 58.42940599 9.33266135 60.9080233 3.75 62.375 C-5.5006264 63.49047827 -14.66629894 63.18997825 -23.25 59.375 C-22.70660208 54.81045749 -21.45536179 51.4021824 -19.25 47.375 C-16.48723823 47.89768466 -13.9239124 48.48369587 -11.25 49.375 C-6.17080492 49.84960519 -6.17080492 49.84960519 -1.75 47.625 C-0.02396151 45.54688677 -0.02396151 45.54688677 -0.43359375 43.38671875 C-1.46292916 40.8503181 -2.45009883 40.27357424 -4.8125 38.9375 C-5.53050781 38.51597656 -6.24851562 38.09445313 -6.98828125 37.66015625 C-7.73464844 37.23605469 -8.48101563 36.81195313 -9.25 36.375 C-15.11197756 32.98455892 -19.99422523 30.14232432 -22.25 23.375 C-23.03471904 16.852827 -22.03034234 11.78776289 -18.25 6.375 C-12.79147693 1.05643906 -7.44917702 -0.01310465 0 0 Z " fill="#001A72" transform="translate(795.25,78.625)"/>
<path d="M0 0 C0 5.61 0 11.22 0 17 C3.3 17 6.6 17 10 17 C10 20.96 10 24.92 10 29 C6.7 29 3.4 29 0 29 C0.09372888 33.34200946 0.19986502 37.68348678 0.31738281 42.02490234 C0.35560666 43.50105536 0.39047103 44.97729943 0.421875 46.45361328 C0.46766986 48.57878094 0.52563837 50.70332542 0.5859375 52.828125 C0.63306885 54.7447998 0.63306885 54.7447998 0.68115234 56.70019531 C0.97556812 59.74715058 1.17116216 61.56502029 3 64 C6.56206661 64.81870185 6.56206661 64.81870185 10 65 C10 68.63 10 72.26 10 76 C4.38244683 78.80877658 -1.33416331 79.16204627 -7.390625 77.2421875 C-11.11285259 75.49136193 -14.11482549 73.77034903 -16 70 C-17.57899026 64.56716596 -18.28132738 59.67077237 -18.1953125 54 C-18.19106766 52.91827515 -18.19106766 52.91827515 -18.18673706 51.81469727 C-18.17566696 49.54295253 -18.15058895 47.27162273 -18.125 45 C-18.1149531 43.44662033 -18.10583027 41.8932344 -18.09765625 40.33984375 C-18.07577111 36.55973938 -18.04133514 32.77993968 -18 29 C-19.98 29 -21.96 29 -24 29 C-24 25.04 -24 21.08 -24 17 C-22.02 17 -20.04 17 -18 17 C-18 12.71 -18 8.42 -18 4 C-15.5636811 3.32873871 -13.12611117 2.66283646 -10.6875 2 C-9.65206055 1.71382813 -9.65206055 1.71382813 -8.59570312 1.421875 C-5.64212051 0.62283816 -3.07440781 0 0 0 Z " fill="#001A72" transform="translate(870,63)"/>
<path d="M0 0 C0 5.61 0 11.22 0 17 C3.3 17 6.6 17 10 17 C10 20.96 10 24.92 10 29 C6.7 29 3.4 29 0 29 C0.09357699 33.50272703 0.19967925 38.004919 0.31738281 42.50708008 C0.35565798 44.03857339 0.39051349 45.57015615 0.421875 47.10180664 C0.46755807 49.3038733 0.52554537 51.50532496 0.5859375 53.70703125 C0.59748871 54.39150833 0.60903992 55.07598541 0.62094116 55.78120422 C0.73273744 59.38460837 0.94394553 60.9159183 3 64 C6.56769552 64.73606499 6.56769552 64.73606499 10 65 C10 68.63 10 72.26 10 76 C4.38244683 78.80877658 -1.33416331 79.16204627 -7.390625 77.2421875 C-11.11285259 75.49136193 -14.11482549 73.77034903 -16 70 C-17.57899026 64.56716596 -18.28132738 59.67077237 -18.1953125 54 C-18.19106766 52.91827515 -18.19106766 52.91827515 -18.18673706 51.81469727 C-18.17566696 49.54295253 -18.15058895 47.27162273 -18.125 45 C-18.1149531 43.44662033 -18.10583027 41.8932344 -18.09765625 40.33984375 C-18.07577111 36.55973938 -18.04133514 32.77993968 -18 29 C-19.98 29 -21.96 29 -24 29 C-24 25.04 -24 21.08 -24 17 C-22.02 17 -20.04 17 -18 17 C-18 12.71 -18 8.42 -18 4 C-15.5636811 3.32873871 -13.12611117 2.66283646 -10.6875 2 C-9.65206055 1.71382813 -9.65206055 1.71382813 -8.59570312 1.421875 C-5.64212051 0.62283816 -3.07440781 0 0 0 Z " fill="#001A72" transform="translate(363,63)"/>
<path d="M0 0 C0 5.61 0 11.22 0 17 C2.97 17 5.94 17 9 17 C9 20.96 9 24.92 9 29 C6.03 29 3.06 29 0 29 C0.11811981 33.66326382 0.24235866 38.3263088 0.37231445 42.98925781 C0.41567241 44.57612657 0.45734687 46.16304224 0.49731445 47.75 C0.55499632 50.02878979 0.61869638 52.30734322 0.68359375 54.5859375 C0.70030624 55.29744965 0.71701874 56.00896179 0.73423767 56.74203491 C0.79721937 60.49660817 0.79721937 60.49660817 2 64 C4.32156597 64.40729228 6.6568787 64.74438677 9 65 C9 68.96 9 72.92 9 77 C1.5922521 78.85193697 -5.25956732 78.9649604 -12 75 C-16.01864485 71.17967788 -17.94261371 67.88905808 -18.11352539 62.26293945 C-18.11336731 60.71304437 -18.10773287 59.16314359 -18.09765625 57.61328125 C-18.0962413 56.79627243 -18.09482635 55.97926361 -18.09336853 55.13749695 C-18.08777294 52.52912732 -18.07522129 49.92084366 -18.0625 47.3125 C-18.05748443 45.54362103 -18.05292162 43.77474072 -18.04882812 42.00585938 C-18.03780496 37.67053981 -18.02054338 33.33528448 -18 29 C-19.98 29 -21.96 29 -24 29 C-24 25.04 -24 21.08 -24 17 C-22.02 17 -20.04 17 -18 17 C-18 12.71 -18 8.42 -18 4 C-15.5636811 3.32873871 -13.12611117 2.66283646 -10.6875 2 C-9.65206055 1.71382813 -9.65206055 1.71382813 -8.59570312 1.421875 C-5.64212051 0.62283816 -3.07440781 0 0 0 Z " fill="#001A72" transform="translate(1257,63)"/>
<path d="M0 0 C5.94 0 11.88 0 18 0 C18 28.71 18 57.42 18 87 C12.06 87 6.12 87 0 87 C0 58.29 0 29.58 0 0 Z " fill="#001A72" transform="translate(1331,53)"/>
<path d="M0 0 C1.3293457 0.00483398 1.3293457 0.00483398 2.68554688 0.00976562 C3.59755859 0.01814453 4.50957031 0.02652344 5.44921875 0.03515625 C6.38056641 0.03966797 7.31191406 0.04417969 8.27148438 0.04882812 C10.55996248 0.06056391 12.84830683 0.07698262 15.13671875 0.09765625 C14.82800753 1.88997962 14.51462811 3.68149946 14.19921875 5.47265625 C13.93818359 6.96925781 13.93818359 6.96925781 13.671875 8.49609375 C13.13671875 11.09765625 13.13671875 11.09765625 12.13671875 13.09765625 C8.17671875 12.76765625 4.21671875 12.43765625 0.13671875 12.09765625 C0.13671875 28.26765625 0.13671875 44.43765625 0.13671875 61.09765625 C-5.80328125 61.09765625 -11.74328125 61.09765625 -17.86328125 61.09765625 C-17.86328125 42.28765625 -17.86328125 23.47765625 -17.86328125 4.09765625 C-11.28700418 1.63155235 -6.80319706 -0.04389159 0 0 Z " fill="#001A72" transform="translate(755.86328125,78.90234375)"/>
<path d="M0 0 C0.87914062 0.00451172 1.75828125 0.00902344 2.6640625 0.01367188 C4.81773803 0.02537663 6.97137817 0.04330931 9.125 0.0625 C8.61542339 5.07333671 8.04007725 8.27480687 6.125 13.0625 C0.68 12.5675 0.68 12.5675 -4.875 12.0625 C-4.875 28.2325 -4.875 44.4025 -4.875 61.0625 C-10.815 61.0625 -16.755 61.0625 -22.875 61.0625 C-22.875 42.2525 -22.875 23.4425 -22.875 4.0625 C-14.66155378 0.54245162 -8.70704517 -0.08523463 0 0 Z " fill="#001A72" transform="translate(325.875,78.9375)"/>
<path d="M0 0 C5.94 0 11.88 0 18 0 C18 19.8 18 39.6 18 60 C12.06 60 6.12 60 0 60 C0 40.2 0 20.4 0 0 Z " fill="#001A72" transform="translate(1208,80)"/>
<path d="M0 0 C5.94 0 11.88 0 18 0 C18 19.8 18 39.6 18 60 C12.06 60 6.12 60 0 60 C0 40.2 0 20.4 0 0 Z " fill="#001A72" transform="translate(822,80)"/>
<path d="M0 0 C5.94 0 11.88 0 18 0 C18 19.8 18 39.6 18 60 C12.06 60 6.12 60 0 60 C0 40.2 0 20.4 0 0 Z " fill="#001A72" transform="translate(597,80)"/>
<path d="M0 0 C3.52348621 1.94916259 4.70157016 3.12336234 6 6.9375 C6 10.60292141 5.23178648 12.13056023 3 15 C-0.7135143 17.4756762 -3.69667338 17.64466177 -8 17 C-11 15.5625 -11 15.5625 -13 13 C-13.70493705 9.85089594 -13.70493705 7.14910406 -13 4 C-9.52785665 -0.44868367 -5.31561452 -1.05238429 0 0 Z " fill="#001A72" transform="translate(1221,55)"/>
<path d="M0 0 C4.6 2.2 4.6 2.2 6 5 C6.48602588 9.29322859 6.46241608 11.32082639 4 14.9375 C-0.11619633 17.76738497 -2.0677327 17.5480297 -7 17 C-9.65506542 16.16155829 -10.61805509 15.49107202 -12.3125 13.3125 C-13.31858949 9.92838082 -12.80442399 7.40333226 -12 4 C-8.68106225 -0.32904924 -5.26458774 -0.3569212 0 0 Z " fill="#001A72" transform="translate(834,55)"/>
<path d="M0 0 C3.79075032 2.06019039 4.78313252 3.29836992 6.0625 7.4375 C5.98713481 11.73331579 5.03450339 13.05219671 2 16 C-1.22938367 17.61469184 -4.50856753 17.58079278 -8 17 C-11 14.9375 -11 14.9375 -13 12 C-13.53416903 8.19404569 -13.55569356 6.00554073 -11.6875 2.625 C-8.30686644 -0.63042491 -4.45199737 -0.38379288 0 0 Z " fill="#001A72" transform="translate(610,55)"/>
</svg>
