<svg xmlns="http://www.w3.org/2000/svg" xmlns:xlink="http://www.w3.org/1999/xlink" width="180" zoomAndPan="magnify" viewBox="0 0 135 30.000001" height="40" preserveAspectRatio="xMidYMid meet" version="1.0"><defs><g/><clipPath id="ba7e60da80"><path d="M 22 0 L 114 0 L 114 29.03125 L 22 29.03125 Z M 22 0 " clip-rule="nonzero"/></clipPath><clipPath id="f7772d1cf0"><path d="M 8 7 L 29 7 L 29 29.03125 L 8 29.03125 Z M 8 7 " clip-rule="nonzero"/></clipPath><clipPath id="40d0b1deb0"><path d="M 1.035156 0.0234375 L 16 0.0234375 L 16 21 L 1.035156 21 Z M 1.035156 0.0234375 " clip-rule="nonzero"/></clipPath><clipPath id="d6d13d06fa"><path d="M 1.035156 6 L 4 6 L 4 12 L 1.035156 12 Z M 1.035156 6 " clip-rule="nonzero"/></clipPath><clipPath id="ee3d0a3858"><path d="M 1.035156 0.0234375 L 12 0.0234375 L 12 19 L 1.035156 19 Z M 1.035156 0.0234375 " clip-rule="nonzero"/></clipPath><clipPath id="f0917c13ea"><path d="M 3 0.0234375 L 22 0.0234375 L 22 23 L 3 23 Z M 3 0.0234375 " clip-rule="nonzero"/></clipPath><clipPath id="16fe0e09e4"><path d="M 28 12 L 30.101562 12 L 30.101562 21 L 28 21 Z M 28 12 " clip-rule="nonzero"/></clipPath><clipPath id="585393c563"><path d="M 1.035156 4 L 6 4 L 6 15 L 1.035156 15 Z M 1.035156 4 " clip-rule="nonzero"/></clipPath><clipPath id="4522fd86cb"><path d="M 1.035156 2 L 9 2 L 9 17 L 1.035156 17 Z M 1.035156 2 " clip-rule="nonzero"/></clipPath><clipPath id="e12353bd39"><path d="M 2 0.0234375 L 20 0.0234375 L 20 23 L 2 23 Z M 2 0.0234375 " clip-rule="nonzero"/></clipPath><clipPath id="8d7fad3689"><path d="M 34 23 L 84 23 L 84 29.03125 L 34 29.03125 Z M 34 23 " clip-rule="nonzero"/></clipPath><clipPath id="c2383218fe"><path d="M 48 4 L 49.996094 4 L 49.996094 5 L 48 5 Z M 48 4 " clip-rule="nonzero"/></clipPath><clipPath id="6eecb2e922"><rect x="0" width="50" y="0" height="7"/></clipPath><clipPath id="01c129456a"><rect x="0" width="92" y="0" height="30"/></clipPath></defs><g clip-path="url(#ba7e60da80)"><g transform="matrix(1, 0, 0, 1, 22, 0.000000000000005692)"><g clip-path="url(#01c129456a)"><g clip-path="url(#f7772d1cf0)"><path fill="#030f4f" d="M 25.472656 18.496094 C 25.472656 13.457031 27.226562 10.632812 28.949219 9.074219 C 28.660156 8.363281 28.316406 7.679688 27.925781 7.03125 C 23.851562 10.671875 24.0625 17.101562 24.0625 17.101562 C 23.398438 28.707031 14.746094 28.527344 10.113281 27.582031 C 9.636719 27.523438 9.175781 27.4375 8.738281 27.324219 C 10.757812 28.398438 13.066406 29.003906 15.515625 29.003906 C 15.792969 29.003906 16.066406 28.996094 16.339844 28.980469 C 20.914062 28.167969 25.472656 24.921875 25.472656 18.496094 " fill-opacity="1" fill-rule="nonzero"/></g><path fill="#030f4f" d="M 23.0625 16.980469 C 23.0625 10.78125 25.71875 7.933594 27.699219 6.671875 C 27.3125 6.074219 26.882812 5.503906 26.417969 4.972656 C 21.515625 8.433594 21.753906 15.679688 21.753906 15.679688 C 21.089844 27.285156 12.4375 27.105469 7.804688 26.164062 C 7.394531 26.113281 6.996094 26.039062 6.613281 25.949219 C 7.199219 26.40625 7.824219 26.820312 8.476562 27.183594 C 8.929688 27.3125 9.484375 27.453125 10.113281 27.582031 C 15.53125 28.246094 23.0625 25.242188 23.0625 16.980469 " fill-opacity="1" fill-rule="nonzero"/><path fill="#030f4f" d="M 20.753906 15.558594 C 20.753906 8.410156 24.285156 5.71875 26.242188 4.773438 C 25.714844 4.195312 25.144531 3.660156 24.53125 3.171875 C 19.484375 6.59375 19.726562 13.976562 19.726562 13.976562 C 19.0625 25.582031 10.410156 25.40625 5.777344 24.460938 C 5.453125 24.421875 5.136719 24.371094 4.832031 24.304688 C 5.34375 24.863281 5.898438 25.378906 6.492188 25.851562 C 6.875 25.957031 7.316406 26.0625 7.804688 26.164062 C 13.21875 26.824219 20.753906 23.820312 20.753906 15.558594 " fill-opacity="1" fill-rule="nonzero"/><g clip-path="url(#40d0b1deb0)"><path fill="#030f4f" d="M 11.769531 10.039062 C 11.769531 4.292969 14.050781 1.429688 15.960938 0.0351562 C 15.8125 0.0273438 15.664062 0.0273438 15.515625 0.0273438 C 14.621094 0.0273438 13.75 0.105469 12.898438 0.261719 C 10.300781 3.917969 10.457031 8.738281 10.457031 8.738281 C 10.011719 16.554688 5.9375 19.027344 1.914062 19.515625 C 2.042969 19.875 2.191406 20.226562 2.347656 20.570312 C 7.015625 19.84375 11.769531 16.597656 11.769531 10.039062 " fill-opacity="1" fill-rule="nonzero"/></g><g clip-path="url(#d6d13d06fa)"><path fill="#030f4f" d="M 1.4375 11.082031 C 2.453125 9.839844 3.191406 8.292969 3.5 6.417969 C 2.554688 7.816406 1.847656 9.390625 1.4375 11.082031 " fill-opacity="1" fill-rule="nonzero"/></g><path fill="#030f4f" d="M 18.726562 13.855469 C 18.726562 6.5625 22.402344 3.910156 24.332031 3.019531 C 23.632812 2.480469 22.882812 2.003906 22.089844 1.601562 C 17.144531 5.050781 17.382812 12.339844 17.382812 12.339844 C 16.730469 23.746094 8.363281 23.773438 3.679688 22.875 C 4.011719 23.347656 4.375 23.800781 4.765625 24.230469 C 5.074219 24.308594 5.414062 24.386719 5.777344 24.460938 C 11.191406 25.125 18.726562 22.117188 18.726562 13.855469 " fill-opacity="1" fill-rule="nonzero"/><path fill="#030f4f" d="M 26.46875 18.617188 C 26.265625 22.191406 25.304688 24.648438 23.933594 26.308594 C 25.015625 25.535156 25.984375 24.617188 26.816406 23.582031 C 27.363281 22.320312 27.679688 20.851562 27.679688 19.164062 C 27.679688 15.597656 28.558594 13.140625 29.679688 11.457031 C 29.554688 10.875 29.394531 10.308594 29.203125 9.753906 C 26.300781 13.449219 26.46875 18.617188 26.46875 18.617188 " fill-opacity="1" fill-rule="nonzero"/><g clip-path="url(#ee3d0a3858)"><path fill="#030f4f" d="M 9.457031 8.617188 C 9.457031 4.769531 10.480469 2.214844 11.730469 0.527344 C 10.929688 0.742188 10.15625 1.027344 9.414062 1.371094 C 8.339844 4.289062 8.429688 7.035156 8.429688 7.035156 C 8.039062 13.90625 4.84375 16.648438 1.34375 17.542969 C 1.433594 17.96875 1.542969 18.382812 1.667969 18.789062 C 5.75 17.621094 9.457031 14.414062 9.457031 8.617188 " fill-opacity="1" fill-rule="nonzero"/></g><g clip-path="url(#f0917c13ea)"><path fill="#030f4f" d="M 15.175781 11.675781 C 14.605469 21.628906 8.160156 22.917969 3.414062 22.484375 C 3.496094 22.609375 3.578125 22.730469 3.664062 22.851562 C 9.058594 23.402344 16.382812 20.367188 16.382812 12.222656 C 16.382812 5.140625 19.847656 2.433594 21.816406 1.464844 C 21.269531 1.199219 20.707031 0.96875 20.125 0.773438 C 14.925781 4.152344 15.175781 11.675781 15.175781 11.675781 " fill-opacity="1" fill-rule="nonzero"/></g><g clip-path="url(#16fe0e09e4)"><path fill="#030f4f" d="M 28.675781 19.28125 C 28.644531 19.851562 28.59375 20.390625 28.523438 20.902344 C 29.472656 18.976562 30.003906 16.808594 30.003906 14.515625 C 30.003906 13.992188 29.976562 13.472656 29.921875 12.964844 C 28.574219 16.113281 28.675781 19.28125 28.675781 19.28125 " fill-opacity="1" fill-rule="nonzero"/></g><g clip-path="url(#585393c563)"><path fill="#030f4f" d="M 5.410156 5.40625 C 5.410156 4.949219 5.421875 4.515625 5.449219 4.09375 C 5.164062 4.371094 4.890625 4.65625 4.628906 4.957031 C 4.316406 9.144531 2.929688 11.738281 1.078125 13.300781 C 1.058594 13.535156 1.042969 13.769531 1.035156 14.007812 C 3.558594 12.300781 5.410156 9.5 5.410156 5.40625 " fill-opacity="1" fill-rule="nonzero"/></g><g clip-path="url(#4522fd86cb)"><path fill="#030f4f" d="M 7.429688 6.914062 C 7.429688 4.996094 7.6875 3.398438 8.097656 2.066406 C 7.570312 2.382812 7.0625 2.730469 6.582031 3.109375 C 6.375 4.535156 6.40625 5.527344 6.40625 5.527344 C 6.082031 11.238281 3.820312 14.097656 1.054688 15.414062 C 1.078125 15.796875 1.117188 16.171875 1.167969 16.546875 C 4.605469 15.066406 7.429688 11.976562 7.429688 6.914062 " fill-opacity="1" fill-rule="nonzero"/></g><g clip-path="url(#e12353bd39)"><path fill="#030f4f" d="M 14.175781 11.554688 C 14.175781 4.175781 17.9375 1.546875 19.851562 0.6875 C 18.828125 0.367188 17.757812 0.15625 16.652344 0.0703125 C 12.554688 3.707031 12.765625 10.160156 12.765625 10.160156 C 12.257812 19.050781 7.0625 21.027344 2.574219 21.039062 C 2.78125 21.449219 3.007812 21.851562 3.253906 22.238281 C 8.34375 22.023438 14.175781 18.824219 14.175781 11.554688 " fill-opacity="1" fill-rule="nonzero"/></g><g fill="#030f4f" fill-opacity="1"><g transform="translate(35.11337, 15.811136)"><g><path d="M 5.265625 0.28125 C 4.546875 0.28125 3.867188 0.144531 3.234375 -0.125 C 2.609375 -0.394531 2.0625 -0.796875 1.59375 -1.328125 C 1.125 -1.867188 0.769531 -2.53125 0.53125 -3.3125 L 2.78125 -4.203125 C 2.945312 -3.578125 3.238281 -3.050781 3.65625 -2.625 C 4.070312 -2.195312 4.617188 -1.984375 5.296875 -1.984375 C 5.617188 -1.984375 5.925781 -2.039062 6.21875 -2.15625 C 6.519531 -2.269531 6.757812 -2.4375 6.9375 -2.65625 C 7.125 -2.882812 7.21875 -3.164062 7.21875 -3.5 C 7.21875 -3.8125 7.140625 -4.082031 6.984375 -4.3125 C 6.835938 -4.550781 6.582031 -4.773438 6.21875 -4.984375 C 5.863281 -5.191406 5.375 -5.40625 4.75 -5.625 L 3.96875 -5.90625 C 3.632812 -6.039062 3.289062 -6.203125 2.9375 -6.390625 C 2.582031 -6.585938 2.257812 -6.832031 1.96875 -7.125 C 1.6875 -7.414062 1.457031 -7.75 1.28125 -8.125 C 1.101562 -8.507812 1.015625 -8.941406 1.015625 -9.421875 C 1.015625 -10.085938 1.1875 -10.6875 1.53125 -11.21875 C 1.875 -11.757812 2.351562 -12.191406 2.96875 -12.515625 C 3.582031 -12.835938 4.296875 -13 5.109375 -13 C 5.960938 -13 6.664062 -12.851562 7.21875 -12.5625 C 7.78125 -12.269531 8.21875 -11.914062 8.53125 -11.5 C 8.84375 -11.082031 9.0625 -10.679688 9.1875 -10.296875 L 7.078125 -9.40625 C 7.003906 -9.644531 6.882812 -9.867188 6.71875 -10.078125 C 6.5625 -10.296875 6.351562 -10.46875 6.09375 -10.59375 C 5.832031 -10.726562 5.515625 -10.796875 5.140625 -10.796875 C 4.796875 -10.796875 4.488281 -10.738281 4.21875 -10.625 C 3.945312 -10.507812 3.734375 -10.351562 3.578125 -10.15625 C 3.429688 -9.96875 3.359375 -9.742188 3.359375 -9.484375 C 3.359375 -9.097656 3.519531 -8.769531 3.84375 -8.5 C 4.164062 -8.226562 4.6875 -7.972656 5.40625 -7.734375 L 6.21875 -7.46875 C 6.664062 -7.3125 7.09375 -7.128906 7.5 -6.921875 C 7.90625 -6.722656 8.265625 -6.46875 8.578125 -6.15625 C 8.898438 -5.851562 9.15625 -5.488281 9.34375 -5.0625 C 9.53125 -4.632812 9.625 -4.125 9.625 -3.53125 C 9.625 -2.882812 9.492188 -2.316406 9.234375 -1.828125 C 8.972656 -1.335938 8.628906 -0.9375 8.203125 -0.625 C 7.773438 -0.320312 7.300781 -0.0976562 6.78125 0.046875 C 6.269531 0.203125 5.765625 0.28125 5.265625 0.28125 Z M 5.265625 0.28125 "/></g></g></g><g fill="#030f4f" fill-opacity="1"><g transform="translate(45.438438, 15.811136)"><g><path d="M 1.125 0 L 1.125 -12.703125 L 3.4375 -12.703125 L 3.4375 0 Z M 2.484375 -1.90625 L 2.484375 -4.78125 L 6.8125 -9.046875 L 9.671875 -9.046875 L 9.671875 -8.90625 Z M 7.078125 0 L 4.03125 -4.875 L 5.640625 -6.46875 L 9.828125 -0.140625 L 9.828125 0 Z M 7.078125 0 "/></g></g></g><g fill="#030f4f" fill-opacity="1"><g transform="translate(55.053759, 15.811136)"><g><path d="M 5.453125 0.28125 C 4.503906 0.28125 3.664062 0.0703125 2.9375 -0.34375 C 2.207031 -0.757812 1.640625 -1.332031 1.234375 -2.0625 C 0.828125 -2.789062 0.625 -3.613281 0.625 -4.53125 C 0.625 -5.4375 0.828125 -6.253906 1.234375 -6.984375 C 1.640625 -7.710938 2.207031 -8.285156 2.9375 -8.703125 C 3.664062 -9.128906 4.503906 -9.34375 5.453125 -9.34375 C 6.398438 -9.34375 7.234375 -9.128906 7.953125 -8.703125 C 8.671875 -8.273438 9.234375 -7.695312 9.640625 -6.96875 C 10.054688 -6.25 10.265625 -5.4375 10.265625 -4.53125 C 10.265625 -3.613281 10.054688 -2.789062 9.640625 -2.0625 C 9.234375 -1.332031 8.671875 -0.757812 7.953125 -0.34375 C 7.234375 0.0703125 6.398438 0.28125 5.453125 0.28125 Z M 5.453125 -1.875 C 5.898438 -1.875 6.304688 -1.976562 6.671875 -2.1875 C 7.046875 -2.394531 7.347656 -2.695312 7.578125 -3.09375 C 7.816406 -3.488281 7.9375 -3.96875 7.9375 -4.53125 C 7.9375 -5.082031 7.816406 -5.550781 7.578125 -5.9375 C 7.347656 -6.332031 7.046875 -6.632812 6.671875 -6.84375 C 6.304688 -7.0625 5.90625 -7.171875 5.46875 -7.171875 C 5.019531 -7.171875 4.601562 -7.0625 4.21875 -6.84375 C 3.832031 -6.632812 3.523438 -6.332031 3.296875 -5.9375 C 3.066406 -5.550781 2.953125 -5.082031 2.953125 -4.53125 C 2.953125 -3.96875 3.066406 -3.488281 3.296875 -3.09375 C 3.523438 -2.695312 3.832031 -2.394531 4.21875 -2.1875 C 4.601562 -1.976562 5.015625 -1.875 5.453125 -1.875 Z M 5.453125 -1.875 "/></g></g></g><g fill="#030f4f" fill-opacity="1"><g transform="translate(65.928787, 15.811136)"><g><path d="M 1.125 0 L 1.125 -12.703125 L 3.4375 -12.703125 L 3.4375 0 Z M 1.125 0 "/></g></g></g><g fill="#030f4f" fill-opacity="1"><g transform="translate(70.488138, 15.811136)"><g><path d="M 4.625 3.421875 C 4.59375 3.503906 4.5625 3.578125 4.53125 3.640625 C 4.5 3.710938 4.472656 3.773438 4.453125 3.828125 L 1.953125 3.828125 C 2.003906 3.734375 2.097656 3.535156 2.234375 3.234375 C 2.367188 2.929688 2.484375 2.675781 2.578125 2.46875 C 2.648438 2.320312 2.734375 2.132812 2.828125 1.90625 C 2.921875 1.6875 3.015625 1.46875 3.109375 1.25 C 3.210938 1.03125 3.296875 0.863281 3.359375 0.75 L 4.71875 -2.296875 L 5.203125 -3.421875 L 7.453125 -9.046875 L 10.046875 -9.046875 L 5.375 1.703125 C 5.25 2.015625 5.132812 2.28125 5.03125 2.5 C 4.925781 2.726562 4.84375 2.914062 4.78125 3.0625 C 4.726562 3.207031 4.675781 3.328125 4.625 3.421875 Z M 4.015625 -0.140625 L 0.078125 -9.046875 L 2.71875 -9.046875 L 5.0625 -3.421875 L 5.328125 -3.421875 Z M 4.015625 -0.140625 "/></g></g></g><g fill="#030f4f" fill-opacity="1"><g transform="translate(80.600318, 15.811136)"><g><path d="M 1.125 0 L 1.125 -9.046875 L 3.296875 -9.046875 L 3.296875 -7.921875 L 3.4375 -7.921875 C 3.71875 -8.359375 4.101562 -8.703125 4.59375 -8.953125 C 5.09375 -9.210938 5.632812 -9.34375 6.21875 -9.34375 C 7.320312 -9.34375 8.148438 -9.003906 8.703125 -8.328125 C 9.265625 -7.648438 9.546875 -6.75 9.546875 -5.625 L 9.546875 0 L 7.21875 0 L 7.21875 -5.34375 C 7.21875 -5.9375 7.066406 -6.390625 6.765625 -6.703125 C 6.460938 -7.015625 6.050781 -7.171875 5.53125 -7.171875 C 5.113281 -7.171875 4.742188 -7.054688 4.421875 -6.828125 C 4.109375 -6.597656 3.863281 -6.289062 3.6875 -5.90625 C 3.519531 -5.519531 3.4375 -5.085938 3.4375 -4.609375 L 3.4375 0 Z M 1.125 0 "/></g></g></g><g clip-path="url(#8d7fad3689)"><g transform="matrix(1, 0, 0, 1, 34, 23)"><g clip-path="url(#6eecb2e922)"><g fill="#030f4f" fill-opacity="1"><g transform="translate(1.113367, 4.57081)"><g><path d="M 0.359375 0 L 0.359375 -3.25 L 2.234375 -3.25 L 2.234375 -2.875 L 0.75 -2.875 L 0.75 -0.359375 L 2.234375 -0.359375 L 2.234375 0 Z M 0.5625 -1.4375 L 0.5625 -1.796875 L 2.09375 -1.796875 L 2.09375 -1.4375 Z M 0.5625 -1.4375 "/></g></g></g><g fill="#030f4f" fill-opacity="1"><g transform="translate(3.512538, 4.57081)"><g><path d="M 1.03125 0.078125 C 0.851562 0.078125 0.695312 0.046875 0.5625 -0.015625 C 0.4375 -0.0859375 0.335938 -0.179688 0.265625 -0.296875 C 0.191406 -0.410156 0.15625 -0.546875 0.15625 -0.703125 C 0.15625 -0.867188 0.195312 -1.007812 0.28125 -1.125 C 0.375 -1.238281 0.492188 -1.328125 0.640625 -1.390625 C 0.785156 -1.453125 0.945312 -1.484375 1.125 -1.484375 C 1.226562 -1.484375 1.320312 -1.472656 1.40625 -1.453125 C 1.5 -1.429688 1.578125 -1.410156 1.640625 -1.390625 C 1.710938 -1.367188 1.765625 -1.347656 1.796875 -1.328125 L 1.796875 -1.46875 C 1.796875 -1.644531 1.734375 -1.78125 1.609375 -1.875 C 1.484375 -1.976562 1.332031 -2.03125 1.15625 -2.03125 C 1.03125 -2.03125 0.910156 -2.003906 0.796875 -1.953125 C 0.691406 -1.898438 0.609375 -1.820312 0.546875 -1.71875 L 0.25 -1.9375 C 0.3125 -2.03125 0.382812 -2.109375 0.46875 -2.171875 C 0.5625 -2.242188 0.664062 -2.296875 0.78125 -2.328125 C 0.894531 -2.367188 1.019531 -2.390625 1.15625 -2.390625 C 1.46875 -2.390625 1.710938 -2.304688 1.890625 -2.140625 C 2.066406 -1.972656 2.15625 -1.75 2.15625 -1.46875 L 2.15625 0 L 1.796875 0 L 1.796875 -0.328125 L 1.78125 -0.328125 C 1.738281 -0.265625 1.679688 -0.203125 1.609375 -0.140625 C 1.535156 -0.078125 1.445312 -0.0234375 1.34375 0.015625 C 1.25 0.0546875 1.144531 0.078125 1.03125 0.078125 Z M 1.0625 -0.265625 C 1.195312 -0.265625 1.316406 -0.296875 1.421875 -0.359375 C 1.535156 -0.429688 1.625 -0.519531 1.6875 -0.625 C 1.757812 -0.738281 1.796875 -0.863281 1.796875 -1 C 1.722656 -1.050781 1.632812 -1.09375 1.53125 -1.125 C 1.425781 -1.15625 1.3125 -1.171875 1.1875 -1.171875 C 0.96875 -1.171875 0.804688 -1.125 0.703125 -1.03125 C 0.597656 -0.9375 0.546875 -0.820312 0.546875 -0.6875 C 0.546875 -0.5625 0.59375 -0.457031 0.6875 -0.375 C 0.789062 -0.300781 0.914062 -0.265625 1.0625 -0.265625 Z M 1.0625 -0.265625 "/></g></g></g><g fill="#030f4f" fill-opacity="1"><g transform="translate(5.920775, 4.57081)"><g><path d="M 0.28125 0 L 0.28125 -2.3125 L 0.640625 -2.3125 L 0.640625 -1.9375 L 0.671875 -1.9375 C 0.703125 -2.03125 0.75 -2.109375 0.8125 -2.171875 C 0.882812 -2.234375 0.96875 -2.28125 1.0625 -2.3125 C 1.15625 -2.351562 1.25 -2.375 1.34375 -2.375 C 1.40625 -2.375 1.457031 -2.367188 1.5 -2.359375 C 1.539062 -2.359375 1.578125 -2.347656 1.609375 -2.328125 L 1.609375 -1.921875 C 1.554688 -1.941406 1.503906 -1.957031 1.453125 -1.96875 C 1.398438 -1.976562 1.34375 -1.984375 1.28125 -1.984375 C 1.164062 -1.984375 1.0625 -1.953125 0.96875 -1.890625 C 0.875 -1.828125 0.800781 -1.742188 0.75 -1.640625 C 0.695312 -1.535156 0.671875 -1.421875 0.671875 -1.296875 L 0.671875 0 Z M 0.28125 0 "/></g></g></g><g fill="#030f4f" fill-opacity="1"><g transform="translate(7.598833, 4.57081)"><g><path d="M 0.28125 0 L 0.28125 -3.25 L 0.671875 -3.25 L 0.671875 0 Z M 0.28125 0 "/></g></g></g><g fill="#030f4f" fill-opacity="1"><g transform="translate(8.546706, 4.57081)"><g><path d="M 0.90625 0.859375 C 0.894531 0.878906 0.882812 0.898438 0.875 0.921875 C 0.863281 0.953125 0.859375 0.972656 0.859375 0.984375 L 0.453125 0.984375 C 0.472656 0.941406 0.492188 0.894531 0.515625 0.84375 C 0.535156 0.800781 0.5625 0.742188 0.59375 0.671875 C 0.613281 0.640625 0.628906 0.601562 0.640625 0.5625 C 0.660156 0.53125 0.675781 0.492188 0.6875 0.453125 C 0.707031 0.421875 0.734375 0.375 0.765625 0.3125 L 1.078125 -0.375 L 1.171875 -0.59375 L 1.859375 -2.3125 L 2.28125 -2.3125 L 1.09375 0.453125 C 1.070312 0.472656 1.050781 0.515625 1.03125 0.578125 C 1.007812 0.640625 0.984375 0.695312 0.953125 0.75 C 0.929688 0.800781 0.914062 0.835938 0.90625 0.859375 Z M 1 -0.09375 L 0.015625 -2.3125 L 0.4375 -2.3125 L 1.15625 -0.59375 L 1.203125 -0.59375 Z M 1 -0.09375 "/></g></g></g><g fill="#030f4f" fill-opacity="1"><g transform="translate(10.578516, 4.57081)"><g><path d="M 0.53125 0.03125 C 0.445312 0.03125 0.378906 0.00390625 0.328125 -0.046875 C 0.273438 -0.109375 0.25 -0.179688 0.25 -0.265625 C 0.25 -0.335938 0.273438 -0.398438 0.328125 -0.453125 C 0.378906 -0.515625 0.445312 -0.546875 0.53125 -0.546875 C 0.613281 -0.546875 0.679688 -0.515625 0.734375 -0.453125 C 0.796875 -0.398438 0.828125 -0.335938 0.828125 -0.265625 C 0.828125 -0.179688 0.796875 -0.109375 0.734375 -0.046875 C 0.679688 0.00390625 0.613281 0.03125 0.53125 0.03125 Z M 0.53125 0.03125 "/></g></g></g><g fill="#030f4f" fill-opacity="1"><g transform="translate(11.648843, 4.57081)"><g/></g></g><g fill="#030f4f" fill-opacity="1"><g transform="translate(12.701033, 4.57081)"><g><path d="M 0.0625 0 L 1.296875 -3.25 L 1.734375 -3.25 L 2.96875 0 L 2.546875 0 L 1.65625 -2.421875 L 1.53125 -2.765625 L 1.515625 -2.765625 L 1.375 -2.421875 L 0.484375 0 Z M 1.46875 -0.890625 L 1.46875 -1.25 L 2.21875 -1.25 L 2.359375 -0.890625 Z M 0.59375 -0.890625 L 0.71875 -1.25 L 1.46875 -1.25 L 1.46875 -0.890625 Z M 0.59375 -0.890625 "/></g></g></g><g fill="#030f4f" fill-opacity="1"><g transform="translate(15.739676, 4.57081)"><g><path d="M 1.328125 0.078125 C 1.097656 0.078125 0.894531 0.0234375 0.71875 -0.078125 C 0.539062 -0.191406 0.398438 -0.34375 0.296875 -0.53125 C 0.203125 -0.71875 0.15625 -0.925781 0.15625 -1.15625 C 0.15625 -1.394531 0.203125 -1.601562 0.296875 -1.78125 C 0.398438 -1.96875 0.539062 -2.113281 0.71875 -2.21875 C 0.894531 -2.332031 1.097656 -2.390625 1.328125 -2.390625 C 1.585938 -2.390625 1.800781 -2.328125 1.96875 -2.203125 C 2.132812 -2.085938 2.253906 -1.9375 2.328125 -1.75 L 1.96875 -1.59375 C 1.914062 -1.738281 1.832031 -1.847656 1.71875 -1.921875 C 1.601562 -1.992188 1.46875 -2.03125 1.3125 -2.03125 C 1.175781 -2.03125 1.046875 -1.992188 0.921875 -1.921875 C 0.804688 -1.847656 0.710938 -1.742188 0.640625 -1.609375 C 0.578125 -1.484375 0.546875 -1.332031 0.546875 -1.15625 C 0.546875 -0.976562 0.578125 -0.820312 0.640625 -0.6875 C 0.710938 -0.5625 0.804688 -0.460938 0.921875 -0.390625 C 1.046875 -0.316406 1.175781 -0.28125 1.3125 -0.28125 C 1.46875 -0.28125 1.601562 -0.316406 1.71875 -0.390625 C 1.84375 -0.460938 1.9375 -0.570312 2 -0.71875 L 2.34375 -0.5625 C 2.257812 -0.382812 2.132812 -0.234375 1.96875 -0.109375 C 1.800781 0.015625 1.585938 0.078125 1.328125 0.078125 Z M 1.328125 0.078125 "/></g></g></g><g fill="#030f4f" fill-opacity="1"><g transform="translate(18.14338, 4.57081)"><g><path d="M 1.328125 0.078125 C 1.097656 0.078125 0.894531 0.0234375 0.71875 -0.078125 C 0.539062 -0.191406 0.398438 -0.34375 0.296875 -0.53125 C 0.203125 -0.71875 0.15625 -0.925781 0.15625 -1.15625 C 0.15625 -1.394531 0.203125 -1.601562 0.296875 -1.78125 C 0.398438 -1.96875 0.539062 -2.113281 0.71875 -2.21875 C 0.894531 -2.332031 1.097656 -2.390625 1.328125 -2.390625 C 1.585938 -2.390625 1.800781 -2.328125 1.96875 -2.203125 C 2.132812 -2.085938 2.253906 -1.9375 2.328125 -1.75 L 1.96875 -1.59375 C 1.914062 -1.738281 1.832031 -1.847656 1.71875 -1.921875 C 1.601562 -1.992188 1.46875 -2.03125 1.3125 -2.03125 C 1.175781 -2.03125 1.046875 -1.992188 0.921875 -1.921875 C 0.804688 -1.847656 0.710938 -1.742188 0.640625 -1.609375 C 0.578125 -1.484375 0.546875 -1.332031 0.546875 -1.15625 C 0.546875 -0.976562 0.578125 -0.820312 0.640625 -0.6875 C 0.710938 -0.5625 0.804688 -0.460938 0.921875 -0.390625 C 1.046875 -0.316406 1.175781 -0.28125 1.3125 -0.28125 C 1.46875 -0.28125 1.601562 -0.316406 1.71875 -0.390625 C 1.84375 -0.460938 1.9375 -0.570312 2 -0.71875 L 2.34375 -0.5625 C 2.257812 -0.382812 2.132812 -0.234375 1.96875 -0.109375 C 1.800781 0.015625 1.585938 0.078125 1.328125 0.078125 Z M 1.328125 0.078125 "/></g></g></g><g fill="#030f4f" fill-opacity="1"><g transform="translate(20.592435, 4.57081)"><g><path d="M 1.125 0.078125 C 0.832031 0.078125 0.613281 -0.00390625 0.46875 -0.171875 C 0.332031 -0.335938 0.265625 -0.566406 0.265625 -0.859375 L 0.265625 -2.3125 L 0.640625 -2.3125 L 0.640625 -0.921875 C 0.640625 -0.691406 0.691406 -0.523438 0.796875 -0.421875 C 0.910156 -0.328125 1.046875 -0.28125 1.203125 -0.28125 C 1.335938 -0.28125 1.453125 -0.3125 1.546875 -0.375 C 1.648438 -0.445312 1.726562 -0.539062 1.78125 -0.65625 C 1.832031 -0.769531 1.859375 -0.882812 1.859375 -1 L 1.859375 -2.3125 L 2.25 -2.3125 L 2.25 0 L 1.890625 0 L 1.890625 -0.328125 L 1.859375 -0.328125 C 1.828125 -0.253906 1.769531 -0.1875 1.6875 -0.125 C 1.613281 -0.0703125 1.523438 -0.0234375 1.421875 0.015625 C 1.328125 0.0546875 1.226562 0.078125 1.125 0.078125 Z M 1.125 0.078125 "/></g></g></g><g fill="#030f4f" fill-opacity="1"><g transform="translate(23.127665, 4.57081)"><g><path d="M 0.28125 0 L 0.28125 -2.3125 L 0.640625 -2.3125 L 0.640625 -1.9375 L 0.671875 -1.9375 C 0.703125 -2.03125 0.75 -2.109375 0.8125 -2.171875 C 0.882812 -2.234375 0.96875 -2.28125 1.0625 -2.3125 C 1.15625 -2.351562 1.25 -2.375 1.34375 -2.375 C 1.40625 -2.375 1.457031 -2.367188 1.5 -2.359375 C 1.539062 -2.359375 1.578125 -2.347656 1.609375 -2.328125 L 1.609375 -1.921875 C 1.554688 -1.941406 1.503906 -1.957031 1.453125 -1.96875 C 1.398438 -1.976562 1.34375 -1.984375 1.28125 -1.984375 C 1.164062 -1.984375 1.0625 -1.953125 0.96875 -1.890625 C 0.875 -1.828125 0.800781 -1.742188 0.75 -1.640625 C 0.695312 -1.535156 0.671875 -1.421875 0.671875 -1.296875 L 0.671875 0 Z M 0.28125 0 "/></g></g></g><g fill="#030f4f" fill-opacity="1"><g transform="translate(24.737696, 4.57081)"><g><path d="M 1.03125 0.078125 C 0.851562 0.078125 0.695312 0.046875 0.5625 -0.015625 C 0.4375 -0.0859375 0.335938 -0.179688 0.265625 -0.296875 C 0.191406 -0.410156 0.15625 -0.546875 0.15625 -0.703125 C 0.15625 -0.867188 0.195312 -1.007812 0.28125 -1.125 C 0.375 -1.238281 0.492188 -1.328125 0.640625 -1.390625 C 0.785156 -1.453125 0.945312 -1.484375 1.125 -1.484375 C 1.226562 -1.484375 1.320312 -1.472656 1.40625 -1.453125 C 1.5 -1.429688 1.578125 -1.410156 1.640625 -1.390625 C 1.710938 -1.367188 1.765625 -1.347656 1.796875 -1.328125 L 1.796875 -1.46875 C 1.796875 -1.644531 1.734375 -1.78125 1.609375 -1.875 C 1.484375 -1.976562 1.332031 -2.03125 1.15625 -2.03125 C 1.03125 -2.03125 0.910156 -2.003906 0.796875 -1.953125 C 0.691406 -1.898438 0.609375 -1.820312 0.546875 -1.71875 L 0.25 -1.9375 C 0.3125 -2.03125 0.382812 -2.109375 0.46875 -2.171875 C 0.5625 -2.242188 0.664062 -2.296875 0.78125 -2.328125 C 0.894531 -2.367188 1.019531 -2.390625 1.15625 -2.390625 C 1.46875 -2.390625 1.710938 -2.304688 1.890625 -2.140625 C 2.066406 -1.972656 2.15625 -1.75 2.15625 -1.46875 L 2.15625 0 L 1.796875 0 L 1.796875 -0.328125 L 1.78125 -0.328125 C 1.738281 -0.265625 1.679688 -0.203125 1.609375 -0.140625 C 1.535156 -0.078125 1.445312 -0.0234375 1.34375 0.015625 C 1.25 0.0546875 1.144531 0.078125 1.03125 0.078125 Z M 1.0625 -0.265625 C 1.195312 -0.265625 1.316406 -0.296875 1.421875 -0.359375 C 1.535156 -0.429688 1.625 -0.519531 1.6875 -0.625 C 1.757812 -0.738281 1.796875 -0.863281 1.796875 -1 C 1.722656 -1.050781 1.632812 -1.09375 1.53125 -1.125 C 1.425781 -1.15625 1.3125 -1.171875 1.1875 -1.171875 C 0.96875 -1.171875 0.804688 -1.125 0.703125 -1.03125 C 0.597656 -0.9375 0.546875 -0.820312 0.546875 -0.6875 C 0.546875 -0.5625 0.59375 -0.457031 0.6875 -0.375 C 0.789062 -0.300781 0.914062 -0.265625 1.0625 -0.265625 Z M 1.0625 -0.265625 "/></g></g></g><g fill="#030f4f" fill-opacity="1"><g transform="translate(27.077907, 4.57081)"><g><path d="M 0.109375 -1.96875 L 0.109375 -2.3125 L 0.546875 -2.3125 L 0.546875 -1.96875 Z M 1.15625 0.03125 C 0.96875 0.03125 0.8125 -0.0234375 0.6875 -0.140625 C 0.570312 -0.253906 0.515625 -0.410156 0.515625 -0.609375 L 0.515625 -2.96875 L 0.90625 -2.96875 L 0.90625 -0.703125 C 0.90625 -0.566406 0.929688 -0.46875 0.984375 -0.40625 C 1.035156 -0.351562 1.113281 -0.328125 1.21875 -0.328125 C 1.269531 -0.328125 1.316406 -0.332031 1.359375 -0.34375 C 1.398438 -0.351562 1.441406 -0.375 1.484375 -0.40625 L 1.484375 -0.015625 C 1.429688 -0.00390625 1.378906 0.00390625 1.328125 0.015625 C 1.273438 0.0234375 1.21875 0.03125 1.15625 0.03125 Z M 0.875 -1.96875 L 0.875 -2.3125 L 1.46875 -2.3125 L 1.46875 -1.96875 Z M 0.875 -1.96875 "/></g></g></g><g fill="#030f4f" fill-opacity="1"><g transform="translate(28.615369, 4.57081)"><g><path d="M 1.3125 0.078125 C 1.082031 0.078125 0.878906 0.0234375 0.703125 -0.078125 C 0.535156 -0.191406 0.398438 -0.335938 0.296875 -0.515625 C 0.203125 -0.703125 0.15625 -0.914062 0.15625 -1.15625 C 0.15625 -1.375 0.203125 -1.578125 0.296875 -1.765625 C 0.390625 -1.953125 0.519531 -2.101562 0.6875 -2.21875 C 0.851562 -2.332031 1.050781 -2.390625 1.28125 -2.390625 C 1.507812 -2.390625 1.703125 -2.335938 1.859375 -2.234375 C 2.023438 -2.128906 2.15625 -1.988281 2.25 -1.8125 C 2.34375 -1.632812 2.390625 -1.429688 2.390625 -1.203125 C 2.390625 -1.179688 2.382812 -1.160156 2.375 -1.140625 C 2.375 -1.117188 2.375 -1.097656 2.375 -1.078125 L 0.390625 -1.078125 L 0.390625 -1.40625 L 1.96875 -1.40625 C 1.96875 -1.46875 1.953125 -1.535156 1.921875 -1.609375 C 1.898438 -1.679688 1.859375 -1.75 1.796875 -1.8125 C 1.742188 -1.875 1.675781 -1.925781 1.59375 -1.96875 C 1.507812 -2.007812 1.40625 -2.03125 1.28125 -2.03125 C 1.125 -2.03125 0.988281 -1.988281 0.875 -1.90625 C 0.769531 -1.832031 0.6875 -1.726562 0.625 -1.59375 C 0.570312 -1.46875 0.546875 -1.320312 0.546875 -1.15625 C 0.546875 -0.957031 0.582031 -0.789062 0.65625 -0.65625 C 0.726562 -0.53125 0.820312 -0.4375 0.9375 -0.375 C 1.0625 -0.3125 1.191406 -0.28125 1.328125 -0.28125 C 1.492188 -0.28125 1.628906 -0.316406 1.734375 -0.390625 C 1.847656 -0.472656 1.9375 -0.570312 2 -0.6875 L 2.328125 -0.53125 C 2.242188 -0.351562 2.113281 -0.207031 1.9375 -0.09375 C 1.769531 0.0195312 1.5625 0.078125 1.3125 0.078125 Z M 1.3125 0.078125 "/></g></g></g><g fill="#030f4f" fill-opacity="1"><g transform="translate(31.159664, 4.57081)"><g><path d="M 0.53125 0.03125 C 0.445312 0.03125 0.378906 0.00390625 0.328125 -0.046875 C 0.273438 -0.109375 0.25 -0.179688 0.25 -0.265625 C 0.25 -0.335938 0.273438 -0.398438 0.328125 -0.453125 C 0.378906 -0.515625 0.445312 -0.546875 0.53125 -0.546875 C 0.613281 -0.546875 0.679688 -0.515625 0.734375 -0.453125 C 0.796875 -0.398438 0.828125 -0.335938 0.828125 -0.265625 C 0.828125 -0.179688 0.796875 -0.109375 0.734375 -0.046875 C 0.679688 0.00390625 0.613281 0.03125 0.53125 0.03125 Z M 0.53125 0.03125 "/></g></g></g><g fill="#030f4f" fill-opacity="1"><g transform="translate(32.229991, 4.57081)"><g/></g></g><g fill="#030f4f" fill-opacity="1"><g transform="translate(33.282181, 4.57081)"><g><path d="M 1.015625 0 L 1.015625 -3.015625 L 1.390625 -3.015625 L 1.390625 0 Z M 0.09375 -2.875 L 0.09375 -3.25 L 2.296875 -3.25 L 2.296875 -2.875 Z M 0.09375 -2.875 "/></g></g></g><g fill="#030f4f" fill-opacity="1"><g transform="translate(35.413769, 4.57081)"><g><path d="M 0.28125 0 L 0.28125 -2.3125 L 0.640625 -2.3125 L 0.640625 -1.9375 L 0.671875 -1.9375 C 0.703125 -2.03125 0.75 -2.109375 0.8125 -2.171875 C 0.882812 -2.234375 0.96875 -2.28125 1.0625 -2.3125 C 1.15625 -2.351562 1.25 -2.375 1.34375 -2.375 C 1.40625 -2.375 1.457031 -2.367188 1.5 -2.359375 C 1.539062 -2.359375 1.578125 -2.347656 1.609375 -2.328125 L 1.609375 -1.921875 C 1.554688 -1.941406 1.503906 -1.957031 1.453125 -1.96875 C 1.398438 -1.976562 1.34375 -1.984375 1.28125 -1.984375 C 1.164062 -1.984375 1.0625 -1.953125 0.96875 -1.890625 C 0.875 -1.828125 0.800781 -1.742188 0.75 -1.640625 C 0.695312 -1.535156 0.671875 -1.421875 0.671875 -1.296875 L 0.671875 0 Z M 0.28125 0 "/></g></g></g><g fill="#030f4f" fill-opacity="1"><g transform="translate(37.091827, 4.57081)"><g><path d="M 1.125 0.078125 C 0.832031 0.078125 0.613281 -0.00390625 0.46875 -0.171875 C 0.332031 -0.335938 0.265625 -0.566406 0.265625 -0.859375 L 0.265625 -2.3125 L 0.640625 -2.3125 L 0.640625 -0.921875 C 0.640625 -0.691406 0.691406 -0.523438 0.796875 -0.421875 C 0.910156 -0.328125 1.046875 -0.28125 1.203125 -0.28125 C 1.335938 -0.28125 1.453125 -0.3125 1.546875 -0.375 C 1.648438 -0.445312 1.726562 -0.539062 1.78125 -0.65625 C 1.832031 -0.769531 1.859375 -0.882812 1.859375 -1 L 1.859375 -2.3125 L 2.25 -2.3125 L 2.25 0 L 1.890625 0 L 1.890625 -0.328125 L 1.859375 -0.328125 C 1.828125 -0.253906 1.769531 -0.1875 1.6875 -0.125 C 1.613281 -0.0703125 1.523438 -0.0234375 1.421875 0.015625 C 1.328125 0.0546875 1.226562 0.078125 1.125 0.078125 Z M 1.125 0.078125 "/></g></g></g><g fill="#030f4f" fill-opacity="1"><g transform="translate(39.627056, 4.57081)"><g><path d="M 1.09375 0.078125 C 0.914062 0.078125 0.757812 0.0507812 0.625 0 C 0.5 -0.0625 0.390625 -0.140625 0.296875 -0.234375 C 0.210938 -0.328125 0.148438 -0.429688 0.109375 -0.546875 L 0.453125 -0.703125 C 0.515625 -0.566406 0.601562 -0.457031 0.71875 -0.375 C 0.832031 -0.300781 0.960938 -0.265625 1.109375 -0.265625 C 1.253906 -0.265625 1.375 -0.289062 1.46875 -0.34375 C 1.5625 -0.40625 1.609375 -0.492188 1.609375 -0.609375 C 1.609375 -0.679688 1.585938 -0.738281 1.546875 -0.78125 C 1.515625 -0.832031 1.457031 -0.875 1.375 -0.90625 C 1.300781 -0.9375 1.210938 -0.96875 1.109375 -1 L 0.828125 -1.0625 C 0.710938 -1.09375 0.609375 -1.132812 0.515625 -1.1875 C 0.421875 -1.238281 0.34375 -1.304688 0.28125 -1.390625 C 0.21875 -1.484375 0.1875 -1.59375 0.1875 -1.71875 C 0.1875 -1.851562 0.226562 -1.96875 0.3125 -2.0625 C 0.394531 -2.164062 0.503906 -2.242188 0.640625 -2.296875 C 0.773438 -2.359375 0.914062 -2.390625 1.0625 -2.390625 C 1.195312 -2.390625 1.320312 -2.367188 1.4375 -2.328125 C 1.550781 -2.285156 1.648438 -2.226562 1.734375 -2.15625 C 1.828125 -2.082031 1.894531 -1.992188 1.9375 -1.890625 L 1.609375 -1.734375 C 1.546875 -1.847656 1.46875 -1.925781 1.375 -1.96875 C 1.28125 -2.007812 1.175781 -2.03125 1.0625 -2.03125 C 0.925781 -2.03125 0.8125 -2.003906 0.71875 -1.953125 C 0.625 -1.898438 0.578125 -1.820312 0.578125 -1.71875 C 0.578125 -1.625 0.613281 -1.550781 0.6875 -1.5 C 0.769531 -1.457031 0.867188 -1.421875 0.984375 -1.390625 L 1.3125 -1.3125 C 1.539062 -1.25 1.710938 -1.160156 1.828125 -1.046875 C 1.941406 -0.929688 2 -0.796875 2 -0.640625 C 2 -0.492188 1.957031 -0.363281 1.875 -0.25 C 1.800781 -0.144531 1.691406 -0.0625 1.546875 0 C 1.410156 0.0507812 1.257812 0.078125 1.09375 0.078125 Z M 1.09375 0.078125 "/></g></g></g><g fill="#030f4f" fill-opacity="1"><g transform="translate(41.763177, 4.57081)"><g><path d="M 0.109375 -1.96875 L 0.109375 -2.3125 L 0.546875 -2.3125 L 0.546875 -1.96875 Z M 1.15625 0.03125 C 0.96875 0.03125 0.8125 -0.0234375 0.6875 -0.140625 C 0.570312 -0.253906 0.515625 -0.410156 0.515625 -0.609375 L 0.515625 -2.96875 L 0.90625 -2.96875 L 0.90625 -0.703125 C 0.90625 -0.566406 0.929688 -0.46875 0.984375 -0.40625 C 1.035156 -0.351562 1.113281 -0.328125 1.21875 -0.328125 C 1.269531 -0.328125 1.316406 -0.332031 1.359375 -0.34375 C 1.398438 -0.351562 1.441406 -0.375 1.484375 -0.40625 L 1.484375 -0.015625 C 1.429688 -0.00390625 1.378906 0.00390625 1.328125 0.015625 C 1.273438 0.0234375 1.21875 0.03125 1.15625 0.03125 Z M 0.875 -1.96875 L 0.875 -2.3125 L 1.46875 -2.3125 L 1.46875 -1.96875 Z M 0.875 -1.96875 "/></g></g></g><g fill="#030f4f" fill-opacity="1"><g transform="translate(43.300639, 4.57081)"><g><path d="M 1.3125 0.078125 C 1.082031 0.078125 0.878906 0.0234375 0.703125 -0.078125 C 0.535156 -0.191406 0.398438 -0.335938 0.296875 -0.515625 C 0.203125 -0.703125 0.15625 -0.914062 0.15625 -1.15625 C 0.15625 -1.375 0.203125 -1.578125 0.296875 -1.765625 C 0.390625 -1.953125 0.519531 -2.101562 0.6875 -2.21875 C 0.851562 -2.332031 1.050781 -2.390625 1.28125 -2.390625 C 1.507812 -2.390625 1.703125 -2.335938 1.859375 -2.234375 C 2.023438 -2.128906 2.15625 -1.988281 2.25 -1.8125 C 2.34375 -1.632812 2.390625 -1.429688 2.390625 -1.203125 C 2.390625 -1.179688 2.382812 -1.160156 2.375 -1.140625 C 2.375 -1.117188 2.375 -1.097656 2.375 -1.078125 L 0.390625 -1.078125 L 0.390625 -1.40625 L 1.96875 -1.40625 C 1.96875 -1.46875 1.953125 -1.535156 1.921875 -1.609375 C 1.898438 -1.679688 1.859375 -1.75 1.796875 -1.8125 C 1.742188 -1.875 1.675781 -1.925781 1.59375 -1.96875 C 1.507812 -2.007812 1.40625 -2.03125 1.28125 -2.03125 C 1.125 -2.03125 0.988281 -1.988281 0.875 -1.90625 C 0.769531 -1.832031 0.6875 -1.726562 0.625 -1.59375 C 0.570312 -1.46875 0.546875 -1.320312 0.546875 -1.15625 C 0.546875 -0.957031 0.582031 -0.789062 0.65625 -0.65625 C 0.726562 -0.53125 0.820312 -0.4375 0.9375 -0.375 C 1.0625 -0.3125 1.191406 -0.28125 1.328125 -0.28125 C 1.492188 -0.28125 1.628906 -0.316406 1.734375 -0.390625 C 1.847656 -0.472656 1.9375 -0.570312 2 -0.6875 L 2.328125 -0.53125 C 2.242188 -0.351562 2.113281 -0.207031 1.9375 -0.09375 C 1.769531 0.0195312 1.5625 0.078125 1.3125 0.078125 Z M 1.3125 0.078125 "/></g></g></g><g fill="#030f4f" fill-opacity="1"><g transform="translate(45.844934, 4.57081)"><g><path d="M 1.265625 0.078125 C 1.054688 0.078125 0.867188 0.0234375 0.703125 -0.078125 C 0.535156 -0.191406 0.398438 -0.335938 0.296875 -0.515625 C 0.203125 -0.703125 0.15625 -0.914062 0.15625 -1.15625 C 0.15625 -1.394531 0.203125 -1.601562 0.296875 -1.78125 C 0.398438 -1.96875 0.535156 -2.113281 0.703125 -2.21875 C 0.867188 -2.332031 1.054688 -2.390625 1.265625 -2.390625 C 1.390625 -2.390625 1.503906 -2.367188 1.609375 -2.328125 C 1.710938 -2.285156 1.800781 -2.234375 1.875 -2.171875 C 1.945312 -2.109375 2.003906 -2.039062 2.046875 -1.96875 L 2.078125 -1.96875 L 2.046875 -2.28125 L 2.046875 -3.25 L 2.4375 -3.25 L 2.4375 0 L 2.078125 0 L 2.078125 -0.34375 L 2.046875 -0.34375 C 2.003906 -0.269531 1.945312 -0.203125 1.875 -0.140625 C 1.800781 -0.078125 1.710938 -0.0234375 1.609375 0.015625 C 1.503906 0.0546875 1.390625 0.078125 1.265625 0.078125 Z M 1.3125 -0.28125 C 1.4375 -0.28125 1.554688 -0.3125 1.671875 -0.375 C 1.796875 -0.445312 1.894531 -0.550781 1.96875 -0.6875 C 2.039062 -0.820312 2.078125 -0.976562 2.078125 -1.15625 C 2.078125 -1.332031 2.039062 -1.488281 1.96875 -1.625 C 1.894531 -1.757812 1.796875 -1.859375 1.671875 -1.921875 C 1.554688 -1.992188 1.4375 -2.03125 1.3125 -2.03125 C 1.175781 -2.03125 1.046875 -1.992188 0.921875 -1.921875 C 0.804688 -1.859375 0.710938 -1.757812 0.640625 -1.625 C 0.578125 -1.488281 0.546875 -1.332031 0.546875 -1.15625 C 0.546875 -0.976562 0.578125 -0.820312 0.640625 -0.6875 C 0.710938 -0.550781 0.804688 -0.445312 0.921875 -0.375 C 1.046875 -0.3125 1.175781 -0.28125 1.3125 -0.28125 Z M 1.3125 -0.28125 "/></g></g></g><g clip-path="url(#c2383218fe)"><g fill="#030f4f" fill-opacity="1"><g transform="translate(48.56611, 4.57081)"><g><path d="M 0.53125 0.03125 C 0.445312 0.03125 0.378906 0.00390625 0.328125 -0.046875 C 0.273438 -0.109375 0.25 -0.179688 0.25 -0.265625 C 0.25 -0.335938 0.273438 -0.398438 0.328125 -0.453125 C 0.378906 -0.515625 0.445312 -0.546875 0.53125 -0.546875 C 0.613281 -0.546875 0.679688 -0.515625 0.734375 -0.453125 C 0.796875 -0.398438 0.828125 -0.335938 0.828125 -0.265625 C 0.828125 -0.179688 0.796875 -0.109375 0.734375 -0.046875 C 0.679688 0.00390625 0.613281 0.03125 0.53125 0.03125 Z M 0.53125 0.03125 "/></g></g></g></g></g></g></g></g></g></g></svg>