<?xml version="1.0" encoding="UTF-8"?>
<svg version="1.1" xmlns="http://www.w3.org/2000/svg" width="512" height="217">
<path d="M0 0 C5.61 0 11.22 0 17 0 C20.27185862 3.39610642 21.30664937 4.89490758 23 9 C23.93856714 10.70600703 24.89207311 12.40386973 25.859375 14.09375 C26.82640689 15.89396282 27.78984848 17.69610811 28.75 19.5 C33.93989364 29.1414144 39.37066353 38.60946969 45 48 C44.83701416 46.87658203 44.67402832 45.75316406 44.50610352 44.59570312 C43.91846388 39.87385573 43.87291922 35.22145746 43.90234375 30.46875 C43.9037587 29.59222778 43.90517365 28.71570557 43.90663147 27.81262207 C43.91218232 25.04171179 43.92472539 22.27088543 43.9375 19.5 C43.94252136 17.60937618 43.94708315 15.71875107 43.95117188 13.828125 C43.96128028 9.21869247 43.98086487 4.60943903 44 0 C50.6 0 57.2 0 64 0 C64 29.7 64 59.4 64 90 C58.39 90 52.78 90 47 90 C43.72814138 86.60389358 42.69335063 85.10509242 41 81 C40.06143286 79.29399297 39.10792689 77.59613027 38.140625 75.90625 C37.17359311 74.10603718 36.21015152 72.30389189 35.25 70.5 C30.06010636 60.8585856 24.62933647 51.39053031 19 42 C19.24447876 43.68512695 19.24447876 43.68512695 19.49389648 45.40429688 C20.08153612 50.12614427 20.12708078 54.77854254 20.09765625 59.53125 C20.0962413 60.40777222 20.09482635 61.28429443 20.09336853 62.18737793 C20.08781768 64.95828821 20.07527461 67.72911457 20.0625 70.5 C20.05747864 72.39062382 20.05291685 74.28124893 20.04882812 76.171875 C20.03871972 80.78130753 20.01913513 85.39056097 20 90 C13.4 90 6.8 90 0 90 C0 60.3 0 30.6 0 0 Z " fill="#253C94" transform="translate(331,127)"/>
<path d="M0 0 C5.94 0 11.88 0 18 0 C18.87140625 1.56105469 19.7428125 3.12210938 20.640625 4.73046875 C27.15768891 16.39311566 33.70334952 28.03693276 40.35449219 39.6237793 C40.82145508 40.43758057 41.28841797 41.25138184 41.76953125 42.08984375 C42.17792236 42.80003662 42.58631348 43.51022949 43.00708008 44.24194336 C43.70437583 45.47657004 44.3658826 46.7317652 45 48 C44.83628906 46.75476563 44.67257813 45.50953125 44.50390625 44.2265625 C43.64509016 35.63840163 43.89517303 26.99532609 43.9375 18.375 C43.9425245 16.589845 43.94708572 14.80468864 43.95117188 13.01953125 C43.96124594 8.67962561 43.98083454 4.33991272 44 0 C50.6 0 57.2 0 64 0 C64 29.7 64 59.4 64 90 C47 90 47 90 43.64453125 87.16015625 C42.66040039 85.22363281 42.66040039 85.22363281 41.8125 83.0625 C41.05959261 81.5158049 40.3042207 79.97030796 39.546875 78.42578125 C39.15435547 77.56936035 38.76183594 76.71293945 38.35742188 75.83056641 C35.71360709 70.31754687 32.5856193 65.06121931 29.5625 59.75 C27.86036933 56.69960207 26.16335505 53.64640816 24.46704102 50.59277344 C22.09843821 46.03244712 22.09843821 46.03244712 19 42 C19.24447876 43.18263428 19.24447876 43.18263428 19.49389648 44.38916016 C20.12330852 48.87975543 20.12398045 53.24572696 20.09765625 57.7734375 C20.0962413 58.6971817 20.09482635 59.6209259 20.09336853 60.57266235 C20.08779609 63.50680862 20.07524869 66.44087701 20.0625 69.375 C20.05748144 71.37109264 20.05291915 73.36718649 20.04882812 75.36328125 C20.03868897 80.24224124 20.01910822 85.12103401 20 90 C13.4 90 6.8 90 0 90 C0 60.3 0 30.6 0 0 Z " fill="#253C95" transform="translate(119,127)"/>
<path d="M0 0 C42.32464455 0 42.32464455 0 53.04296875 8.6484375 C61.55359045 17.24979077 62.55521462 29.19685724 62.49804688 40.69140625 C62.48245728 41.78606201 62.48245728 41.78606201 62.46655273 42.90283203 C62.43743482 45.1299851 62.44602663 47.35476618 62.45898438 49.58203125 C62.44011639 63.17499957 60.58047126 73.41952874 50.75 83.25 C35.15884998 93.17164092 18.56127436 90 0 90 C0 60.3 0 30.6 0 0 Z M21 18 C21 35.82 21 53.64 21 72 C31.11713987 72.73464362 31.11713987 72.73464362 38 68 C41.52182225 62.58398305 42.66118501 57.63286714 42.8125 51.25 C42.84110107 50.4657666 42.86970215 49.6815332 42.89916992 48.87353516 C43.50100842 34.69601423 43.50100842 34.69601423 38 22 C32.39398058 16.53071276 29.84029916 18 21 18 Z " fill="#253D93" transform="translate(410,127)"/>
<path d="M0 0 C14.19 0 28.38 0 43 0 C48.24088442 21.59190903 48.24088442 21.59190903 50.46484375 30.77929688 C51.98386543 37.05443591 53.50364083 43.3293858 55.02783203 49.60327148 C56.25626838 54.65997184 57.48138444 59.71746592 58.70417786 64.77553368 C59.17187208 66.70757021 59.64077302 68.63931503 60.11088562 70.57076454 C60.76785181 73.27078512 61.4205652 75.97180007 62.07226562 78.6730957 C62.26863113 79.47582413 62.46499664 80.27855255 62.66731262 81.10560608 C63.39584733 84.14082481 64 86.86630354 64 90 C57.07 90 50.14 90 43 90 C41.09512425 82.79460041 39.83253131 76.49278179 39 69 C31.74 69 24.48 69 17 69 C16.67 72.3 16.34 75.6 16 79 C15.70272545 80.86028841 15.3791399 82.71715503 15 84.5625 C14.7525 85.80193359 14.7525 85.80193359 14.5 87.06640625 C14 89 14 89 13 90 C11.43827255 90.08685603 9.87270656 90.10702219 8.30859375 90.09765625 C7.36435547 90.09443359 6.42011719 90.09121094 5.44726562 90.08789062 C4.45404297 90.07951172 3.46082031 90.07113281 2.4375 90.0625 C1.44041016 90.05798828 0.44332031 90.05347656 -0.58398438 90.04882812 C-3.05604849 90.03700007 -5.52799518 90.02051849 -8 90 C-4.85979813 74.32664173 -1.09206778 58.82660602 2.75 43.3125 C3.35836676 40.84577558 3.96644161 38.37897914 4.57421875 35.91210938 C6.04612247 29.94057373 7.5215981 23.96992999 9 18 C6.03 18 3.06 18 0 18 C0 12.06 0 6.12 0 0 Z M27 18 C26.90203125 18.77859375 26.8040625 19.5571875 26.703125 20.359375 C25.27984781 31.00941467 23.17961119 41.48284698 21 52 C25.62 52 30.24 52 35 52 C34.65066406 50.2159375 34.30132812 48.431875 33.94140625 46.59375 C33.48163143 44.22919377 33.02200377 41.86460892 32.5625 39.5 C32.33240234 38.32695312 32.10230469 37.15390625 31.86523438 35.9453125 C30.70772237 29.97322159 29.65133134 24.04914625 29 18 C28.34 18 27.68 18 27 18 Z " fill="#253C94" transform="translate(258,127)"/>
<path d="M0 0 C18.15 0 36.3 0 55 0 C55 6.27 55 12.54 55 19 C43.78 19 32.56 19 21 19 C21 24.61 21 30.22 21 36 C31.56 36 42.12 36 53 36 C53 41.94 53 47.88 53 54 C42.44 54 31.88 54 21 54 C21 65.88 21 77.76 21 90 C14.07 90 7.14 90 0 90 C0 60.3 0 30.6 0 0 Z " fill="#253C94" transform="translate(0,127)"/>
<path d="M0 0 C10 0 10 0 11.98803711 1.62060547 C12.3516333 2.40322754 12.71522949 3.18584961 13.08984375 3.9921875 C13.54987793 4.90967773 14.00991211 5.82716797 14.48388672 6.77246094 C14.9842041 7.83754883 15.48452148 8.90263672 16 10 C16.9784949 11.86334038 17.98103659 13.71266578 18.98339844 15.56326294 C20.47996836 18.33673324 21.94155144 21.12813138 23.40533447 23.91900635 C25.3773514 27.6784139 27.35870851 31.43289178 29.33984375 35.1875 C29.73397461 35.93484406 30.12810547 36.68218811 30.53417969 37.45217896 C35.93521073 47.68204347 41.45916761 57.84528459 47 68 C46.83701416 67.13431396 46.67402832 66.26862793 46.50610352 65.37670898 C45.64196179 59.28122797 45.87792509 53.11446114 45.90234375 46.97265625 C45.9042116 45.61502637 45.90563377 44.25739581 45.90663147 42.89976501 C45.91042778 39.34717916 45.92023304 35.79463496 45.93133545 32.24206543 C45.94161199 28.60864831 45.9461424 24.97522438 45.95117188 21.34179688 C45.96185823 14.22784603 45.97943128 7.11393014 46 0 C49.63 0 53.26 0 57 0 C57 29.37 57 58.74 57 89 C53.37 89 49.74 89 46 89 C36.96974529 72.34953035 27.9744794 55.68059413 19 39 C16.69 34.71 14.38 30.42 12 26 C12 46.79 12 67.58 12 89 C8.04 89 4.08 89 0 89 C0 59.63 0 30.26 0 0 Z M10 23 C11 25 11 25 11 25 Z " fill="#253D92" transform="translate(256,1)"/>
<path d="M0 0 C14.52 0 29.04 0 44 0 C44 5.94 44 11.88 44 18 C40.37 18 36.74 18 33 18 C33 35.82 33 53.64 33 72 C36.63 72 40.26 72 44 72 C44 77.94 44 83.88 44 90 C29.48 90 14.96 90 0 90 C0 84.06 0 78.12 0 72 C3.96 72 7.92 72 12 72 C12 54.18 12 36.36 12 18 C8.04 18 4.08 18 0 18 C0 12.06 0 6.12 0 0 Z " fill="#253C95" transform="translate(63,127)"/>
<path d="M0 0 C39.92592593 0 39.92592593 0 47.4375 7.375 C52.38149978 13.31906811 52.43351156 20.17706918 52.31640625 27.578125 C51.75444165 33.65566805 49.85203491 37.36331799 45.3125 41.375 C44.549375 41.91125 43.78625 42.4475 43 43 C42.505 43.99 42.505 43.99 42 45 C42.7425 45.226875 43.485 45.45375 44.25 45.6875 C48.72705105 47.82427436 50.80527071 51.19029021 52.75 55.625 C55.19318332 62.7397646 54.9478724 70.41206231 51.90234375 77.2890625 C48.31404332 84.09285292 43.04978604 86.65007132 36 89 C24.12 89 12.24 89 0 89 C0 59.63 0 30.26 0 0 Z M10 10 C10 19.9 10 29.8 10 40 C23.96488084 41.06150094 23.96488084 41.06150094 37 37 C41.15630187 32.13408561 41.58005039 27.90147442 41.3203125 21.58984375 C40.89313101 18.13592511 40.04550503 15.82138625 38 13 C34.38035719 10.38626804 31.92077434 9.63261272 27.48046875 9.70703125 C26.09831177 9.71827026 26.09831177 9.71827026 24.68823242 9.72973633 C23.53299072 9.75704834 22.37774902 9.78436035 21.1875 9.8125 C17.495625 9.874375 13.80375 9.93625 10 10 Z M10 49 C10 59.23 10 69.46 10 80 C14.2075 80.061875 14.2075 80.061875 18.5 80.125 C19.8003418 80.15231201 19.8003418 80.15231201 21.12695312 80.18017578 C27.53843229 80.22522471 33.37478237 79.71209845 38.875 76.125 C42.28950224 72.71049776 43.29004411 69.93056105 43.3125 65.125 C43.20182666 60.69806638 42.63174927 57.68444897 40 54 C35.08077492 50.12741856 31.38449852 48.86291988 25.234375 48.90234375 C24.43225586 48.90484131 23.63013672 48.90733887 22.80371094 48.90991211 C21.79598633 48.91901611 20.78826172 48.92812012 19.75 48.9375 C16.5325 48.958125 13.315 48.97875 10 49 Z " fill="#253D93" transform="translate(0,1)"/>
<path d="M0 0 C6.93 0 13.86 0 21 0 C21 23.43 21 46.86 21 71 C29.25 71 37.5 71 46 71 C46 77.27 46 83.54 46 90 C30.82 90 15.64 90 0 90 C0 60.3 0 30.6 0 0 Z " fill="#253D94" transform="translate(198,127)"/>
<path d="M0 0 C3.96 0 7.92 0 12 0 C12.00586624 0.83858551 12.01173248 1.67717102 12.01777649 2.54116821 C12.07575926 10.45677129 12.14786793 18.37209388 12.23571491 26.28742409 C12.28037978 30.35647208 12.31964426 34.42542086 12.34643555 38.49462891 C12.37250758 42.42407931 12.41293704 46.35314709 12.46318626 50.28236008 C12.47982873 51.77895715 12.49135932 53.27562037 12.49761391 54.77229691 C12.50728401 56.87415616 12.53537527 58.97504237 12.56762695 61.07666016 C12.57873001 62.27134918 12.58983307 63.46603821 12.60127258 64.69692993 C13.20114222 69.66626827 14.83696149 72.92418938 18.5 76.3125 C23.15019218 79.45137972 27.56548961 79.51181177 33 79 C37.71878688 77.30835942 40.20582817 75.13951382 43 71 C44.12740711 67.61777868 44.15917691 64.98361297 44.20532227 61.41723633 C44.21522186 60.75355545 44.22512146 60.08987457 44.23532104 59.40608215 C44.2668809 57.21476801 44.29167155 55.02343219 44.31640625 52.83203125 C44.33698055 51.31173645 44.35797715 49.79144731 44.37937927 48.27116394 C44.43455084 44.27141913 44.48398175 40.27162311 44.53222656 36.27178955 C44.5824775 32.18961026 44.63814481 28.10750526 44.69335938 24.02539062 C44.80088082 16.0169899 44.90233911 8.00852701 45 0 C48.96 0 52.92 0 57 0 C57.06803796 8.56301298 57.12296623 17.12581239 57.15543652 25.68902397 C57.17102819 29.666158 57.19214604 33.64309596 57.22631836 37.62011719 C57.25914583 41.4651085 57.27690176 45.30991236 57.28463173 49.15503311 C57.29013361 50.61490958 57.30087635 52.07477692 57.31719017 53.5345726 C57.4366747 64.67933417 57.04524288 75.47749695 49 84 C41.81121917 89.65925299 33.42834305 91.60355531 24.37890625 90.75390625 C16.37504969 89.37729165 10.31901 86.32530919 5 80 C1.06875601 73.48763623 -0.12786827 67.89805034 -0.11352539 60.28198242 C-0.11367142 59.62776306 -0.11381744 58.9735437 -0.1139679 58.29949951 C-0.11327494 56.15145474 -0.10551164 54.00349825 -0.09765625 51.85546875 C-0.09578988 50.36045886 -0.09436701 48.86544835 -0.09336853 47.37043762 C-0.08956064 43.44628189 -0.07974518 39.5221635 -0.06866455 35.59802246 C-0.05841321 31.58944199 -0.05386294 27.58085545 -0.04882812 23.57226562 C-0.0381213 15.71482666 -0.02106572 7.85741798 0 0 Z " fill="#253D92" transform="translate(67,1)"/>
<path d="M0 0 C17.16 0 34.32 0 52 0 C52 3.63 52 7.26 52 11 C38.47 11 24.94 11 11 11 C11 20.24 11 29.48 11 39 C23.54 39 36.08 39 49 39 C49 42.63 49 46.26 49 50 C36.46 50 23.92 50 11 50 C11 59.24 11 68.48 11 78 C13.87589844 77.98839844 16.75179688 77.97679688 19.71484375 77.96484375 C22.48819875 77.95705375 25.26155254 77.95097667 28.03491211 77.94506836 C29.96818585 77.94002744 31.90145576 77.93319481 33.8347168 77.92456055 C36.60726872 77.91248435 39.37977041 77.90676943 42.15234375 77.90234375 C43.45702858 77.89460182 43.45702858 77.89460182 44.78807068 77.88670349 C46.85905814 77.88650815 48.92994324 77.93791832 51 78 C53.60341656 80.60341656 52 85.31821299 52 89 C34.84 89 17.68 89 0 89 C0 59.63 0 30.26 0 0 Z " fill="#253D94" transform="translate(332,1)"/>
<path d="M0 0 C0.82943115 0.00394775 1.6588623 0.00789551 2.51342773 0.01196289 C9.13150427 0.16629212 14.73764036 1.4445403 20.6875 4.4375 C21.3475 4.7675 22.0075 5.0975 22.6875 5.4375 C22.24929109 9.99487263 21.83708831 13.01403445 18.6875 16.4375 C18.16800781 16.16035156 17.64851563 15.88320312 17.11328125 15.59765625 C16.41589844 15.23542969 15.71851563 14.87320312 15 14.5 C14.31550781 14.14035156 13.63101563 13.78070313 12.92578125 13.41015625 C6.36045332 10.55716034 -2.52217166 10.05302243 -9.25 12.625 C-13.12308474 14.91723382 -15.5542403 16.90648142 -16.87890625 21.328125 C-17.76081038 26.19252251 -17.14234101 29.24152885 -14.3125 33.4375 C-10.08145949 37.8004171 -3.6475326 37.83189403 2.0703125 38.72265625 C9.33868791 39.99953301 14.81296173 42.48527151 20 47.8125 C25.17197561 55.8577954 25.73713228 62.880848 24.6875 72.4375 C22.17917641 80.95465211 17.01610242 86.02347173 9.4375 90.25 C-2.5706791 94.05259005 -14.20084485 92.44496456 -25.3515625 86.8515625 C-27.64162599 85.20016213 -28.52561622 84.15124021 -29.3125 81.4375 C-28.6328125 79.296875 -28.6328125 79.296875 -27.4375 77.1875 C-27.04820312 76.48109375 -26.65890625 75.7746875 -26.2578125 75.046875 C-25.78988281 74.25023438 -25.78988281 74.25023438 -25.3125 73.4375 C-24.50425781 73.85902344 -23.69601563 74.28054687 -22.86328125 74.71484375 C-21.79464844 75.26269531 -20.72601563 75.81054688 -19.625 76.375 C-18.56925781 76.92027344 -17.51351562 77.46554688 -16.42578125 78.02734375 C-9.64135199 81.10034119 -2.58459074 81.4566758 4.5 79.25 C8.47282203 76.99094433 10.65635816 74.49978368 12.6875 70.4375 C13.24190883 64.50959023 13.23356117 59.45089683 9.6875 54.4375 C4.78802472 50.70721768 -0.53499951 50.44837391 -6.45507812 49.70898438 C-14.64957434 48.54031783 -20.9851348 45.84136813 -26.125 39.20703125 C-30.10951538 33.26957905 -30.14931129 26.35862673 -29.3125 19.4375 C-27.19972557 12.70303151 -23.46721799 7.04931805 -17.3125 3.4375 C-11.36840377 0.77729419 -6.48227086 -0.07946052 0 0 Z " fill="#253C93" transform="translate(166.3125,-0.4375)"/>
<path d="M0 0 C0.99 0.99 1.98 1.98 3 3 C1.68 5.97 0.36 8.94 -1 12 C-3.21354167 10.99088542 -5.42708333 9.98177083 -7.640625 8.97265625 C-14.09738497 6.31084626 -21.73571649 5.69156325 -28.45703125 7.75390625 C-32.28460849 9.56472665 -34.7905251 11.29781438 -37 15 C-37.83356677 20.03894868 -37.79319591 24.56049632 -35.3125 29.0625 C-31.23642272 32.47759177 -27.12833071 33.23359293 -21.92089844 33.98754883 C-12.92525995 35.29638079 -6.3737997 37.05490547 -0.125 44 C4.46259472 50.47660432 5.46789231 57.6019091 4.7890625 65.43359375 C3.48850567 72.51303987 0.35445251 78.49259345 -5.4375 82.875 C-13.98000172 88.32610388 -23.44827066 88.73320547 -33.1875 86.8125 C-46.08900411 83.69687881 -46.08900411 83.69687881 -49.3203125 79.13671875 C-50 77 -50 77 -49.3203125 74.859375 C-48.92585938 74.16328125 -48.53140625 73.4671875 -48.125 72.75 C-47.73570312 72.04359375 -47.34640625 71.3371875 -46.9453125 70.609375 C-46.47738281 69.81273438 -46.47738281 69.81273438 -46 69 C-45.35933594 69.33773437 -44.71867187 69.67546875 -44.05859375 70.0234375 C-35.78506351 74.28966919 -27.43378715 78.00084251 -18.01171875 75.46484375 C-13.54854485 73.71589124 -10.16156901 71.32313801 -8 67 C-7.49881283 61.51158964 -7.35966116 56.58692669 -9.4375 51.4375 C-14.56165845 46.5633005 -20.75133058 45.98698587 -27.5625 45.0625 C-34.74587832 44.03151338 -39.54673499 42.34423101 -44.8125 37.3125 C-48.91148758 31.10546167 -51.04274208 24.45632007 -50 17 C-48.48127721 10.10099569 -45.91082958 4.58156729 -39.81640625 0.55859375 C-28.27150462 -6.09536433 -11.79707343 -6.66791107 0 0 Z " fill="#253C92" transform="translate(445,4)"/>
<path d="M0 0 C-0.4748935 4.11574371 -1.0210244 7.36383344 -3 11 C-3.60328125 10.72285156 -4.2065625 10.44570312 -4.828125 10.16015625 C-5.62734375 9.79792969 -6.4265625 9.43570312 -7.25 9.0625 C-8.03890625 8.70285156 -8.8278125 8.34320313 -9.640625 7.97265625 C-16.09738497 5.31084626 -23.73571649 4.69156325 -30.45703125 6.75390625 C-34.28460849 8.56472665 -36.7905251 10.29781438 -39 14 C-39.83356677 19.03894868 -39.79319591 23.56049632 -37.3125 28.0625 C-33.23642272 31.47759177 -29.12833071 32.23359293 -23.92089844 32.98754883 C-14.92525995 34.29638079 -8.3737997 36.05490547 -2.125 43 C3.2175392 50.54240828 2.83922205 59.09929644 2 68 C0.40173594 75.16537176 -5.27264145 79.80262124 -11 84 C-19.6764473 88.24592102 -29.90012995 87.30252432 -39 85 C-43.75550813 83.32742188 -48.16501866 81.33476639 -52 78 C-51.01 75.03 -50.02 72.06 -49 69 C-45.86105313 69 -44.91309898 69.41562176 -42.25 70.875 C-35.24173831 74.47487212 -27.81705531 76.56569072 -20.01171875 74.46484375 C-16.25630891 72.99323775 -13.53516048 71.12019752 -11 68 C-9.1800486 62.54014579 -8.95173271 56.36170391 -11.4375 51.0625 C-16.12285632 45.46292781 -21.96705918 45.15724772 -28.94335938 44.03710938 C-37.07100635 42.6962349 -43.25939769 41.097812 -48.32421875 34.1953125 C-52.27916049 27.72863583 -52.99022232 21.02663702 -51.5390625 13.66015625 C-49.69782399 7.32412962 -46.62095986 2.29536762 -40.97265625 -1.28515625 C-28.07562043 -7.98585084 -12.64055704 -6.32027852 0 0 Z " fill="#253C92" transform="translate(510,5)"/>
<path d="M0 0 C13.86 0 27.72 0 42 0 C42 3.3 42 6.6 42 10 C37.05 10 32.1 10 27 10 C27 32.77 27 55.54 27 79 C31.95 79 36.9 79 42 79 C42 82.3 42 85.6 42 89 C28.14 89 14.28 89 0 89 C0 85.7 0 82.4 0 79 C4.95 79 9.9 79 15 79 C15 56.23 15 33.46 15 10 C10.05 10 5.1 10 0 10 C0 6.7 0 3.4 0 0 Z " fill="#263C92" transform="translate(201,1)"/>
<path d="M0 0 C0.33 0 0.66 0 1 0 C1 29.04 1 58.08 1 88 C16.18 88 31.36 88 47 88 C47 85.03 47 82.06 47 79 C48.65 79 50.3 79 52 79 C52 82.3 52 85.6 52 89 C34.84 89 17.68 89 0 89 C0 59.63 0 30.26 0 0 Z " fill="#2A3E7E" transform="translate(332,1)"/>
<path d="M0 0 C1.32 0 2.64 0 4 0 C4 17.49 4 34.98 4 53 C2.35 53 0.7 53 -1 53 C-1 51.02 -1 49.04 -1 47 C0.32 47 1.64 47 3 47 C3 36.44 3 25.88 3 15 C1.68 15 0.36 15 -1 15 C-1.02685412 12.68756208 -1.04632841 10.3750373 -1.0625 8.0625 C-1.07410156 6.77472656 -1.08570312 5.48695313 -1.09765625 4.16015625 C-1 1 -1 1 0 0 Z " fill="#2B3E7E" transform="translate(92,145)"/>
<path d="M0 0 C1.65 0 3.3 0 5 0 C5 3.63 5 7.26 5 11 C-8.53 11 -22.06 11 -36 11 C-36 20.24 -36 29.48 -36 39 C-36.33 39 -36.66 39 -37 39 C-37 29.43 -37 19.86 -37 10 C-25.12 10 -13.24 10 -1 10 C-0.67 6.7 -0.34 3.4 0 0 Z " fill="#2F3F83" transform="translate(379,1)"/>
<path d="M0 0 C1.65 0 3.3 0 5 0 C5 3.3 5 6.6 5 10 C-10.18 10 -25.36 10 -41 10 C-41 9.67 -41 9.34 -41 9 C-27.47 9 -13.94 9 0 9 C0 6.03 0 3.06 0 0 Z " fill="#2B3D81" transform="translate(379,80)"/>
<path d="M0 0 C0.33 0 0.66 0 1 0 C1.01030746 0.75755081 1.02061493 1.51510162 1.03123474 2.29560852 C1.12918063 9.43208169 1.23169094 16.56846772 1.33933926 23.70480061 C1.39452201 27.37372668 1.44793454 31.04266079 1.49731445 34.71166992 C1.54502662 38.25193892 1.59737185 41.79211177 1.65294075 45.33226585 C1.68326295 47.34136299 1.70877685 49.35053081 1.73423767 51.35969543 C1.75418289 52.58073471 1.77412811 53.80177399 1.79467773 55.05981445 C1.81022202 56.13681107 1.8257663 57.21380768 1.84178162 58.32344055 C1.88978747 61.1021879 1.88978747 61.1021879 3 64 C2.01 64.99 1.02 65.98 0 67 C0 44.89 0 22.78 0 0 Z " fill="#2A3C7D" transform="translate(112,1)"/>
<path d="M0 0 C1.65 0 3.3 0 5 0 C5.02693575 2.12493141 5.04636628 4.24995912 5.0625 6.375 C5.07410156 7.55835938 5.08570313 8.74171875 5.09765625 9.9609375 C5 13 5 13 4 15 C2.68 15 1.36 15 0 15 C0 10.05 0 5.1 0 0 Z " fill="#21326C" transform="translate(256,1)"/>
<path d="M0 0 C1.32 0 2.64 0 4 0 C4 4.62 4 9.24 4 14 C2.68 14 1.36 14 0 14 C0 9.38 0 4.76 0 0 Z " fill="#273A7A" transform="translate(427,146)"/>
<path d="M0 0 C1.32 0 2.64 0 4 0 C4 2.31 4 4.62 4 7 C3.01 7 2.02 7 1 7 C1 9.64 1 12.28 1 15 C0.34 15 -0.32 15 -1 15 C-1.02685412 12.68756208 -1.04632841 10.3750373 -1.0625 8.0625 C-1.07410156 6.77472656 -1.08570312 5.48695313 -1.09765625 4.16015625 C-1 1 -1 1 0 0 Z " fill="#2C3D7F" transform="translate(92,145)"/>
<path d="M0 0 C0.99 0.33 1.98 0.66 3 1 C2.360625 1.598125 1.72125 2.19625 1.0625 2.8125 C-1.87139517 7.34670163 -1.81430312 11.69835408 -2 17 C-2.33 17 -2.66 17 -3 17 C-3 13.7 -3 10.4 -3 7 C-3.99 7 -4.98 7 -6 7 C-4.61990379 3.66476748 -3.15049348 1.81392049 0 0 Z " fill="#273A82" transform="translate(472,13)"/>
<path d="M0 0 C4.62 0 9.24 0 14 0 C14 0.66 14 1.32 14 2 C9.15758367 3.33583899 5.06562383 4.25328119 0 4 C0 2.68 0 1.36 0 0 Z " fill="#253478" transform="translate(88,80)"/>
<path d="M0 0 C0.99 0 1.98 0 3 0 C3 3.63 3 7.26 3 11 C2.01 11 1.02 11 0 11 C0 7.37 0 3.74 0 0 Z " fill="#1D2D60" transform="translate(381,1)"/>
<path d="M0 0 C-0.33 1.32 -0.66 2.64 -1 4 C-3.97 4 -6.94 4 -10 4 C-10 3.01 -10 2.02 -10 1 C-3.375 0 -3.375 0 0 0 Z " fill="#253671" transform="translate(170,80)"/>
<path d="M0 0 C0.99 0 1.98 0 3 0 C3 3.3 3 6.6 3 10 C2.01 10 1.02 10 0 10 C0 6.7 0 3.4 0 0 Z " fill="#1E2B61" transform="translate(381,80)"/>
<path d="M0 0 C0.66 0 1.32 0 2 0 C2 0.66 2 1.32 2 2 C2.66 2 3.32 2 4 2 C5.03115279 5.26913624 4.9638984 7.86041348 4.5625 11.25 C4.46066406 12.14203125 4.35882813 13.0340625 4.25390625 13.953125 C4.17011719 14.62859375 4.08632812 15.3040625 4 16 C3.67 16 3.34 16 3 16 C2.95101562 15.34773438 2.90203125 14.69546875 2.8515625 14.0234375 C2.42757771 9.06720147 1.84334427 4.66980549 0 0 Z " fill="#2C3C80" transform="translate(177,54)"/>
<path d="M0 0 C1.32 0 2.64 0 4 0 C4 1.98 4 3.96 4 6 C2.68 6 1.36 6 0 6 C0 4.02 0 2.04 0 0 Z " fill="#2A3E7E" transform="translate(427,192)"/>
<path d="M0 0 C0.99 0 1.98 0 3 0 C3 2.64 3 5.28 3 8 C2.01 8 1.02 8 0 8 C0 5.36 0 2.72 0 0 Z " fill="#1D2C63" transform="translate(93,152)"/>
<path d="M0 0 C0.66 0 1.32 0 2 0 C0.55746343 3.36591866 -1.33264727 5.51047079 -4 8 C-4 4.06830895 -2.60580385 2.83572772 0 0 Z " fill="#2B3A86" transform="translate(118,78)"/>
<path d="M0 0 C2.32472205 2.85306797 3.7508258 5.54074837 5 9 C0.23634558 6.5571003 0.23634558 6.5571003 -0.875 3.9375 C-1 2 -1 2 0 0 Z " fill="#2D3882" transform="translate(147,146)"/>
<path d="M0 0 C4.95 0.99 4.95 0.99 10 2 C10 2.66 10 3.32 10 4 C8.68 4.33 7.36 4.66 6 5 C5.67 4.34 5.34 3.68 5 3 C3.35636866 2.27840576 1.68949614 1.60648579 0 1 C0 0.67 0 0.34 0 0 Z " fill="#283E7C" transform="translate(406,78)"/>
</svg>
