<?xml version="1.0" encoding="UTF-8"?> <!-- Generator: Adobe Illustrator 23.1.0, SVG Export Plug-In . SVG Version: 6.00 Build 0) --> <svg xmlns="http://www.w3.org/2000/svg" xmlns:xlink="http://www.w3.org/1999/xlink" version="1.1" id="Layer_1" x="0px" y="0px" viewBox="0 0 136.1 35.3" style="enable-background:new 0 0 136.1 35.3;" xml:space="preserve"> <style type="text/css"> .st0{fill:#FFFFFF;} </style> <rect y="24" class="st0" width="136.1" height="11.3"></rect> <path d="M7.1,28.6H6.6l-0.1-0.7c-0.1-0.1-0.3-0.2-0.4-0.2c-0.2-0.1-0.4-0.1-0.6-0.1c-0.3,0-0.6,0.1-0.8,0.2 c-0.2,0.1-0.3,0.4-0.3,0.6c0,0.2,0.1,0.4,0.3,0.5c0.3,0.2,0.6,0.3,0.9,0.4c0.4,0.1,0.8,0.3,1.2,0.6c0.3,0.2,0.4,0.6,0.4,0.9 c0,0.4-0.2,0.7-0.5,0.9c-0.4,0.3-0.8,0.4-1.3,0.4c-0.3,0-0.7-0.1-1-0.2c-0.3-0.1-0.5-0.3-0.7-0.5v-0.9h0.5l0.1,0.7 c0.1,0.1,0.3,0.2,0.5,0.3c0.2,0.1,0.4,0.1,0.6,0.1c0.3,0,0.5-0.1,0.8-0.2c0.2-0.1,0.3-0.3,0.3-0.6c0-0.2-0.1-0.4-0.3-0.6 c-0.3-0.2-0.6-0.3-0.9-0.4c-0.4-0.1-0.8-0.3-1.2-0.5c-0.3-0.2-0.4-0.5-0.4-0.9c0-0.4,0.2-0.7,0.5-1c0.4-0.3,0.8-0.4,1.3-0.4 c0.3,0,0.6,0.1,0.9,0.2c0.2,0.1,0.5,0.2,0.7,0.4L7.1,28.6z"></path> <path d="M7.8,30.2c0-0.5,0.1-1,0.4-1.3c0.6-0.6,1.6-0.7,2.2-0.1c0,0,0.1,0.1,0.1,0.1c0.3,0.4,0.5,0.8,0.5,1.3v0.1 c0,0.5-0.1,0.9-0.4,1.3c-0.3,0.3-0.7,0.5-1.2,0.5c-0.5,0-0.9-0.2-1.2-0.5C7.9,31.2,7.8,30.8,7.8,30.2L7.8,30.2z M8.5,30.3 c0,0.3,0.1,0.7,0.2,1c0.3,0.4,0.8,0.5,1.2,0.2c0.1-0.1,0.2-0.1,0.2-0.2c0.2-0.3,0.3-0.7,0.2-1v-0.1c0-0.3-0.1-0.7-0.2-0.9 C10,29,9.7,28.9,9.4,28.9c-0.3,0-0.6,0.1-0.7,0.4C8.6,29.6,8.5,29.9,8.5,30.3L8.5,30.3z"></path> <path d="M13.2,31.6c0.2,0,0.4-0.1,0.6-0.2c0.2-0.1,0.3-0.3,0.3-0.5h0.6l0,0c0,0.3-0.1,0.6-0.4,0.8c-0.3,0.2-0.6,0.4-1,0.4 c-0.5,0-0.9-0.2-1.2-0.5c-0.3-0.4-0.4-0.8-0.4-1.3v-0.1c0-0.5,0.1-0.9,0.4-1.3c0.3-0.3,0.7-0.5,1.2-0.5c0.3,0,0.5,0,0.8,0.1 c0.2,0.1,0.4,0.2,0.6,0.4v0.8H14l-0.1-0.6c-0.1-0.1-0.2-0.1-0.3-0.2c-0.1,0-0.3-0.1-0.4-0.1c-0.3,0-0.6,0.1-0.7,0.4 c-0.2,0.3-0.2,0.6-0.2,0.9v0.1c0,0.3,0.1,0.6,0.2,0.9C12.6,31.5,12.9,31.6,13.2,31.6z"></path> <path d="M15.3,31.6l0.5-0.1V29l-0.5-0.1v-0.4h1.2v3.1l0.5,0.1V32h-1.7V31.6z M16.5,27.5h-0.7v-0.7h0.7V27.5z"></path> <path d="M19.9,32c0-0.1,0-0.2,0-0.3c0-0.1,0-0.2,0-0.2c-0.1,0.2-0.3,0.3-0.5,0.4c-0.5,0.2-1,0.2-1.5-0.1c-0.2-0.2-0.3-0.5-0.3-0.8 c0-0.3,0.1-0.6,0.4-0.8c0.3-0.2,0.7-0.3,1.1-0.3h0.7v-0.4c0-0.2-0.1-0.4-0.2-0.5c-0.2-0.1-0.4-0.2-0.6-0.2c-0.1,0-0.3,0-0.4,0.1 c-0.1,0-0.2,0.1-0.3,0.2l-0.1,0.4h-0.5v-0.7c0.2-0.1,0.4-0.2,0.6-0.3c0.2-0.1,0.5-0.1,0.8-0.1c0.4,0,0.7,0.1,1,0.3 c0.3,0.2,0.4,0.6,0.4,0.9v1.9c0,0,0,0.1,0,0.1h0.3V32L19.9,32z M18.9,31.6c0.2,0,0.4-0.1,0.6-0.2c0.2-0.1,0.3-0.2,0.4-0.4v-0.6h-0.7 c-0.2,0-0.5,0.1-0.6,0.2c-0.1,0.1-0.2,0.3-0.2,0.5c0,0.1,0,0.3,0.1,0.4C18.5,31.5,18.7,31.6,18.9,31.6L18.9,31.6z"></path> <path d="M21.2,27.3v-0.4h1.2v4.7l0.5,0.1V32h-1.7v-0.4l0.5-0.1v-4.2L21.2,27.3z"></path> <path d="M27.5,32c0-0.1,0-0.2,0-0.3c0-0.1,0-0.2,0-0.2c-0.1,0.2-0.3,0.3-0.5,0.4c-0.2,0.1-0.4,0.2-0.6,0.2c-0.3,0-0.6-0.1-0.9-0.3 c-0.2-0.2-0.3-0.5-0.3-0.8c0-0.3,0.1-0.6,0.4-0.8c0.3-0.2,0.7-0.3,1.1-0.3h0.7v-0.4c0-0.2-0.1-0.4-0.2-0.5c-0.2-0.1-0.4-0.2-0.5-0.2 c-0.1,0-0.3,0-0.4,0.1c-0.1,0-0.2,0.1-0.3,0.2l-0.1,0.4h-0.5v-0.7c0.2-0.1,0.4-0.2,0.6-0.3c0.2-0.1,0.5-0.1,0.8-0.1 c0.4,0,0.7,0.1,1,0.3c0.3,0.2,0.4,0.6,0.4,0.9v1.9c0,0,0,0.1,0,0.1h0.3V32L27.5,32z M26.4,31.6c0.2,0,0.4,0,0.6-0.2 c0.2-0.1,0.3-0.2,0.4-0.4v-0.6h-0.7c-0.2,0-0.5,0.1-0.6,0.2c-0.1,0.1-0.2,0.3-0.2,0.5c0,0.1,0,0.3,0.1,0.4 C26.1,31.5,26.2,31.6,26.4,31.6z"></path> <path d="M28.8,31.6l0.5-0.1V29l-0.5-0.1v-0.4h1.1V29c0.1-0.2,0.3-0.3,0.5-0.4c0.2-0.1,0.4-0.2,0.6-0.2c0.3,0,0.7,0.1,0.9,0.3 c0.2,0.3,0.3,0.6,0.3,1v1.8l0.5,0.1V32H31v-0.4l0.5-0.1v-1.7c0-0.2,0-0.5-0.2-0.7c-0.2-0.1-0.4-0.2-0.6-0.2c-0.4,0-0.7,0.2-0.8,0.5 v2.1l0.5,0.1V32h-1.7V31.6z"></path> <path d="M35.6,31.6c-0.1,0.2-0.3,0.3-0.4,0.4c-0.2,0.1-0.4,0.1-0.6,0.1c-0.4,0-0.8-0.2-1-0.5c-0.3-0.4-0.4-0.8-0.4-1.3v-0.1 c0-0.5,0.1-1,0.4-1.4c0.2-0.3,0.6-0.5,1-0.5c0.4,0,0.8,0.2,1,0.5v-1.5l-0.5-0.1v-0.4h1.2v4.7l0.5,0.1V32h-1.1L35.6,31.6z M33.9,30.4 c0,0.3,0.1,0.6,0.2,0.9c0.2,0.2,0.4,0.3,0.7,0.3c0.2,0,0.3,0,0.5-0.1c0.1-0.1,0.3-0.2,0.3-0.4v-1.7c-0.1-0.1-0.2-0.3-0.3-0.4 c-0.1-0.1-0.3-0.1-0.5-0.1c-0.3,0-0.6,0.1-0.7,0.4C33.9,29.6,33.8,30,33.9,30.4L33.9,30.4z"></path> <path d="M38.9,27.6v-0.4h1.7v0.4l-0.5,0.1v1.7h2.3v-1.7l-0.5-0.1v-0.4h1.7v0.4l-0.5,0.1v3.8l0.5,0.1V32h-1.7v-0.4l0.5-0.1v-1.6h-2.3 v1.6l0.5,0.1V32h-1.7v-0.4l0.5-0.1v-3.8L38.9,27.6z"></path> <path d="M45.8,32.1c-0.5,0-0.9-0.2-1.2-0.5c-0.3-0.4-0.5-0.8-0.4-1.3v-0.1c0-0.5,0.1-0.9,0.5-1.3c0.3-0.3,0.7-0.5,1.1-0.5 c0.4,0,0.8,0.1,1.1,0.4c0.3,0.3,0.4,0.7,0.4,1.2v0.4h-2.4c0,0.3,0.1,0.6,0.3,0.8c0.2,0.2,0.4,0.4,0.7,0.3c0.2,0,0.4,0,0.6-0.1 c0.2-0.1,0.3-0.1,0.4-0.3l0.3,0.4c-0.1,0.1-0.3,0.2-0.5,0.3C46.4,32.1,46.1,32.1,45.8,32.1z M45.7,28.9c-0.2,0-0.4,0.1-0.6,0.3 c-0.2,0.2-0.3,0.4-0.3,0.7h1.7v-0.1c0-0.2-0.1-0.5-0.2-0.7C46.2,29,46,28.9,45.7,28.9z"></path> <path d="M50.2,32c0-0.1,0-0.2,0-0.3v-0.2c-0.1,0.2-0.3,0.3-0.5,0.4c-0.2,0.1-0.4,0.2-0.6,0.2c-0.3,0-0.6-0.1-0.8-0.3 c-0.2-0.2-0.3-0.5-0.3-0.8c0-0.3,0.1-0.6,0.4-0.8c0.3-0.2,0.7-0.3,1.1-0.3h0.7v-0.4c0-0.2-0.1-0.4-0.2-0.5c-0.2-0.1-0.4-0.2-0.5-0.2 c-0.1,0-0.3,0-0.4,0.1c-0.1,0-0.2,0.1-0.3,0.2l-0.1,0.4h-0.5v-0.7c0.2-0.1,0.4-0.2,0.6-0.3c0.2-0.1,0.5-0.1,0.8-0.1 c0.4,0,0.7,0.1,1,0.3c0.3,0.2,0.4,0.6,0.4,0.9v1.7c0,0,0,0.1,0,0.1v0.1h0.3V32L50.2,32z M49.2,31.6c0.2,0,0.4,0,0.6-0.2 c0.2-0.1,0.3-0.2,0.4-0.4v-0.6h-0.7c-0.2,0-0.4,0.1-0.6,0.2c-0.2,0.1-0.2,0.3-0.2,0.5c0,0.1,0,0.3,0.2,0.4 C48.9,31.5,49,31.6,49.2,31.6L49.2,31.6z"></path> <path d="M51.5,27.3v-0.4h1.2v4.7l0.5,0.1V32h-1.7v-0.4l0.6-0.1v-4.2L51.5,27.3z"></path> <path d="M54.9,27.6v0.9h0.7v0.5h-0.7v2.2c0,0.1,0,0.3,0.1,0.4c0.1,0.1,0.2,0.1,0.3,0.1h0.2c0.1,0,0.1,0,0.2,0l0.1,0.5 c-0.1,0.1-0.2,0.1-0.3,0.1c-0.1,0-0.2,0-0.4,0c-0.2,0-0.5-0.1-0.6-0.2c-0.2-0.2-0.3-0.5-0.2-0.8v-2.2h-0.6v-0.5h0.6v-0.9L54.9,27.6z "></path> <path d="M56.1,31.6l0.5-0.1v-4.2l-0.5-0.1v-0.4h1.2v2.1c0.1-0.2,0.3-0.3,0.5-0.4c0.2-0.1,0.4-0.1,0.6-0.1c0.3,0,0.7,0.1,0.9,0.3 c0.2,0.3,0.3,0.7,0.3,1.1v1.7l0.5,0.1V32h-1.7v-0.4l0.5-0.1v-1.8c0-0.2-0.1-0.5-0.2-0.7c-0.1-0.2-0.4-0.2-0.6-0.2 c-0.2,0-0.3,0-0.5,0.1c-0.1,0.1-0.3,0.2-0.4,0.3v2.1l0.5,0.1V32h-1.7V31.6z"></path> <path d="M64.2,27.2c1.1-0.1,2,0.8,2.1,1.9c0,0.1,0,0.1,0,0.2V30c0,1.1-0.8,2-1.9,2.1c-0.1,0-0.1,0-0.2,0h-2v-0.4l0.5-0.1v-3.8 l-0.5-0.1v-0.4H64.2z M63.4,27.7v3.8h0.8c0.4,0,0.8-0.1,1.1-0.4c0.3-0.3,0.4-0.7,0.4-1.1v-0.7c0-0.4-0.1-0.8-0.4-1.1 c-0.3-0.3-0.7-0.5-1.1-0.4L63.4,27.7z"></path> <path d="M69.4,32c0-0.1,0-0.2,0-0.3s0-0.2,0-0.2c-0.1,0.2-0.3,0.3-0.5,0.4c-0.2,0.1-0.4,0.2-0.6,0.2c-0.3,0-0.6-0.1-0.9-0.3 c-0.2-0.2-0.3-0.5-0.3-0.8c0-0.3,0.1-0.6,0.4-0.8c0.3-0.2,0.7-0.3,1.1-0.3h0.7v-0.4c0-0.2-0.1-0.4-0.2-0.5c-0.2-0.1-0.4-0.2-0.6-0.2 c-0.1,0-0.3,0-0.4,0.1c-0.1,0-0.2,0.1-0.3,0.2l-0.1,0.4h-0.6v-0.7c0.2-0.1,0.4-0.2,0.6-0.3c0.2-0.1,0.5-0.1,0.8-0.1 c0.4,0,0.7,0.1,1,0.3c0.3,0.2,0.4,0.6,0.4,0.9v1.9c0,0,0,0.1,0,0.1h0.3V32L69.4,32z M68.4,31.6c0.2,0,0.4,0,0.6-0.2 c0.2-0.1,0.3-0.2,0.4-0.4v-0.6h-0.7c-0.2,0-0.5,0.1-0.6,0.2c-0.2,0.1-0.2,0.3-0.2,0.5c0,0.1,0,0.3,0.1,0.4 C68,31.5,68.2,31.6,68.4,31.6L68.4,31.6z"></path> <path d="M71.9,27.6v0.9h0.7v0.5h-0.7v2.2c0,0.1,0,0.3,0.1,0.4c0.1,0.1,0.2,0.1,0.3,0.1h0.2h0.2l0.1,0.5c-0.1,0.1-0.2,0.1-0.3,0.1 c-0.1,0-0.2,0-0.4,0c-0.2,0-0.5-0.1-0.6-0.2c-0.2-0.2-0.3-0.5-0.2-0.8v-2.2h-0.6v-0.5h0.5v-0.9L71.9,27.6z"></path> <path d="M75.6,32c0-0.1,0-0.2-0.1-0.3c0-0.1,0-0.2,0-0.2c-0.1,0.2-0.3,0.3-0.5,0.4c-0.2,0.1-0.4,0.2-0.6,0.2c-0.3,0-0.6-0.1-0.9-0.3 c-0.2-0.2-0.3-0.5-0.3-0.8c0-0.3,0.1-0.6,0.4-0.8c0.3-0.2,0.7-0.3,1.1-0.3h0.7v-0.4c0-0.2-0.1-0.4-0.2-0.5c-0.2-0.1-0.4-0.2-0.6-0.2 c-0.1,0-0.3,0-0.4,0.1c-0.1,0-0.2,0.1-0.3,0.2L74,29.5h-0.5v-0.7c0.2-0.1,0.4-0.2,0.6-0.3c0.2-0.1,0.5-0.1,0.8-0.1 c0.4,0,0.7,0.1,1,0.3c0.3,0.2,0.4,0.6,0.4,0.9v1.9c0,0,0,0.1,0,0.1h0.3V32L75.6,32z M74.5,31.6c0.2,0,0.4,0,0.6-0.2 c0.2-0.1,0.3-0.2,0.4-0.4v-0.6h-0.7c-0.2,0-0.5,0.1-0.6,0.2C74,30.7,74,30.9,74,31.1c0,0.1,0,0.3,0.1,0.4 C74.2,31.5,74.4,31.6,74.5,31.6z"></path> <path d="M80.9,27.2c0.4,0,0.9,0.1,1.2,0.4c0.6,0.6,0.6,1.5,0,2.1c-0.3,0.3-0.8,0.4-1.2,0.4h-1v1.4l0.6,0.1V32h-1.8v-0.4l0.5-0.1 v-3.8l-0.5-0.1v-0.4H80.9z M79.9,29.6h1c0.3,0,0.5-0.1,0.7-0.3c0.4-0.4,0.4-1,0-1.3c-0.2-0.2-0.5-0.3-0.8-0.3h-1V29.6z"></path> <path d="M84.6,32.1c-0.5,0-0.9-0.2-1.2-0.5c-0.3-0.4-0.5-0.8-0.4-1.3v-0.1c0-0.5,0.1-0.9,0.5-1.3c0.3-0.3,0.7-0.5,1.1-0.5 c0.4,0,0.8,0.1,1.1,0.4c0.3,0.3,0.4,0.7,0.4,1.2v0.4h-2.3c0,0.3,0.1,0.6,0.3,0.8c0.2,0.2,0.4,0.4,0.7,0.3c0.2,0,0.4,0,0.6-0.1 c0.2-0.1,0.3-0.1,0.4-0.3l0.3,0.4c-0.1,0.1-0.3,0.2-0.5,0.3C85.1,32.1,84.9,32.1,84.6,32.1z M84.5,28.9c-0.2,0-0.4,0.1-0.6,0.3 c-0.2,0.2-0.3,0.4-0.3,0.7h1.7v-0.1c0-0.2-0.1-0.5-0.2-0.7C85,29,84.7,28.9,84.5,28.9z"></path> <path d="M86.6,28.9v-0.4h1.1l0.1,0.5c0.1-0.2,0.2-0.3,0.4-0.4c0.1-0.1,0.3-0.2,0.5-0.2h0.2H89L88.9,29h-0.4c-0.2,0-0.3,0-0.4,0.1 c-0.1,0.1-0.2,0.2-0.3,0.3v2.1l0.5,0.1V32h-1.7v-0.4l0.5-0.1V29L86.6,28.9z"></path> <path d="M89.3,31.6l0.5-0.1V29l-0.5-0.1v-0.4h1.1v0.5c0.1-0.2,0.3-0.3,0.4-0.4c0.2-0.1,0.4-0.1,0.6-0.1c0.2,0,0.4,0.1,0.6,0.2 c0.2,0.1,0.3,0.3,0.4,0.5c0.1-0.2,0.3-0.4,0.4-0.5c0.2-0.1,0.4-0.2,0.6-0.2c0.3,0,0.7,0.1,0.9,0.4c0.2,0.3,0.3,0.7,0.3,1.1v1.6 l0.5,0.1V32h-1.7v-0.4l0.5-0.1v-1.6c0-0.3,0-0.5-0.2-0.8c-0.1-0.2-0.3-0.2-0.5-0.2c-0.2,0-0.4,0.1-0.6,0.2c-0.1,0.2-0.2,0.4-0.2,0.6 v1.8l0.5,0.1V32h-1.7v-0.4l0.6-0.1v-1.6c0-0.3,0-0.5-0.2-0.7c-0.1-0.2-0.3-0.2-0.5-0.2c-0.2,0-0.3,0-0.5,0.1 c-0.1,0.1-0.2,0.2-0.3,0.3v2.2l0.5,0.1V32h-1.7L89.3,31.6z"></path> <path d="M95.9,31.6l0.5-0.1V29l-0.5-0.1v-0.4h1.2v3.1l0.5,0.1V32h-1.7V31.6z M97.1,27.5h-0.7v-0.7h0.7V27.5z"></path> <path d="M99.2,27.6v0.9h0.7v0.5h-0.7v2.2c0,0.1,0,0.3,0.1,0.4c0.1,0.1,0.2,0.1,0.3,0.1h0.2h0.2l0.1,0.5c-0.1,0.1-0.2,0.1-0.3,0.1 c-0.1,0-0.2,0-0.4,0c-0.2,0-0.5-0.1-0.6-0.2c-0.2-0.2-0.3-0.5-0.2-0.8v-2.2H98v-0.5h0.6v-0.9L99.2,27.6z"></path> <path d="M102.2,31.6h0.4l1.7-4.4h0.6l1.7,4.4h0.4V32h-1.4v-0.4l0.4-0.1l-0.3-0.9h-1.9l-0.3,0.9l0.4,0.1V32h-1.4L102.2,31.6z M103.7,30.1h1.5l-0.8-2.1l0,0L103.7,30.1z"></path> <path d="M109.6,31.5c-0.1,0.2-0.3,0.3-0.4,0.4c-0.5,0.3-1.1,0.2-1.5-0.2c-0.2-0.3-0.4-0.7-0.3-1.2V29l-0.4-0.1v-0.4h1.1v2.1 c0,0.3,0,0.6,0.2,0.8c0.1,0.2,0.3,0.2,0.5,0.2c0.2,0,0.4,0,0.6-0.1c0.2-0.1,0.3-0.2,0.3-0.4V29l-0.5-0.1v-0.4h1.2v3.1l0.4,0.1V32h-1 L109.6,31.5z"></path> <path d="M112.3,27.6v0.9h0.7v0.5h-0.7v2.2c0,0.1,0,0.3,0.1,0.4c0.1,0.1,0.2,0.1,0.3,0.1h0.2h0.2l0.1,0.5c-0.1,0.1-0.2,0.1-0.3,0.1 c-0.1,0-0.2,0-0.3,0c-0.2,0-0.5-0.1-0.6-0.2c-0.2-0.2-0.3-0.5-0.2-0.8v-2.2h-0.6v-0.5h0.6v-0.9L112.3,27.6z"></path> <path d="M113.6,31.6l0.5-0.1v-4.2l-0.5-0.1v-0.4h1.2v2.1c0.1-0.2,0.3-0.3,0.5-0.4c0.2-0.1,0.4-0.1,0.6-0.1c0.3,0,0.7,0.1,0.9,0.3 c0.2,0.3,0.3,0.7,0.3,1.1v1.7l0.5,0.1V32h-1.7v-0.4l0.5-0.1v-1.8c0-0.2-0.1-0.5-0.2-0.7c-0.2-0.1-0.4-0.2-0.6-0.2 c-0.2,0-0.3,0-0.5,0.1c-0.1,0.1-0.3,0.2-0.4,0.3v2.1l0.5,0.1V32h-1.7L113.6,31.6z"></path> <path d="M118,30.2c0-0.5,0.1-0.9,0.4-1.3c0.6-0.6,1.6-0.7,2.2-0.1c0,0,0.1,0.1,0.1,0.1c0.3,0.4,0.5,0.8,0.4,1.3v0.1 c0,0.5-0.1,0.9-0.4,1.3c-0.6,0.6-1.6,0.7-2.3,0.1c0,0-0.1,0-0.1-0.1C118.2,31.2,118,30.8,118,30.2L118,30.2z M118.6,30.3 c0,0.3,0.1,0.7,0.2,1c0.2,0.2,0.4,0.4,0.7,0.4c0.3,0,0.5-0.1,0.7-0.4c0.2-0.3,0.3-0.6,0.3-1v-0.1c0-0.3-0.1-0.7-0.3-0.9 c-0.2-0.2-0.4-0.4-0.7-0.4c-0.3,0-0.6,0.1-0.7,0.4C118.7,29.6,118.6,29.9,118.6,30.3L118.6,30.3z"></path> <path d="M121.8,28.9v-0.4h1.1L123,29c0.1-0.2,0.2-0.3,0.4-0.4c0.1-0.1,0.3-0.2,0.5-0.2h0.2h0.1l-0.1,0.6h-0.4c-0.2,0-0.3,0-0.4,0.1 c-0.1,0.1-0.2,0.2-0.3,0.3v2.1l0.5,0.1V32h-1.7v-0.4l0.5-0.1V29L121.8,28.9z"></path> <path d="M124.6,31.6l0.5-0.1V29l-0.5-0.1v-0.4h1.2v3.1l0.5,0.1V32h-1.7L124.6,31.6z M125.8,27.5h-0.7v-0.7h0.7V27.5z"></path> <path d="M128,27.6v0.9h0.7v0.5H128v2.2c0,0.1,0,0.3,0.1,0.4c0.1,0.1,0.2,0.1,0.3,0.1h0.2h0.2l0.1,0.5c-0.1,0.1-0.2,0.1-0.3,0.1 c-0.1,0-0.2,0-0.4,0c-0.2,0-0.5-0.1-0.6-0.2c-0.2-0.2-0.3-0.5-0.2-0.8v-2.2h-0.6v-0.5h0.6v-0.9L128,27.6z"></path> <path d="M132.8,28.9h-0.3l-1.4,3.7c-0.1,0.2-0.2,0.4-0.4,0.6c-0.2,0.2-0.4,0.3-0.7,0.3h-0.2h-0.2l0.1-0.5h0.3c0.1,0,0.3-0.1,0.3-0.2 c0.1-0.1,0.2-0.3,0.2-0.4l0.1-0.4l-1.2-3h-0.3v-0.4h1.4v0.4l-0.4,0.1l0.6,1.8l0.1,0.5l0,0l0.8-2.2l-0.4-0.1v-0.4h1.4L132.8,28.9z"></path> <rect x="0" class="st0" width="56.7" height="24"></rect> <rect x="56.7" width="56.7" height="24"></rect> <path class="st0" d="M76.8,3.8h-5.4l-4.9,16.3h3.8l1-3.7h5.2l1,3.7h4.1L76.8,3.8z M72.1,13.4l1.8-6.8l1.8,6.8H72.1z"></path> <polygon class="st0" points="93.5,6.9 89.9,6.9 89.9,20.1 85.9,20.1 85.9,6.9 82.2,6.9 82.2,3.8 93.5,3.8 "></polygon> <path d="M54,17.1V6.9h2.7V3.8h-6.8v16.3h6.8v-3.1H54z"></path> <polygon points="42.3,15.9 37.2,3.8 31.5,3.8 31.5,20.1 35,20.1 35,7.8 40.3,20.1 45.8,20.1 45.8,3.8 42.3,3.8 "></polygon> <polygon points="18.4,6.9 21,6.9 21,17.1 18.4,17.1 18.4,20.1 27.6,20.1 27.6,17.1 25.1,17.1 25.1,6.9 27.6,6.9 27.6,3.8 18.4,3.8 "></polygon> <polygon points="7.7,6.9 14.5,6.9 14.5,3.8 3.8,3.8 3.8,20.1 7.7,20.1 7.7,14 14.6,14 14.6,11 7.7,11 "></polygon> <path class="st0" d="M62.3,5.4c-1.5-1.2-3.3-1.7-5.2-1.6h-0.4v3.1c1.4,0,2.3,0.3,2.8,0.8c0.5,0.7,0.7,1.6,0.7,2.5v3.7 c0.1,0.9-0.2,1.7-0.7,2.5c-0.8,0.6-1.8,0.9-2.8,0.8v3.1H57c1.9,0.1,3.7-0.5,5.2-1.6c1.3-1,2-2.6,2-4.3V9.8 C64.3,8.1,63.6,6.5,62.3,5.4z"></path> <path class="st0" d="M104.4,3.8H99l-4.9,16.3h3.8l1-3.7h5.2l1,3.7h4.1L104.4,3.8z M99.7,13.4l1.8-6.8l1.8,6.8H99.7z"></path> </svg> 