<?xml version="1.0" encoding="UTF-8"?>
<svg version="1.1" xmlns="http://www.w3.org/2000/svg" width="800" height="332">
<path d="M0 0 C14.19 0 28.38 0 43 0 C43 28.71 43 57.42 43 87 C69.4 87 95.8 87 123 87 C123 58.29 123 29.58 123 0 C137.52 0 152.04 0 167 0 C167 72.27 167 144.54 167 219 C152.48 219 137.96 219 123 219 C123 189.3 123 159.6 123 129 C96.6 129 70.2 129 43 129 C43 158.7 43 188.4 43 219 C28.81 219 14.62 219 0 219 C0 146.73 0 74.46 0 0 Z " fill="#004E86" transform="translate(0,104)"/>
<path d="M0 0 C14.52 0 29.04 0 44 0 C44.0093457 4.54168945 44.01869141 9.08337891 44.02832031 13.76269531 C44.0621221 28.78630279 44.11748932 43.80977401 44.18390274 58.83327103 C44.22363578 67.93995695 44.25605732 77.04655717 44.27099609 86.15332031 C44.28404243 94.094955 44.31108282 102.03640067 44.35461307 109.97792888 C44.37716111 114.17916116 44.3929147 118.38016089 44.39188385 122.58145905 C44.39113327 126.54441736 44.40924181 130.50686292 44.44116783 134.46968842 C44.44961309 135.91592567 44.45145373 137.36222081 44.44580269 138.80847168 C44.40565855 150.67234964 45.6083974 161.57570115 54.21875 170.38671875 C63.11846812 178.44720907 74.19435872 180.35978442 85.90234375 180.21484375 C96.84217687 179.45609114 107.5647629 176.98319049 115.3125 168.8125 C121.56490182 160.84068768 123.09932542 151.44199748 123.15821838 141.53956604 C123.1680072 140.28464859 123.17779602 139.02973114 123.18788147 137.73678589 C123.19378405 136.36431923 123.1995946 134.99185217 123.20532227 133.61938477 C123.21491234 132.16023997 123.22492307 130.70109788 123.23532104 129.24195862 C123.26225386 125.29623541 123.28332601 121.35050039 123.30332303 117.40473676 C123.32525466 113.27541299 123.3526081 109.14612516 123.37937927 105.01683044 C123.42920942 97.20432089 123.47418398 89.39179128 123.51740164 81.57924265 C123.56685694 72.682007 123.62174421 63.78480744 123.67708123 54.88760674 C123.79075263 36.59176989 123.89690677 18.29589972 124 0 C138.52 0 153.04 0 168 0 C168.04524889 19.7069339 168.0820484 39.41382535 168.10362434 59.12079811 C168.1139113 68.27228284 168.12792197 77.42373287 168.15087891 86.57519531 C168.17089214 94.55703677 168.18373516 102.53885308 168.18817699 110.52071893 C168.190771 114.742112 168.19681352 118.96343313 168.21146011 123.18480301 C168.22516979 127.16891897 168.22919599 131.15293429 168.22621536 135.13707161 C168.2267596 136.58894843 168.23065654 138.0408291 168.23841095 139.49268532 C168.35196094 161.8758009 164.23981491 182.94634094 148.47045898 199.74633789 C131.41366272 216.96429167 107.8413601 223.81814783 84.0625 224.25 C60.50150488 223.79945229 37.65492448 217.72621128 20.5859375 200.71875 C4.06198436 183.34613461 -0.17394785 163.15841179 -0.11352539 139.86328125 C-0.11324297 138.33502708 -0.11340232 136.80677277 -0.1139679 135.27851868 C-0.11425374 131.14894682 -0.10839144 127.01940425 -0.10139394 122.88983917 C-0.09512494 118.56702322 -0.0945538 114.24420652 -0.09336853 109.92138672 C-0.09026565 101.74409985 -0.08206636 93.56682641 -0.07201904 85.38954544 C-0.06082546 76.07635879 -0.05533928 66.76317149 -0.05032361 57.44997978 C-0.03988285 38.29997737 -0.02155037 19.14999336 0 0 Z " fill="#004E86" transform="translate(199,104)"/>
<path d="M0 0 C10.67811895 8.9055975 19.14386036 19.33721258 25.43994141 31.77197266 C25.43994141 32.43197266 25.43994141 33.09197266 25.43994141 33.77197266 C21.93957753 35.80010535 18.43814167 37.82637429 14.93579102 39.85107422 C13.74963756 40.53711194 12.5637556 41.22361933 11.37817383 41.91064453 C3.78956264 46.30760349 -3.83625104 50.61669153 -11.56005859 54.77197266 C-12.07955078 53.97533203 -12.59904297 53.17869141 -13.13427734 52.35791016 C-20.30701974 41.45958438 -27.08584525 31.73681377 -40.42724609 28.24462891 C-50.71025566 26.69320228 -63.60775631 25.65426709 -72.56005859 31.77197266 C-76.70207835 35.37334983 -79.59292292 39.29153715 -80.56005859 44.77197266 C-80.63283417 51.12424041 -79.89049537 55.88635167 -75.56005859 60.77197266 C-71.0693117 65.27485671 -65.71069463 67.72196528 -59.88427734 70.09228516 C-59.14085083 70.39634781 -58.39742432 70.70041046 -57.63146973 71.01368713 C-48.67307013 74.61463202 -39.4922001 77.52174843 -30.28955078 80.42602539 C-21.75056014 83.13236713 -13.46546622 86.07118375 -5.34521484 89.87353516 C-4.31575745 90.35469032 -4.31575745 90.35469032 -3.26550293 90.8455658 C11.24610718 97.85841396 22.55493007 108.62861014 28.43994141 123.77197266 C34.04329774 141.91416034 32.3951936 160.26560782 23.76171875 177.07226562 C15.39164963 192.41050186 0.75431983 202.27909126 -15.71777344 207.44921875 C-24.17922896 209.81977983 -32.76368528 211.48086965 -41.56005859 211.77197266 C-42.61064453 211.81193359 -43.66123047 211.85189453 -44.74365234 211.89306641 C-71.03515403 212.40039391 -95.99942373 206.10218049 -115.56005859 187.77197266 C-124.3991204 179.17137475 -131.31996644 168.71981248 -134.56005859 156.77197266 C-126.9906107 151.48211214 -119.02580664 146.93818326 -110.99755859 142.39697266 C-109.68944277 141.6537877 -108.38149878 140.9103002 -107.07373047 140.16650391 C-103.90447677 138.36484017 -100.73292836 136.56726234 -97.56005859 134.77197266 C-95.1483987 137.91595367 -93.21946767 141.10916969 -91.31005859 144.58447266 C-84.39249673 156.50530253 -75.73197008 162.25029177 -62.59521484 165.99072266 C-49.1582366 169.44940431 -33.77259878 168.86312502 -21.56005859 161.77197266 C-16.14784531 157.41867066 -13.886756 152.71224933 -13.12255859 145.83447266 C-13.38947655 139.84622641 -15.99478049 135.41551466 -20.06005859 131.14697266 C-28.70842099 124.69395346 -39.1827737 121.32524769 -49.37255859 118.20947266 C-51.85697462 117.42705082 -54.34135005 116.64450009 -56.82568359 115.86181641 C-59.88177782 114.91046217 -62.9385488 113.96193371 -65.99951172 113.02636719 C-80.90047556 108.46855088 -96.08115174 102.5994347 -107.56005859 91.77197266 C-108.18783203 91.23314453 -108.81560547 90.69431641 -109.46240234 90.13916016 C-120.61553366 80.0354482 -124.63980743 66.13925048 -125.72021484 51.61962891 C-126.36700492 34.71872293 -120.83452066 18.72708182 -109.93505859 5.83447266 C-82.02629246 -22.63075661 -31.12814894 -24.5030656 0 0 Z " fill="#004E86" transform="translate(520.56005859375,116.22802734375)"/>
<path d="M0 0 C10.09075395 0.90946709 19.28565307 8.79355924 26 16 C31.74711718 23.02111794 37.02627246 30.41536086 42 38 C47.28878777 34.22229445 52.22870266 30.14020508 57.125 25.875 C57.76348877 25.3188501 58.40197754 24.7627002 59.05981445 24.18969727 C61.70894026 21.87850545 64.35529477 19.5641564 67.00097656 17.24902344 C68.91363891 15.57839844 70.83133282 13.91372169 72.75 12.25 C73.33410645 11.73679199 73.91821289 11.22358398 74.52001953 10.69482422 C77.00783802 8.54234278 78.84529569 7.0515681 82 6 C82.37511719 6.51949219 82.75023437 7.03898438 83.13671875 7.57421875 C91.3241926 18.73145641 100.53667541 26.85175492 114.48046875 29.46484375 C116.31370186 29.70170396 118.15677068 29.86088835 120 30 C118.49775154 33.73892951 116.39834702 35.54093605 113.25 38 C108.67122447 41.64494631 104.18342901 45.36697646 99.75 49.1875 C99.18442383 49.67412109 98.61884766 50.16074219 98.03613281 50.66210938 C97.48280273 51.13841797 96.92947266 51.61472656 96.359375 52.10546875 C95.81345703 52.57388184 95.26753906 53.04229492 94.70507812 53.52490234 C93.49287796 54.57360129 92.28930795 55.63231224 91.09179688 56.69775391 C90.46853516 57.24737793 89.84527344 57.79700195 89.203125 58.36328125 C88.63754883 58.86770752 88.07197266 59.37213379 87.48925781 59.8918457 C86 61 86 61 84 61 C84 61.66 84 62.32 84 63 C84.58789307 62.97905273 85.17578613 62.95810547 85.78149414 62.93652344 C101.38413587 62.45573994 115.09263635 63.05293505 129 71 C128.73265199 74.2007498 127.86901718 75.12706981 125.515625 77.41015625 C124.43468395 78.30354754 123.34555635 79.18709276 122.25 80.0625 C121.05837464 81.0414 119.86697461 82.02057435 118.67578125 83 C118.06428223 83.49757813 117.4527832 83.99515625 116.82275391 84.5078125 C114.54040555 86.37624448 112.29132042 88.28156275 110.04589844 90.1940918 C108.44117041 91.55937725 106.82832426 92.91460879 105.21484375 94.26953125 C103.00840756 96.12896315 100.84163189 98.02513205 98.69140625 99.94921875 C97.8871521 100.65485962 97.8871521 100.65485962 97.06665039 101.37475586 C95.58813041 102.67263696 94.12177812 103.98434157 92.65625 105.296875 C90 107 90 107 87.46484375 106.9140625 C84.89625723 105.96152804 82.50459303 104.86674222 80.0625 103.625 C73.50791614 100.60989143 67.13739579 98.99390577 60 98 C59.28859863 97.89655273 58.57719727 97.79310547 57.84423828 97.68652344 C50.86622927 96.79171246 44.12487741 96.16052482 38.12890625 100.3671875 C35.07401908 102.85262396 32.30571093 105.59376271 29.56982422 108.42236328 C27.23970612 110.76407761 24.69946562 112.8090708 22.125 114.875 C21.24972656 115.58398438 20.37445312 116.29296875 19.47265625 117.0234375 C14.68804049 120.84810666 14.68804049 120.84810666 12.5625 122.5 C11.96566406 122.9640625 11.36882813 123.428125 10.75390625 123.90625 C5.71291362 127.04985342 -0.82160597 126.5962647 -6.45703125 125.5390625 C-17.28969683 122.6389788 -25.80251602 116.53150041 -33 108 C-34.25 105.7265625 -34.25 105.7265625 -35 104 C-29.1299403 98.61380639 -23.15239534 93.42166553 -16.953125 88.41796875 C-14.77154583 86.63172866 -12.62045581 84.82742591 -10.484375 82.98828125 C-9.89438721 82.48151855 -9.30439941 81.97475586 -8.6965332 81.45263672 C-7.54057458 80.45695605 -6.38795231 79.45738632 -5.23901367 78.45361328 C-1.2209269 75 -1.2209269 75 1 75 C-9.15699497 57.7019096 -21.77865029 45.35945795 -39 35 C-34.79259833 29.65546274 -30.17174609 25.55585161 -24.859375 21.3203125 C-22.1544119 19.12530146 -19.57077971 16.8497254 -17 14.5 C-12.51671606 10.41251159 -7.87101325 6.56199668 -3.15234375 2.75 C-1.14403815 1.17822462 -1.14403815 1.17822462 0 0 Z " fill="#00ABAD" transform="translate(584,0)"/>
<path d="M0 0 C4.15277764 1.84567895 6.28924958 3.7681437 8 8 C8.69105465 13.03964246 8.57206462 16.83468318 6.3125 21.4375 C3.4887776 24.56648969 1.36278251 26.65422695 -2.921875 27.28125 C-7.45706112 27.48584486 -10.2745664 26.7940752 -14 24 C-14.33 27.63 -14.66 31.26 -15 35 C-16.32 35 -17.64 35 -19 35 C-19 23.45 -19 11.9 -19 0 C-17.68 0 -16.36 0 -15 0 C-14.67 0.66 -14.34 1.32 -14 2 C-12.7625 1.2265625 -12.7625 1.2265625 -11.5 0.4375 C-7.18880078 -1.33317111 -4.43365189 -1.19085691 0 0 Z M-14 8 C-15.3486018 11.9875325 -15.42208739 14.97810422 -13.8125 18.875 C-11.85297347 21.17237593 -10.90450203 22.19319388 -8 23 C-4.19375985 22.86406285 -1.78764856 22.53891744 1.375 20.375 C3.59570469 17.12935469 4 14.92878388 4 11 C1.77020332 6.74201624 1.77020332 6.74201624 -2 4 C-7.39715119 3.49083479 -10.40016663 3.76490192 -14 8 Z " fill="#004E86" transform="translate(693,297)"/>
<path d="M0 0 C5.53107235 4.33516482 6.27348203 6.5393742 7.3125 13.8125 C-0.2775 13.8125 -7.8675 13.8125 -15.6875 13.8125 C-12.53236225 19.41338476 -12.53236225 19.41338476 -7.6875 21.8125 C-3.92271068 21.65563378 -2.25771876 21.38271876 0.4375 18.6875 C1.05625 18.06875 1.675 17.45 2.3125 16.8125 C4.5625 17.0625 4.5625 17.0625 6.3125 17.8125 C5.04365998 21.72475672 4.02731455 23.9074669 0.3125 25.8125 C-4.32619265 26.98116288 -7.86998785 27.04033126 -12.5 25.75 C-16.33089112 23.42141912 -17.82766774 21.90413098 -19.6875 17.8125 C-20.47994168 12.78825637 -20.24609751 8.99414858 -18.0625 4.375 C-13.03922952 -1.04484446 -6.99163854 -3.08932866 0 0 Z M-12.6875 4.8125 C-13.3475 6.4625 -14.0075 8.1125 -14.6875 9.8125 C-9.0775 9.8125 -3.4675 9.8125 2.3125 9.8125 C-0.35511561 4.87203983 -0.35511561 4.87203983 -4.6875 2.8125 C-8.00808331 2.8125 -9.77293662 3.24311972 -12.6875 4.8125 Z " fill="#004E86" transform="translate(705.6875,242.1875)"/>
<path d="M0 0 C1.32 0 2.64 0 4 0 C4 4.95 4 9.9 4 15 C9.28 15 14.56 15 20 15 C20 10.05 20 5.1 20 0 C21.65 0 23.3 0 25 0 C25 11.55 25 23.1 25 35 C23.35 35 21.7 35 20 35 C20 29.72 20 24.44 20 19 C14.72 19 9.44 19 4 19 C4 24.28 4 29.56 4 35 C2.68 35 1.36 35 0 35 C0 23.45 0 11.9 0 0 Z " fill="#004E86" transform="translate(593,288)"/>
<path d="M0 0 C1.32 0 2.64 0 4 0 C4 4.62 4 9.24 4 14 C9.28 14 14.56 14 20 14 C20 9.38 20 4.76 20 0 C21.65 0 23.3 0 25 0 C25 11.55 25 23.1 25 35 C23.35 35 21.7 35 20 35 C20 29.39 20 23.78 20 18 C14.72 18 9.44 18 4 18 C4 23.61 4 29.22 4 35 C2.68 35 1.36 35 0 35 C0 23.45 0 11.9 0 0 Z " fill="#004E86" transform="translate(593,178)"/>
<path d="M0 0 C0.33 0.33 0.66 0.66 1 1 C1.33 0.34 1.66 -0.32 2 -1 C3.32 -1 4.64 -1 6 -1 C6 7.58 6 16.16 6 25 C4.35 24.67 2.7 24.34 1 24 C-1.05416303 24.88645635 -1.05416303 24.88645635 -3 26 C-7.62516534 26.72320767 -11.14401775 26.4121396 -15.375 24.375 C-19.34730892 20.78100622 -20.80497277 17.82025411 -21.375 12.5 C-20.82480012 7.36480115 -19.32270272 4.28789476 -15.625 0.6875 C-9.99921565 -2.92907565 -6.11691779 -1.83507534 0 0 Z M-15 7 C-16.55024464 10.10048928 -16.28992015 12.57894218 -16 16 C-14.20437595 18.75329021 -12.94745078 20.52627461 -10 22 C-5.80345391 22.57225628 -4.28067826 22.18535357 -0.6875 19.8125 C2.05587384 16.94152737 3 15.90620207 3 12 C1.93792418 8.04135375 0.3228898 5.42481147 -3 3 C-8.47098039 2.20422103 -11.11003635 3.11003635 -15 7 Z " fill="#004E86" transform="translate(750,298)"/>
<path d="M0 0 C4.44257814 3.90408382 5.07759913 6.90309481 6.0625 12.8125 C-1.5275 12.8125 -9.1175 12.8125 -16.9375 12.8125 C-14.5172509 18.44356761 -14.5172509 18.44356761 -11.9375 20.8125 C-7.79752433 21.0096417 -4.86046433 21.12015478 -0.9375 19.8125 C0.27132096 17.81233534 0.27132096 17.81233534 1.0625 15.8125 C2.3825 16.4725 3.7025 17.1325 5.0625 17.8125 C3.14139975 21.36653546 1.5252071 23.69842619 -1.9375 25.8125 C-7.21263621 26.69700169 -11.69518421 26.42276039 -16.5 24.0625 C-19.5437327 21.25290059 -20.76391054 19.32520814 -21.23828125 15.19140625 C-21.27860926 5.49924125 -21.27860926 5.49924125 -17.9375 1.8125 C-12.96224405 -2.55969462 -5.91286677 -2.39030784 0 0 Z M-14.9375 5.8125 C-15.2675 7.1325 -15.5975 8.4525 -15.9375 9.8125 C-10.3275 9.8125 -4.7175 9.8125 1.0625 9.8125 C-1.59600192 4.85679803 -1.59600192 4.85679803 -5.9375 2.8125 C-10.23625783 2.8125 -11.58938866 3.27879412 -14.9375 5.8125 Z " fill="#004E86" transform="translate(644.9375,187.1875)"/>
<path d="M0 0 C1.32 0 2.64 0 4 0 C4.01981934 0.70084717 4.03963867 1.40169434 4.06005859 2.1237793 C4.15556166 5.31205162 4.26513871 8.49969147 4.375 11.6875 C4.4059375 12.79029297 4.436875 13.89308594 4.46875 15.02929688 C4.50742187 16.09599609 4.54609375 17.16269531 4.5859375 18.26171875 C4.6173584 19.24100342 4.6487793 20.22028809 4.68115234 21.22924805 C5.02062372 24.17921792 5.6367482 26.3637837 7 29 C10.1229764 30.5614882 11.91684437 31.32201924 15.3125 30.3125 C17.30335167 29.01444532 17.30335167 29.01444532 18 26 C18.14986411 24.0093556 18.24828038 22.01464609 18.31640625 20.01953125 C18.35830078 18.85615234 18.40019531 17.69277344 18.44335938 16.49414062 C18.48267578 15.27919922 18.52199219 14.06425781 18.5625 12.8125 C18.60568359 11.58595703 18.64886719 10.35941406 18.69335938 9.09570312 C18.7995309 6.06391619 18.90157952 3.03204685 19 0 C20.32 0 21.64 0 23 0 C23.12426099 4.01993847 23.21464411 8.03912279 23.2746582 12.06054688 C23.2996928 13.42630503 23.33373218 14.79193067 23.37719727 16.15722656 C23.77476031 28.97278811 23.77476031 28.97278811 20.60546875 32.8671875 C16.70951313 36.05638055 14.25319149 36.39114962 9.328125 36.359375 C5.40995764 35.75455722 3.69641184 33.83123243 1 31 C-0.43509221 28.12981559 -0.11158506 25.66456277 -0.09765625 22.4609375 C-0.09443359 21.15898437 -0.09121094 19.85703125 -0.08789062 18.515625 C-0.07953466 17.13541601 -0.07106971 15.75520768 -0.0625 14.375 C-0.05748501 12.98698074 -0.0529221 11.59895978 -0.04882812 10.2109375 C-0.03700976 6.80724868 -0.02053434 3.40364561 0 0 Z " fill="#004E86" transform="translate(593,233)"/>
<path d="M0 0 C3.95123692 3.45120446 5.80945997 7.01838373 6.3125 12.25 C5.85482314 17.74212232 4.02318553 21.20803568 -0.1875 24.9375 C-5.14579382 26.81063322 -9.91522619 26.88023783 -14.8125 24.8125 C-20.70873641 19.92704697 -20.70873641 19.92704697 -21.38671875 15.44140625 C-21.56283748 10.96556127 -21.27450168 7.66835191 -19.5625 3.5 C-14.13865391 -1.79155717 -6.91063919 -3.61340611 0 0 Z M-16 7 C-17.56935594 10.13871188 -17.35201103 12.53855822 -17 16 C-14.57146618 19.2856634 -12.87725186 20.70758271 -9 22 C-5.37396827 22 -3.83935889 21.20839025 -1 19 C1.11890181 15.82164728 1.5434002 13.80520785 1.4453125 10.0078125 C1.08185581 7.60933603 1.08185581 7.60933603 -1.625 5 C-7.63520713 1.43839578 -11.05632085 2.19756882 -16 7 Z " fill="#004E86" transform="translate(645,298)"/>
<path d="M0 0 C1.32 0 2.64 0 4 0 C4.33 5.61 4.66 11.22 5 17 C6.175625 15.845 7.35125 14.69 8.5625 13.5 C11.38681245 10.99789075 13.15939226 9.50752198 17 9.5625 C17.99 9.706875 18.98 9.85125 20 10 C16.19588166 13.91939465 12.18423892 17.49102731 8 21 C9.42378947 24.36397926 11.12610426 26.19643552 13.9375 28.5 C16.73240887 30.79861664 18.92226472 33.02994581 21 36 C17.12223829 36.40938247 15.46016439 36.3266519 12.2265625 34.03125 C11.36804688 33.1959375 10.50953125 32.360625 9.625 31.5 C8.75101563 30.6646875 7.87703125 29.829375 6.9765625 28.96875 C6.32429687 28.3190625 5.67203125 27.669375 5 27 C4.67 29.97 4.34 32.94 4 36 C2.35 36 0.7 36 -1 36 C-0.67 24.12 -0.34 12.24 0 0 Z " fill="#004E86" transform="translate(724,177)"/>
<path d="M0 0 C3.44312714 2.1244827 4.71617547 3.14852641 6 7 C6.08106686 8.55421729 6.10756898 10.11167027 6.09765625 11.66796875 C6.09443359 12.56064453 6.09121094 13.45332031 6.08789062 14.37304688 C6.07951172 15.30181641 6.07113281 16.23058594 6.0625 17.1875 C6.05798828 18.12787109 6.05347656 19.06824219 6.04882812 20.03710938 C6.03704626 22.35813712 6.02059558 24.67903644 6 27 C4.68 27 3.36 27 2 27 C1.93941406 25.74703125 1.87882813 24.4940625 1.81640625 23.203125 C1.73197744 21.55207276 1.64733061 19.90103165 1.5625 18.25 C1.52318359 17.425 1.48386719 16.6 1.44335938 15.75 C1.40146484 14.95078125 1.35957031 14.1515625 1.31640625 13.328125 C1.27974854 12.5949707 1.24309082 11.86181641 1.20532227 11.10644531 C0.99885215 8.98822395 0.56867914 7.0480544 0 5 C-5.08303686 4.88679144 -5.08303686 4.88679144 -10 6 C-10.88639389 8.65918166 -11.17989025 10.48064641 -11.31640625 13.23046875 C-11.35830078 14.03291016 -11.40019531 14.83535156 -11.44335938 15.66210938 C-11.48267578 16.49548828 -11.52199219 17.32886719 -11.5625 18.1875 C-11.60568359 19.03248047 -11.64886719 19.87746094 -11.69335938 20.74804688 C-11.79931518 22.83184433 -11.9001502 24.91590103 -12 27 C-13.65 27 -15.3 27 -17 27 C-17 18.42 -17 9.84 -17 1 C-15.68 1 -14.36 1 -13 1 C-12.67 1.66 -12.34 2.32 -12 3 C-11.505 2.505 -11.01 2.01 -10.5 1.5 C-7.05050501 -0.56969699 -3.87642839 -0.70760201 0 0 Z " fill="#004E86" transform="translate(711,186)"/>
<path d="M0 0 C3.15954305 2.54137159 4.71540886 4.14622659 6 8 C6.0806622 9.48123547 6.10761193 10.96582204 6.09765625 12.44921875 C6.09443359 13.29677734 6.09121094 14.14433594 6.08789062 15.01757812 C6.07951172 15.89865234 6.07113281 16.77972656 6.0625 17.6875 C6.05798828 18.58017578 6.05347656 19.47285156 6.04882812 20.39257812 C6.03704983 22.59511987 6.02060164 24.79752599 6 27 C4.68 27 3.36 27 2 27 C1.95101562 25.81921875 1.90203125 24.6384375 1.8515625 23.421875 C1.77651121 21.86456063 1.70096439 20.30727009 1.625 18.75 C1.5940625 17.97269531 1.563125 17.19539063 1.53125 16.39453125 C1.33401181 10.88732036 1.33401181 10.88732036 -1 6 C-3.30371421 4.82221688 -3.30371421 4.82221688 -6 5 C-8.8456399 6.56467209 -10.65293666 7.81236792 -11.58959961 11.01757812 C-11.94074449 13.43096604 -12.15469816 15.81642941 -12.3125 18.25 C-12.38533203 19.09046875 -12.45816406 19.9309375 -12.53320312 20.796875 C-12.70928817 22.86293958 -12.85740814 24.93135398 -13 27 C-14.32 27 -15.64 27 -17 27 C-17 18.42 -17 9.84 -17 1 C-15.68 1 -14.36 1 -13 1 C-12.67 1.66 -12.34 2.32 -12 3 C-11.319375 2.505 -10.63875 2.01 -9.9375 1.5 C-6.25211716 -0.38189762 -4.09153627 -0.58450518 0 0 Z " fill="#004E86" transform="translate(640,241)"/>
<path d="M0 0 C2.29296875 0.1015625 2.29296875 0.1015625 5 1 C6.80078125 3.8359375 6.80078125 3.8359375 8.3125 7.375 C8.82425781 8.53773438 9.33601562 9.70046875 9.86328125 10.8984375 C11 14 11 14 11 17 C11.66 17 12.32 17 13 17 C13.17015625 16.443125 13.3403125 15.88625 13.515625 15.3125 C15.23315937 9.90409391 17.35342255 5.01937104 20 0 C21.32 0 22.64 0 24 0 C23.33728786 4.3165845 21.8147579 8.08549961 20.05859375 12.05078125 C19.77146011 12.70958786 19.48432648 13.36839447 19.18849182 14.04716492 C18.27611147 16.13766492 17.35692318 18.22508934 16.4375 20.3125 C15.81530233 21.73482801 15.19355266 23.1573521 14.57226562 24.58007812 C13.05335398 28.05567662 11.52833217 31.52853432 10 35 C8.35 35 6.7 35 5 35 C6.33333333 31 7.66666667 27 9 23 C8.30558126 20.7829632 8.30558126 20.7829632 7.12890625 18.4375 C6.71962891 17.55835938 6.31035156 16.67921875 5.88867188 15.7734375 C5.45103516 14.85820312 5.01339844 13.94296875 4.5625 13 C3.70460337 11.18987635 2.85151116 9.37746561 2.00390625 7.5625 C1.62049072 6.75941406 1.2370752 5.95632812 0.84204102 5.12890625 C0 3 0 3 0 0 Z " fill="#004E86" transform="translate(776,242)"/>
<path d="M0 0 C0.99 0.66 1.98 1.32 3 2 C2.34 3.32 1.68 4.64 1 6 C0.4225 5.649375 -0.155 5.29875 -0.75 4.9375 C-3.35801776 3.85082593 -4.39417629 4.06934867 -7 5 C-7 6.32 -7 7.64 -7 9 C-6.0925 9.226875 -5.185 9.45375 -4.25 9.6875 C-0.44139093 11.22559213 0.92108323 12.48183317 3 16 C3.5 19.0625 3.5 19.0625 3 22 C1.05872646 24.66026374 -0.34240089 25.76393878 -3.4375 26.875 C-6.55954946 27.0272951 -8.28424195 26.54137619 -11 25 C-12.3125 22.875 -12.3125 22.875 -13 21 C-11.0625 20.4375 -11.0625 20.4375 -9 20 C-8.67 20.33 -8.34 20.66 -8 21 C-6.33382885 21.04063832 -4.66611905 21.042721 -3 21 C-3 19.68 -3 18.36 -3 17 C-4.70737505 15.24417102 -4.70737505 15.24417102 -6.9375 13.8125 C-7.66839844 13.30332031 -8.39929688 12.79414063 -9.15234375 12.26953125 C-9.76207031 11.85058594 -10.37179687 11.43164062 -11 11 C-12 10 -12 10 -12.25 6.625 C-12 3 -12 3 -10.625 1.125 C-6.84541079 -1.49163868 -4.46783955 -0.86221465 0 0 Z " fill="#004E86" transform="translate(744,242)"/>
<path d="M0 0 C0.33 1.32 0.66 2.64 1 4 C-2.65982807 5.21994269 -3.58115302 4.49026663 -7 3 C-7.66 3 -8.32 3 -9 3 C-8.65601296 5.87698253 -8.24636798 6.80439594 -5.93359375 8.640625 C-4.69802734 9.43726563 -4.69802734 9.43726563 -3.4375 10.25 C0.76747432 13.36852162 0.76747432 13.36852162 1.76953125 16.08984375 C1.95423653 19.76342649 1.23524508 21.72324109 -1.125 24.5 C-4.53285587 26.27801176 -6.21545532 26.70960213 -10 26 C-12.875 23.5 -12.875 23.5 -15 21 C-13.3125 19.875 -13.3125 19.875 -11 19 C-8.375 19.9375 -8.375 19.9375 -6 21 C-5.34 20.67 -4.68 20.34 -4 20 C-3.34786708 17.97536745 -3.34786708 17.97536745 -3 16 C-3.721875 15.7525 -4.44375 15.505 -5.1875 15.25 C-8.39882834 13.82274296 -10.54110944 12.52719307 -13 10 C-14.06611589 6.26859437 -14.57242807 4.14485614 -12.8125 0.625 C-8.52691839 -3.21724558 -5.19029512 -1.69682725 0 0 Z " fill="#004E86" transform="translate(668,298)"/>
<path d="M0 0 C2.375 1.5 2.375 1.5 4 3 C3.67 3.99 3.34 4.98 3 6 C0.36 5.67 -2.28 5.34 -5 5 C-5 6.32 -5 7.64 -5 9 C-3.04533397 10.58664998 -3.04533397 10.58664998 -0.5625 11.875 C3.85064725 14.63408576 3.85064725 14.63408576 5.25 18.0625 C4.93041147 21.81766528 3.67216714 24.32783286 1 27 C-0.9609375 27.16796875 -0.9609375 27.16796875 -3.375 27.1875 C-4.16648437 27.20167969 -4.95796875 27.21585938 -5.7734375 27.23046875 C-8 27 -8 27 -11 25 C-10.67 23.35 -10.34 21.7 -10 20 C-9.46375 20.33 -8.9275 20.66 -8.375 21 C-5.4608939 22.22699204 -3.13132292 22.14233286 0 22 C-0.66995909 19.32016365 -1.26764387 17.48882565 -3.62109375 15.91796875 C-4.24113281 15.59441406 -4.86117187 15.27085937 -5.5 14.9375 C-7.73425544 13.76917059 -8.90405057 13.11993678 -10.5 11.125 C-11.21752035 8.07553852 -10.89155869 5.9930899 -10 3 C-7.01609577 -0.31544915 -4.32528899 -0.54066112 0 0 Z " fill="#004E86" transform="translate(675,186)"/>
<path d="M0 0 C1.65 0 3.3 0 5 0 C7.31 5.28 9.62 10.56 12 16 C14.64 10.72 17.28 5.44 20 0 C21.65 0 23.3 0 25 0 C23.56854586 3.39841309 22.12877496 6.79324161 20.6875 10.1875 C20.28337891 11.14720703 19.87925781 12.10691406 19.46289062 13.09570312 C19.06650391 14.02705078 18.67011719 14.95839844 18.26171875 15.91796875 C17.90037842 16.77156982 17.53903809 17.6251709 17.16674805 18.50463867 C15.93333561 21.14257726 14.63807684 23.59046094 13 26 C12.34 26 11.68 26 11 26 C9.16055374 22.04447897 7.32948447 18.08513715 5.5 14.125 C4.71302734 12.43310547 4.71302734 12.43310547 3.91015625 10.70703125 C3.16572266 9.09248047 3.16572266 9.09248047 2.40625 7.4453125 C1.94541016 6.45031738 1.48457031 5.45532227 1.00976562 4.43017578 C0 2 0 2 0 0 Z " fill="#004E86" transform="translate(660,242)"/>
<path d="M0 0 C1.32 0 2.64 0 4 0 C4 2.97 4 5.94 4 9 C5.65 9 7.3 9 9 9 C9 10.32 9 11.64 9 13 C7.35 13 5.7 13 4 13 C4 20.26 4 27.52 4 35 C2.68 35 1.36 35 0 35 C0 27.74 0 20.48 0 13 C-1.65 13 -3.3 13 -5 13 C-5 11.68 -5 10.36 -5 9 C-3.35 9 -1.7 9 0 9 C0 6.03 0 3.06 0 0 Z " fill="#004E86" transform="translate(719,288)"/>
<path d="M0 0 C1.32 0 2.64 0 4 0 C4 2.97 4 5.94 4 9 C5.65 9 7.3 9 9 9 C9 10.32 9 11.64 9 13 C7.35 13 5.7 13 4 13 C4 20.26 4 27.52 4 35 C2.68 35 1.36 35 0 35 C0 27.74 0 20.48 0 13 C-1.32 13 -2.64 13 -4 13 C-4 11.68 -4 10.36 -4 9 C-2.68 9 -1.36 9 0 9 C0 6.03 0 3.06 0 0 Z " fill="#004E86" transform="translate(764,233)"/>
<path d="M0 0 C-0.75 1.9375 -0.75 1.9375 -2 4 C-4 4.625 -4 4.625 -6 5 C-9.76220217 8.76220217 -9.22929565 14.21923347 -9.5625 19.3125 C-9.64628906 20.56675781 -9.73007812 21.82101562 -9.81640625 23.11328125 C-9.87699219 24.06589844 -9.93757812 25.01851563 -10 26 C-11.32 26 -12.64 26 -14 26 C-14 17.42 -14 8.84 -14 0 C-11.525 0.495 -11.525 0.495 -9 1 C-8.34 0.67 -7.68 0.34 -7 0 C-4.3390237 -1.33048815 -2.79884779 -0.77745772 0 0 Z " fill="#004E86" transform="translate(731,242)"/>
<path d="M0 0 C1.32 0 2.64 0 4 0 C4 11.88 4 23.76 4 36 C2.68 36 1.36 36 0 36 C0 24.12 0 12.24 0 0 Z " fill="#004E86" transform="translate(763,287)"/>
<path d="M0 0 C1.32 0 2.64 0 4 0 C4 11.88 4 23.76 4 36 C2.68 36 1.36 36 0 36 C0 24.12 0 12.24 0 0 Z " fill="#004E86" transform="translate(655,177)"/>
<path d="M0 0 C1.32 0 2.64 0 4 0 C4 8.58 4 17.16 4 26 C2.68 26 1.36 26 0 26 C0 17.42 0 8.84 0 0 Z " fill="#004E86" transform="translate(706,297)"/>
<path d="M0 0 C1.32 0 2.64 0 4 0 C4 8.58 4 17.16 4 26 C2.68 26 1.36 26 0 26 C0 17.42 0 8.84 0 0 Z " fill="#004E86" transform="translate(751,242)"/>
<path d="M0 0 C1.32 0 2.64 0 4 0 C4 8.58 4 17.16 4 26 C2.68 26 1.36 26 0 26 C0 17.42 0 8.84 0 0 Z " fill="#004E86" transform="translate(652,242)"/>
<path d="M0 0 C1.32 0 2.64 0 4 0 C4 8.58 4 17.16 4 26 C2.68 26 1.36 26 0 26 C0 17.42 0 8.84 0 0 Z " fill="#004E86" transform="translate(748,187)"/>
<path d="M0 0 C1.32 0 2.64 0 4 0 C4 8.58 4 17.16 4 26 C2.68 26 1.36 26 0 26 C0 17.42 0 8.84 0 0 Z " fill="#004E86" transform="translate(684,187)"/>
<path d="M0 0 C1.67542976 0.28604898 3.34385343 0.61781233 5 1 C4.67 2.65 4.34 4.3 4 6 C3.01 6.33 2.02 6.66 1 7 C0.34 6.67 -0.32 6.34 -1 6 C-1.042721 4.33388095 -1.04063832 2.66617115 -1 1 C-0.67 0.67 -0.34 0.34 0 0 Z " fill="#004E86" transform="translate(684,176)"/>
<path d="M0 0 C1.2065625 0.0309375 1.2065625 0.0309375 2.4375 0.0625 C2.7675 1.0525 3.0975 2.0425 3.4375 3.0625 C2.4475 4.5475 2.4475 4.5475 1.4375 6.0625 C0.1175 6.0625 -1.2025 6.0625 -2.5625 6.0625 C-2.94468767 4.40635343 -3.27645102 2.73792976 -3.5625 1.0625 C-2.5625 0.0625 -2.5625 0.0625 0 0 Z " fill="#004E86" transform="translate(753.5625,231.9375)"/>
<path d="M0 0 C1.2065625 0.0309375 1.2065625 0.0309375 2.4375 0.0625 C2.4375 1.7125 2.4375 3.3625 2.4375 5.0625 C0.7875 5.3925 -0.8625 5.7225 -2.5625 6.0625 C-2.94468767 4.40635343 -3.27645102 2.73792976 -3.5625 1.0625 C-2.5625 0.0625 -2.5625 0.0625 0 0 Z " fill="#004E86" transform="translate(654.5625,231.9375)"/>
<path d="M0 0 C2.0625 0.4375 2.0625 0.4375 4 1 C4.33 2.32 4.66 3.64 5 5 C3.125 6.0625 3.125 6.0625 1 7 C0.34 6.67 -0.32 6.34 -1 6 C-1.042721 4.33388095 -1.04063832 2.66617115 -1 1 C-0.67 0.67 -0.34 0.34 0 0 Z " fill="#004E86" transform="translate(748,176)"/>
<path d="M0 0 C1.65 0.33 3.3 0.66 5 1 C4.67 2.65 4.34 4.3 4 6 C2.35 5.67 0.7 5.34 -1 5 C-0.67 3.35 -0.34 1.7 0 0 Z " fill="#004E86" transform="translate(706,287)"/>
</svg>
