<?xml version="1.0" encoding="UTF-8"?>
<svg version="1.1" xmlns="http://www.w3.org/2000/svg" width="1400" height="525">
<path d="M0 0 C22.11 0 44.22 0 67 0 C67 1.32 67 2.64 67 4 C70.96 4 74.92 4 79 4 C79 5.32 79 6.64 79 8 C81.64 8 84.28 8 87 8 C87 9.32 87 10.64 87 12 C88.65 12.33 90.3 12.66 92 13 C92 15.64 92 18.28 92 21 C93.32 21 94.64 21 96 21 C96 35.85 96 50.7 96 66 C96.99 66 97.98 66 99 66 C99 64.68 99 63.36 99 62 C101.64 62 104.28 62 107 62 C107 60.68 107 59.36 107 58 C108.32 58 109.64 58 111 58 C111.33 56.35 111.66 54.7 112 53 C114.31 53 116.62 53 119 53 C119.33 51.68 119.66 50.36 120 49 C122.64 49 125.28 49 128 49 C128 47.68 128 46.36 128 45 C136.25 45 144.5 45 153 45 C153 46.32 153 47.64 153 49 C154.32 49 155.64 49 157 49 C157 50.32 157 51.64 157 53 C158.32 53 159.64 53 161 53 C161 54.65 161 56.3 161 58 C162.65 58 164.3 58 166 58 C166 59.32 166 60.64 166 62 C167.32 62 168.64 62 170 62 C170 64.64 170 67.28 170 70 C171.32 70 172.64 70 174 70 C174 71.32 174 72.64 174 74 C175.32 74 176.64 74 178 74 C178 76.64 178 79.28 178 82 C179.32 82 180.64 82 182 82 C182 84.64 182 87.28 182 90 C183.32 90 184.64 90 186 90 C186 92.97 186 95.94 186 99 C187.32 99 188.64 99 190 99 C190 100.32 190 101.64 190 103 C191.32 103 192.64 103 194 103 C194 105.64 194 108.28 194 111 C195.32 111 196.64 111 198 111 C198 113.64 198 116.28 198 119 C199.32 119 200.64 119 202 119 C202 126.26 202 133.52 202 141 C200.68 141 199.36 141 198 141 C198 143.64 198 146.28 198 149 C196.68 149 195.36 149 194 149 C194 150.32 194 151.64 194 153 C192.68 153 191.36 153 190 153 C190 154.32 190 155.64 190 157 C188.68 157 187.36 157 186 157 C186 158.32 186 159.64 186 161 C183.36 161 180.72 161 178 161 C178 162.32 178 163.64 178 165 C175.36 165 172.72 165 170 165 C170 166.32 170 167.64 170 169 C168.35 169 166.7 169 165 169 C165 170.32 165 171.64 165 173 C162.36 173 159.72 173 157 173 C157 174.32 157 175.64 157 177 C159.97 177 162.94 177 166 177 C166 178.32 166 179.64 166 181 C168.64 181 171.28 181 174 181 C174 182.32 174 183.64 174 185 C176.64 185 179.28 185 182 185 C182 186.32 182 187.64 182 189 C183.32 189 184.64 189 186 189 C186 190.32 186 191.64 186 193 C188.64 193 191.28 193 194 193 C194 195.64 194 198.28 194 201 C195.32 201 196.64 201 198 201 C198 202.32 198 203.64 198 205 C199.32 205 200.64 205 202 205 C202 212.26 202 219.52 202 227 C200.68 227 199.36 227 198 227 C198 229.64 198 232.28 198 235 C196.68 235 195.36 235 194 235 C194 237.64 194 240.28 194 243 C192.68 243 191.36 243 190 243 C190 245.64 190 248.28 190 251 C188.68 251 187.36 251 186 251 C186 253.97 186 256.94 186 260 C184.68 260 183.36 260 182 260 C182 261.32 182 262.64 182 264 C180.68 264 179.36 264 178 264 C178 266.64 178 269.28 178 272 C176.68 272 175.36 272 174 272 C174 274.64 174 277.28 174 280 C172.68 280 171.36 280 170 280 C170 282.64 170 285.28 170 288 C168.68 288 167.36 288 166 288 C166 289.32 166 290.64 166 292 C164.35 292 162.7 292 161 292 C161 293.65 161 295.3 161 297 C159.68 297 158.36 297 157 297 C157 298.32 157 299.64 157 301 C153.04 301 149.08 301 145 301 C145 302.32 145 303.64 145 305 C142.03 305 139.06 305 136 305 C136 303.68 136 302.36 136 301 C132.04 301 128.08 301 124 301 C123.67 299.68 123.34 298.36 123 297 C120.36 297 117.72 297 115 297 C115 295.35 115 293.7 115 292 C112.36 292 109.72 292 107 292 C107 290.68 107 289.36 107 288 C105.68 288 104.36 288 103 288 C103 286.68 103 285.36 103 284 C100.69 284 98.38 284 96 284 C96 297.53 96 311.06 96 325 C94.68 325 93.36 325 92 325 C92 327.64 92 330.28 92 333 C90.68 333.33 89.36 333.66 88 334 C87.67 335.32 87.34 336.64 87 338 C85.68 338 84.36 338 83 338 C83 339.32 83 340.64 83 342 C81.68 342 80.36 342 79 342 C79 343.32 79 344.64 79 346 C48.97 346 18.94 346 -12 346 C-12 344.68 -12 343.36 -12 342 C-14.64 342 -17.28 342 -20 342 C-20 340.68 -20 339.36 -20 338 C-21.32 338 -22.64 338 -24 338 C-24 335.03 -24 332.06 -24 329 C-25.32 329 -26.64 329 -28 329 C-28 314.15 -28 299.3 -28 284 C-30.64 284 -33.28 284 -36 284 C-36 285.32 -36 286.64 -36 288 C-38.64 288 -41.28 288 -44 288 C-44 289.32 -44 290.64 -44 292 C-45.32 292 -46.64 292 -48 292 C-48.33 293.65 -48.66 295.3 -49 297 C-51.31 297 -53.62 297 -56 297 C-56 298.32 -56 299.64 -56 301 C-61.61 301 -67.22 301 -73 301 C-73 302.32 -73 303.64 -73 305 C-74.65 305 -76.3 305 -78 305 C-78 303.68 -78 302.36 -78 301 C-81.96 301 -85.92 301 -90 301 C-90 299.68 -90 298.36 -90 297 C-92.64 297 -95.28 297 -98 297 C-98 294.03 -98 291.06 -98 288 C-99.32 288 -100.64 288 -102 288 C-102 286.68 -102 285.36 -102 284 C-103.32 284 -104.64 284 -106 284 C-106 281.36 -106 278.72 -106 276 C-107.65 276 -109.3 276 -111 276 C-111 273.36 -111 270.72 -111 268 C-112.32 268 -113.64 268 -115 268 C-115 265.36 -115 262.72 -115 260 C-116.32 260 -117.64 260 -119 260 C-119 258.35 -119 256.7 -119 255 C-120.32 255 -121.64 255 -123 255 C-123 252.36 -123 249.72 -123 247 C-124.32 247 -125.64 247 -127 247 C-127 244.36 -127 241.72 -127 239 C-128.32 239 -129.64 239 -131 239 C-131 237.68 -131 236.36 -131 235 C-132.32 235 -133.64 235 -135 235 C-135 223.78 -135 212.56 -135 201 C-133.68 201 -132.36 201 -131 201 C-131 199.68 -131 198.36 -131 197 C-129.68 197 -128.36 197 -127 197 C-127 195.68 -127 194.36 -127 193 C-125.68 193 -124.36 193 -123 193 C-123 191.68 -123 190.36 -123 189 C-120.36 189 -117.72 189 -115 189 C-115 187.68 -115 186.36 -115 185 C-112.03 185 -109.06 185 -106 185 C-106 183.68 -106 182.36 -106 181 C-104.68 181 -103.36 181 -102 181 C-102 179.68 -102 178.36 -102 177 C-99.36 177 -96.72 177 -94 177 C-94 175.68 -94 174.36 -94 173 C-95.32 173 -96.64 173 -98 173 C-98 171.68 -98 170.36 -98 169 C-100.64 169 -103.28 169 -106 169 C-106 167.68 -106 166.36 -106 165 C-107.65 165 -109.3 165 -111 165 C-111 163.68 -111 162.36 -111 161 C-113.64 161 -116.28 161 -119 161 C-119 159.68 -119 158.36 -119 157 C-121.64 157 -124.28 157 -127 157 C-127 155.68 -127 154.36 -127 153 C-128.32 153 -129.64 153 -131 153 C-131 150.36 -131 147.72 -131 145 C-132.32 145 -133.64 145 -135 145 C-135 135.1 -135 125.2 -135 115 C-133.68 115 -132.36 115 -131 115 C-131 112.36 -131 109.72 -131 107 C-129.68 107 -128.36 107 -127 107 C-127 105.68 -127 104.36 -127 103 C-125.68 103 -124.36 103 -123 103 C-123 100.03 -123 97.06 -123 94 C-121.68 94 -120.36 94 -119 94 C-119 91.36 -119 88.72 -119 86 C-117.68 86 -116.36 86 -115 86 C-115 83.36 -115 80.72 -115 78 C-113.68 78 -112.36 78 -111 78 C-111 76.68 -111 75.36 -111 74 C-109.35 74 -107.7 74 -106 74 C-106 71.36 -106 68.72 -106 66 C-104.68 66 -103.36 66 -102 66 C-102 63.36 -102 60.72 -102 58 C-100.68 58 -99.36 58 -98 58 C-98 56.35 -98 54.7 -98 53 C-96.68 53 -95.36 53 -94 53 C-94 51.68 -94 50.36 -94 49 C-91.36 49 -88.72 49 -86 49 C-86 47.68 -86 46.36 -86 45 C-78.74 45 -71.48 45 -64 45 C-64 46.32 -64 47.64 -64 49 C-61.36 49 -58.72 49 -56 49 C-56 50.32 -56 51.64 -56 53 C-53.36 53 -50.72 53 -48 53 C-48 54.65 -48 56.3 -48 58 C-45.36 58 -42.72 58 -40 58 C-40 59.32 -40 60.64 -40 62 C-37.36 62 -34.72 62 -32 62 C-32 63.32 -32 64.64 -32 66 C-30.68 66 -29.36 66 -28 66 C-28 49.83 -28 33.66 -28 17 C-26.68 17 -25.36 17 -24 17 C-24 15.35 -24 13.7 -24 12 C-22.68 12 -21.36 12 -20 12 C-20 10.68 -20 9.36 -20 8 C-18.68 8 -17.36 8 -16 8 C-16 6.68 -16 5.36 -16 4 C-10.72 4 -5.44 4 0 4 C0 2.68 0 1.36 0 0 Z M1 30 C1 58.38 1 86.76 1 116 C-1.97 116 -4.94 116 -8 116 C-8 114.68 -8 113.36 -8 112 C-10.64 112 -13.28 112 -16 112 C-16 110.68 -16 109.36 -16 108 C-17.32 108 -18.64 108 -20 108 C-20 106.68 -20 105.36 -20 104 C-22.64 104 -25.28 104 -28 104 C-28 102.68 -28 101.36 -28 100 C-30.64 99.67 -33.28 99.34 -36 99 C-36.33 97.68 -36.66 96.36 -37 95 C-39.64 95 -42.28 95 -45 95 C-45 93.68 -45 92.36 -45 91 C-46.32 91 -47.64 91 -49 91 C-49 89.68 -49 88.36 -49 87 C-51.64 87 -54.28 87 -57 87 C-57 85.68 -57 84.36 -57 83 C-59.64 83 -62.28 83 -65 83 C-65 81.68 -65 80.36 -65 79 C-67.64 78.67 -70.28 78.34 -73 78 C-73.33 77.01 -73.66 76.02 -74 75 C-74.99 75 -75.98 75 -77 75 C-77 77.64 -77 80.28 -77 83 C-78.32 83 -79.64 83 -81 83 C-81 85.64 -81 88.28 -81 91 C-82.32 91 -83.64 91 -85 91 C-85 92.32 -85 93.64 -85 95 C-86.32 95 -87.64 95 -89 95 C-89 97.97 -89 100.94 -89 104 C-90.32 104 -91.64 104 -93 104 C-93 106.64 -93 109.28 -93 112 C-94.32 112 -95.64 112 -97 112 C-97 114.64 -97 117.28 -97 120 C-98.32 120 -99.64 120 -101 120 C-101 121.32 -101 122.64 -101 124 C-102.32 124 -103.64 124 -105 124 C-105 126.31 -105 128.62 -105 131 C-104.01 131.33 -103.02 131.66 -102 132 C-101.3125 134.0625 -101.3125 134.0625 -101 136 C-98.36 136 -95.72 136 -93 136 C-93 137.32 -93 138.64 -93 140 C-91.68 140 -90.36 140 -89 140 C-89 141.32 -89 142.64 -89 144 C-86.36 144 -83.72 144 -81 144 C-81 145.32 -81 146.64 -81 148 C-78.36 148 -75.72 148 -73 148 C-73 149.32 -73 150.64 -73 152 C-70.03 152 -67.06 152 -64 152 C-64 153.32 -64 154.64 -64 156 C-62.68 156 -61.36 156 -60 156 C-60 157.32 -60 158.64 -60 160 C-57.36 160 -54.72 160 -52 160 C-52 161.32 -52 162.64 -52 164 C-49.36 164 -46.72 164 -44 164 C-44 165.32 -44 166.64 -44 168 C-42.68 168 -41.36 168 -40 168 C-40 169.32 -40 170.64 -40 172 C-38.68 172 -37.36 172 -36 172 C-36 173.98 -36 175.96 -36 178 C-37.32 178 -38.64 178 -40 178 C-40 179.32 -40 180.64 -40 182 C-42.64 182 -45.28 182 -48 182 C-48 183.32 -48 184.64 -48 186 C-50.64 186 -53.28 186 -56 186 C-56 187.32 -56 188.64 -56 190 C-57.32 190 -58.64 190 -60 190 C-60 191.32 -60 192.64 -60 194 C-62.97 194 -65.94 194 -69 194 C-69 195.32 -69 196.64 -69 198 C-71.64 198 -74.28 198 -77 198 C-77 199.32 -77 200.64 -77 202 C-79.64 202 -82.28 202 -85 202 C-85 203.32 -85 204.64 -85 206 C-86.32 206 -87.64 206 -89 206 C-89 207.32 -89 208.64 -89 210 C-91.64 210 -94.28 210 -97 210 C-97 211.32 -97 212.64 -97 214 C-99.64 214 -102.28 214 -105 214 C-105 216.64 -105 219.28 -105 222 C-103.68 222 -102.36 222 -101 222 C-101 224.64 -101 227.28 -101 230 C-99.68 230 -98.36 230 -97 230 C-97 232.64 -97 235.28 -97 238 C-95.68 238 -94.36 238 -93 238 C-93 239.32 -93 240.64 -93 242 C-91.68 242 -90.36 242 -89 242 C-89 244.64 -89 247.28 -89 250 C-87.68 250 -86.36 250 -85 250 C-85 252.97 -85 255.94 -85 259 C-83.68 259 -82.36 259 -81 259 C-81 261.64 -81 264.28 -81 267 C-79.68 267 -78.36 267 -77 267 C-77 268.32 -77 269.64 -77 271 C-74.36 271 -71.72 271 -69 271 C-69 269.68 -69 268.36 -69 267 C-66.36 267 -63.72 267 -61 267 C-61 265.68 -61 264.36 -61 263 C-58.36 263 -55.72 263 -53 263 C-53 261.68 -53 260.36 -53 259 C-50.36 259 -47.72 259 -45 259 C-45 257.68 -45 256.36 -45 255 C-43.68 255 -42.36 255 -41 255 C-41 253.68 -41 252.36 -41 251 C-38.36 250.67 -35.72 250.34 -33 250 C-32.67 249.01 -32.34 248.02 -32 247 C-29.36 246.67 -26.72 246.34 -24 246 C-24 244.68 -24 243.36 -24 242 C-21.36 242 -18.72 242 -16 242 C-16 240.68 -16 239.36 -16 238 C-14.68 238 -13.36 238 -12 238 C-12 236.68 -12 235.36 -12 234 C-7.71 234 -3.42 234 1 234 C1 261.06 1 288.12 1 316 C22.45 316 43.9 316 66 316 C66 288.94 66 261.88 66 234 C68.97 234 71.94 234 75 234 C75 235.32 75 236.64 75 238 C77.64 238 80.28 238 83 238 C83 239.32 83 240.64 83 242 C85.64 242.33 88.28 242.66 91 243 C91.33 243.99 91.66 244.98 92 246 C93.32 246 94.64 246 96 246 C96 247.32 96 248.64 96 250 C98.64 250 101.28 250 104 250 C104 251.65 104 253.3 104 255 C106.64 255 109.28 255 112 255 C112 256.32 112 257.64 112 259 C114.64 259 117.28 259 120 259 C120 260.32 120 261.64 120 263 C121.32 263 122.64 263 124 263 C124 264.32 124 265.64 124 267 C126.97 267 129.94 267 133 267 C133 268.32 133 269.64 133 271 C136.63 271 140.26 271 144 271 C144 268.36 144 265.72 144 263 C145.32 263 146.64 263 148 263 C148 260.36 148 257.72 148 255 C149.32 255 150.64 255 152 255 C152.33 252.36 152.66 249.72 153 247 C153.99 246.67 154.98 246.34 156 246 C156 244.68 156 243.36 156 242 C157.32 242 158.64 242 160 242 C160 239.36 160 236.72 160 234 C161.65 234 163.3 234 165 234 C165 231.36 165 228.72 165 226 C166.32 226 167.64 226 169 226 C169 222.04 169 218.08 169 214 C167.68 214 166.36 214 165 214 C165 212.68 165 211.36 165 210 C162.03 210 159.06 210 156 210 C156 208.68 156 207.36 156 206 C153.36 206 150.72 206 148 206 C148 204.68 148 203.36 148 202 C145.36 202 142.72 202 140 202 C140 200.68 140 199.36 140 198 C138.68 198 137.36 198 136 198 C136 196.68 136 195.36 136 194 C133.36 194 130.72 194 128 194 C128 192.68 128 191.36 128 190 C125.03 190 122.06 190 119 190 C119 188.68 119 187.36 119 186 C116.36 186 113.72 186 111 186 C111 184.68 111 183.36 111 182 C109.68 182 108.36 182 107 182 C107 180.68 107 179.36 107 178 C105.68 178 104.36 178 103 178 C103 174.7 103 171.4 103 168 C105.64 168 108.28 168 111 168 C111 166.68 111 165.36 111 164 C113.64 164 116.28 164 119 164 C119 162.68 119 161.36 119 160 C120.65 160 122.3 160 124 160 C124 158.68 124 157.36 124 156 C126.64 156 129.28 156 132 156 C132 154.68 132 153.36 132 152 C134.64 152 137.28 152 140 152 C140 150.68 140 149.36 140 148 C141.32 148 142.64 148 144 148 C144 146.68 144 145.36 144 144 C146.64 144 149.28 144 152 144 C152 142.68 152 141.36 152 140 C154.64 140 157.28 140 160 140 C160 138.68 160 137.36 160 136 C162.97 136 165.94 136 169 136 C169 134.35 169 132.7 169 131 C170.32 131 171.64 131 173 131 C173 130.01 173 129.02 173 128 C171.68 128 170.36 128 169 128 C169 125.36 169 122.72 169 120 C167.68 120 166.36 120 165 120 C165 118.68 165 117.36 165 116 C163.68 115.67 162.36 115.34 161 115 C160.67 112.69 160.34 110.38 160 108 C158.68 108 157.36 108 156 108 C156 105.36 156 102.72 156 100 C154.68 100 153.36 100 152 100 C152 98.35 152 96.7 152 95 C150.68 95 149.36 95 148 95 C148 92.36 148 89.72 148 87 C146.68 87 145.36 87 144 87 C144 84.36 144 81.72 144 79 C142.68 79 141.36 79 140 79 C140 77.68 140 76.36 140 75 C139.01 75 138.02 75 137 75 C137 76.32 137 77.64 137 79 C134.36 79 131.72 79 129 79 C129 80.32 129 81.64 129 83 C127.35 83 125.7 83 124 83 C124 84.32 124 85.64 124 87 C121.36 87 118.72 87 116 87 C116 88.32 116 89.64 116 91 C113.36 91 110.72 91 108 91 C108 92.32 108 93.64 108 95 C105.36 95 102.72 95 100 95 C100 96.65 100 98.3 100 100 C98.68 100 97.36 100 96 100 C95.67 100.99 95.34 101.98 95 103 C91.535 103.495 91.535 103.495 88 104 C87.67 104.99 87.34 105.98 87 107 C84.36 107.33 81.72 107.66 79 108 C79 109.32 79 110.64 79 112 C77.68 112 76.36 112 75 112 C75 113.32 75 114.64 75 116 C72.03 116 69.06 116 66 116 C66 88.94 66 61.88 66 34 C64.68 34 63.36 34 62 34 C62 32.68 62 31.36 62 30 C41.87 30 21.74 30 1 30 Z " fill="#10285E" transform="translate(303,87)"/>
<path d="M0 0 C10.89 0 21.78 0 33 0 C33 1.32 33 2.64 33 4 C36.96 4 40.92 4 45 4 C45 5.32 45 6.64 45 8 C47.64 8 50.28 8 53 8 C53 9.32 53 10.64 53 12 C55.475 12.495 55.475 12.495 58 13 C58 15.64 58 18.28 58 21 C59.32 21 60.64 21 62 21 C62 35.85 62 50.7 62 66 C62.99 66 63.98 66 65 66 C65 64.68 65 63.36 65 62 C67.64 62 70.28 62 73 62 C73 60.68 73 59.36 73 58 C74.32 58 75.64 58 77 58 C77.33 56.35 77.66 54.7 78 53 C80.31 53 82.62 53 85 53 C85.33 51.68 85.66 50.36 86 49 C88.64 49 91.28 49 94 49 C94 47.68 94 46.36 94 45 C102.25 45 110.5 45 119 45 C119 46.32 119 47.64 119 49 C120.32 49 121.64 49 123 49 C123 50.32 123 51.64 123 53 C124.32 53 125.64 53 127 53 C127 54.65 127 56.3 127 58 C128.65 58 130.3 58 132 58 C132 59.32 132 60.64 132 62 C133.32 62 134.64 62 136 62 C136 64.64 136 67.28 136 70 C137.32 70 138.64 70 140 70 C140 71.32 140 72.64 140 74 C141.32 74 142.64 74 144 74 C144 76.64 144 79.28 144 82 C145.32 82 146.64 82 148 82 C148 84.64 148 87.28 148 90 C149.32 90 150.64 90 152 90 C152 92.97 152 95.94 152 99 C153.32 99 154.64 99 156 99 C156 100.32 156 101.64 156 103 C157.32 103 158.64 103 160 103 C160 105.64 160 108.28 160 111 C161.32 111 162.64 111 164 111 C164 113.64 164 116.28 164 119 C165.32 119 166.64 119 168 119 C168 126.26 168 133.52 168 141 C166.68 141 165.36 141 164 141 C164 143.64 164 146.28 164 149 C162.68 149 161.36 149 160 149 C160 150.32 160 151.64 160 153 C158.68 153 157.36 153 156 153 C156 154.32 156 155.64 156 157 C154.68 157 153.36 157 152 157 C152 158.32 152 159.64 152 161 C149.36 161 146.72 161 144 161 C144 162.32 144 163.64 144 165 C141.36 165 138.72 165 136 165 C136 166.32 136 167.64 136 169 C134.35 169 132.7 169 131 169 C131 170.32 131 171.64 131 173 C128.36 173 125.72 173 123 173 C123 174.32 123 175.64 123 177 C125.97 177 128.94 177 132 177 C132 178.32 132 179.64 132 181 C134.64 181 137.28 181 140 181 C140 182.32 140 183.64 140 185 C142.64 185 145.28 185 148 185 C148 186.32 148 187.64 148 189 C149.32 189 150.64 189 152 189 C152 190.32 152 191.64 152 193 C154.64 193 157.28 193 160 193 C160 195.64 160 198.28 160 201 C161.32 201 162.64 201 164 201 C164 202.32 164 203.64 164 205 C165.32 205 166.64 205 168 205 C168 212.26 168 219.52 168 227 C166.68 227 165.36 227 164 227 C164 229.64 164 232.28 164 235 C162.68 235 161.36 235 160 235 C160 237.64 160 240.28 160 243 C158.68 243 157.36 243 156 243 C156 245.64 156 248.28 156 251 C154.68 251 153.36 251 152 251 C152 253.97 152 256.94 152 260 C150.68 260 149.36 260 148 260 C148 261.32 148 262.64 148 264 C146.68 264 145.36 264 144 264 C144 266.64 144 269.28 144 272 C142.68 272 141.36 272 140 272 C140 274.64 140 277.28 140 280 C138.68 280 137.36 280 136 280 C136 282.64 136 285.28 136 288 C134.68 288 133.36 288 132 288 C132 289.32 132 290.64 132 292 C130.35 292 128.7 292 127 292 C127 293.65 127 295.3 127 297 C125.68 297 124.36 297 123 297 C123 298.32 123 299.64 123 301 C119.04 301 115.08 301 111 301 C111 302.32 111 303.64 111 305 C108.03 305 105.06 305 102 305 C102 303.68 102 302.36 102 301 C98.04 301 94.08 301 90 301 C89.67 299.68 89.34 298.36 89 297 C86.36 297 83.72 297 81 297 C81 295.35 81 293.7 81 292 C78.36 292 75.72 292 73 292 C73 290.68 73 289.36 73 288 C71.68 288 70.36 288 69 288 C69 286.68 69 285.36 69 284 C66.69 284 64.38 284 62 284 C62 297.53 62 311.06 62 325 C60.68 325 59.36 325 58 325 C58 327.64 58 330.28 58 333 C56.68 333.33 55.36 333.66 54 334 C53.67 335.32 53.34 336.64 53 338 C51.68 338 50.36 338 49 338 C49 339.32 49 340.64 49 342 C47.68 342 46.36 342 45 342 C45 343.32 45 344.64 45 346 C30.15 346 15.3 346 0 346 C0 336.1 0 326.2 0 316 C10.56 316 21.12 316 32 316 C32 288.94 32 261.88 32 234 C34.97 234 37.94 234 41 234 C41 235.32 41 236.64 41 238 C43.64 238 46.28 238 49 238 C49 239.32 49 240.64 49 242 C51.64 242 54.28 242 57 242 C57.33 243.32 57.66 244.64 58 246 C59.32 246 60.64 246 62 246 C62 247.32 62 248.64 62 250 C64.64 250 67.28 250 70 250 C70 251.65 70 253.3 70 255 C72.64 255 75.28 255 78 255 C78 256.32 78 257.64 78 259 C80.64 259 83.28 259 86 259 C86 260.32 86 261.64 86 263 C87.32 263 88.64 263 90 263 C90 264.32 90 265.64 90 267 C92.97 267 95.94 267 99 267 C99 268.32 99 269.64 99 271 C102.63 271 106.26 271 110 271 C110 268.36 110 265.72 110 263 C111.32 263 112.64 263 114 263 C114 260.36 114 257.72 114 255 C115.32 255 116.64 255 118 255 C118 252.36 118 249.72 118 247 C119.32 246.67 120.64 246.34 122 246 C122 244.68 122 243.36 122 242 C123.32 242 124.64 242 126 242 C126 239.36 126 236.72 126 234 C127.65 234 129.3 234 131 234 C131 231.36 131 228.72 131 226 C132.32 226 133.64 226 135 226 C135 222.04 135 218.08 135 214 C133.68 214 132.36 214 131 214 C131 212.68 131 211.36 131 210 C128.03 210 125.06 210 122 210 C122 208.68 122 207.36 122 206 C119.36 206 116.72 206 114 206 C114 204.68 114 203.36 114 202 C111.36 202 108.72 202 106 202 C106 200.68 106 199.36 106 198 C104.68 198 103.36 198 102 198 C102 196.68 102 195.36 102 194 C99.36 194 96.72 194 94 194 C94 192.68 94 191.36 94 190 C91.03 190 88.06 190 85 190 C85 188.68 85 187.36 85 186 C82.36 186 79.72 186 77 186 C77 184.68 77 183.36 77 182 C75.68 182 74.36 182 73 182 C73 180.68 73 179.36 73 178 C71.68 178 70.36 178 69 178 C69 174.7 69 171.4 69 168 C71.64 168 74.28 168 77 168 C77 166.68 77 165.36 77 164 C79.64 164 82.28 164 85 164 C85 162.68 85 161.36 85 160 C86.65 160 88.3 160 90 160 C90 158.68 90 157.36 90 156 C92.64 156 95.28 156 98 156 C98 154.68 98 153.36 98 152 C100.64 152 103.28 152 106 152 C106 150.68 106 149.36 106 148 C107.32 148 108.64 148 110 148 C110 146.68 110 145.36 110 144 C112.64 144 115.28 144 118 144 C118 142.68 118 141.36 118 140 C120.64 140 123.28 140 126 140 C126 138.68 126 137.36 126 136 C128.97 136 131.94 136 135 136 C135 134.35 135 132.7 135 131 C136.32 131 137.64 131 139 131 C139 130.01 139 129.02 139 128 C137.68 128 136.36 128 135 128 C135 125.36 135 122.72 135 120 C133.68 120 132.36 120 131 120 C131 118.68 131 117.36 131 116 C129.35 115.67 127.7 115.34 126 115 C126 112.69 126 110.38 126 108 C124.68 108 123.36 108 122 108 C122 105.36 122 102.72 122 100 C120.68 100 119.36 100 118 100 C118 98.35 118 96.7 118 95 C116.68 95 115.36 95 114 95 C114 92.36 114 89.72 114 87 C112.68 87 111.36 87 110 87 C110 84.36 110 81.72 110 79 C108.68 79 107.36 79 106 79 C106 77.68 106 76.36 106 75 C105.01 75 104.02 75 103 75 C103 76.32 103 77.64 103 79 C100.36 79 97.72 79 95 79 C95 80.32 95 81.64 95 83 C93.35 83 91.7 83 90 83 C90 84.32 90 85.64 90 87 C87.36 87 84.72 87 82 87 C82 88.32 82 89.64 82 91 C79.36 91 76.72 91 74 91 C74 92.32 74 93.64 74 95 C71.36 95 68.72 95 66 95 C66 96.65 66 98.3 66 100 C64.68 100 63.36 100 62 100 C61.505 101.98 61.505 101.98 61 104 C58.69 104 56.38 104 54 104 C53.505 105.98 53.505 105.98 53 108 C50.36 108 47.72 108 45 108 C45 109.32 45 110.64 45 112 C43.68 112 42.36 112 41 112 C41 113.32 41 114.64 41 116 C38.03 116 35.06 116 32 116 C32 88.94 32 61.88 32 34 C30.68 34 29.36 34 28 34 C28 32.68 28 31.36 28 30 C18.76 30 9.52 30 0 30 C0 20.1 0 10.2 0 0 Z " fill="#31A7D7" transform="translate(337,87)"/>
<path d="M0 0 C7.26 0 14.52 0 22 0 C22 4.29 22 8.58 22 13 C23.32 13 24.64 13 26 13 C26 16.96 26 20.92 26 25 C27.32 25 28.64 25 30 25 C30 27.64 30 30.28 30 33 C30.99 33 31.98 33 33 33 C33 29.04 33 25.08 33 21 C34.32 21 35.64 21 37 21 C37 17.04 37 13.08 37 9 C38.65 8.67 40.3 8.34 42 8 C42 5.36 42 2.72 42 0 C47.61 0 53.22 0 59 0 C59 4.29 59 8.58 59 13 C59.99 13 60.98 13 62 13 C62 10.03 62 7.06 62 4 C63.32 4 64.64 4 66 4 C66 2.68 66 1.36 66 0 C75.9 0 85.8 0 96 0 C96 1.32 96 2.64 96 4 C98.64 4 101.28 4 104 4 C104 7.3 104 10.6 104 14 C102.68 14 101.36 14 100 14 C100 15.32 100 16.64 100 18 C98.68 18 97.36 18 96 18 C96 19.32 96 20.64 96 22 C94.35 22 92.7 22 91 22 C91 20.68 91 19.36 91 18 C87.04 18 83.08 18 79 18 C79 18.99 79 19.98 79 21 C81.97 21 84.94 21 88 21 C88 22.32 88 23.64 88 25 C91.96 25 95.92 25 100 25 C100 26.32 100 27.64 100 29 C101.32 29 102.64 29 104 29 C104 37.58 104 46.16 104 55 C102.68 55 101.36 55 100 55 C100 56.32 100 57.64 100 59 C98.68 59 97.36 59 96 59 C96 60.32 96 61.64 96 63 C86.1 63 76.2 63 66 63 C66 61.68 66 60.36 66 59 C64.68 59 63.36 59 62 59 C62 57.68 62 56.36 62 55 C60.68 55 59.36 55 58 55 C58 52.03 58 49.06 58 46 C59.98 45.505 59.98 45.505 62 45 C62 43.68 62 42.36 62 41 C66.29 41 70.58 41 75 41 C75 42.32 75 43.64 75 45 C78.96 45 82.92 45 87 45 C87 44.01 87 43.02 87 42 C85.68 42 84.36 42 83 42 C83 40.68 83 39.36 83 38 C78.71 38 74.42 38 70 38 C70 36.68 70 35.36 70 34 C67.36 34 64.72 34 62 34 C62 31.36 62 28.72 62 26 C60.68 26 59.36 26 58 26 C58 22.04 58 18.08 58 14 C57.01 14 56.02 14 55 14 C55 17.96 55 21.92 55 26 C53.68 26 52.36 26 51 26 C51 29.96 51 33.92 51 38 C49.68 38 48.36 38 47 38 C47 41.96 47 45.92 47 50 C45.35 50 43.7 50 42 50 C42 52.97 42 55.94 42 59 C40.68 59 39.36 59 38 59 C38 62.96 38 66.92 38 71 C36.68 71 35.36 71 34 71 C34 73.64 34 76.28 34 79 C32.68 79 31.36 79 30 79 C30 81.31 30 83.62 30 86 C33.96 86 37.92 86 42 86 C42 91.94 42 97.88 42 104 C40.68 104 39.36 104 38 104 C38 105.32 38 106.64 38 108 C33.71 108 29.42 108 25 108 C25 106.68 25 105.36 25 104 C23.68 104 22.36 104 21 104 C21 99.71 21 95.42 21 91 C22.32 91 23.64 91 25 91 C25 89.68 25 88.36 25 87 C16.75 87 8.5 87 0 87 C0 83.04 0 79.08 0 75 C2.475 74.505 2.475 74.505 5 74 C5 72.68 5 71.36 5 70 C8.96 70 12.92 70 17 70 C17 68.68 17 67.36 17 66 C18.32 66 19.64 66 21 66 C21 62.37 21 58.74 21 55 C19.68 55 18.36 55 17 55 C17 50.71 17 46.42 17 42 C15.68 42 14.36 42 13 42 C13 39.36 13 36.72 13 34 C11.68 34 10.36 34 9 34 C9 30.04 9 26.08 9 22 C7.68 22 6.36 22 5 22 C5 17.71 5 13.42 5 9 C3.35 9 1.7 9 0 9 C0 6.03 0 3.06 0 0 Z " fill="#10285E" transform="translate(697,173)"/>
<path d="M0 0 C8.25 0 16.5 0 25 0 C25 1.32 25 2.64 25 4 C27.64 4 30.28 4 33 4 C33 5.65 33 7.3 33 9 C34.32 9 35.64 9 37 9 C37 11.97 37 14.94 37 18 C35.68 18 34.36 18 33 18 C33 19.32 33 20.64 33 22 C31.68 22 30.36 22 29 22 C29 23.32 29 24.64 29 26 C26.03 26 23.06 26 20 26 C20 24.68 20 23.36 20 22 C18.68 22 17.36 22 16 22 C16 20.68 16 19.36 16 18 C13.36 18 10.72 18 8 18 C8 19.32 8 20.64 8 22 C6.68 22 5.36 22 4 22 C4 23.32 4 24.64 4 26 C2.68 26 1.36 26 0 26 C0 26.99 0 27.98 0 29 C1.32 29 2.64 29 4 29 C4 30.32 4 31.64 4 33 C6.64 33 9.28 33 12 33 C12.495 34.98 12.495 34.98 13 37 C16.96 37 20.92 37 25 37 C25 38.32 25 39.64 25 41 C26.32 41 27.64 41 29 41 C29 42.65 29 44.3 29 46 C30.32 46 31.64 46 33 46 C33 47.32 33 48.64 33 50 C34.32 50 35.64 50 37 50 C37 59.57 37 69.14 37 79 C35.68 79 34.36 79 33 79 C33 80.32 33 81.64 33 83 C31.68 83 30.36 83 29 83 C29 84.65 29 86.3 29 88 C27.68 88 26.36 88 25 88 C24.505 89.98 24.505 89.98 24 92 C13.11 92 2.22 92 -9 92 C-9 90.68 -9 89.36 -9 88 C-12.96 87.505 -12.96 87.505 -17 87 C-17 85.68 -17 84.36 -17 83 C-18.32 83 -19.64 83 -21 83 C-21 80.03 -21 77.06 -21 74 C-19.68 74 -18.36 74 -17 74 C-17 72.68 -17 71.36 -17 70 C-15.68 70 -14.36 70 -13 70 C-13 68.68 -13 67.36 -13 66 C-10.03 66 -7.06 66 -4 66 C-4 67.32 -4 68.64 -4 70 C-1.36 70 1.28 70 4 70 C4 71.32 4 72.64 4 74 C6.64 74 9.28 74 12 74 C12 72.68 12 71.36 12 70 C13.32 70 14.64 70 16 70 C16 68.68 16 67.36 16 66 C17.32 66 18.64 66 20 66 C20 65.01 20 64.02 20 63 C18.68 63 17.36 63 16 63 C16 61.68 16 60.36 16 59 C14.68 59 13.36 59 12 59 C12 57.68 12 56.36 12 55 C7.71 55 3.42 55 -1 55 C-1 53.68 -1 52.36 -1 51 C-3.64 51 -6.28 51 -9 51 C-9 49.35 -9 47.7 -9 46 C-10.32 46 -11.64 46 -13 46 C-13 44.68 -13 43.36 -13 42 C-14.32 42 -15.64 42 -17 42 C-17 33.75 -17 25.5 -17 17 C-15.68 17 -14.36 17 -13 17 C-13 14.36 -13 11.72 -13 9 C-11.68 9 -10.36 9 -9 9 C-8.67 7.35 -8.34 5.7 -8 4 C-5.69 4 -3.38 4 -1 4 C-0.67 2.68 -0.34 1.36 0 0 Z " fill="#10285E" transform="translate(612,255)"/>
<path d="M0 0 C6.93 0 13.86 0 21 0 C21 14.85 21 29.7 21 45 C22.32 45 23.64 45 25 45 C25 43.68 25 42.36 25 41 C26.32 41 27.64 41 29 41 C29 39.68 29 38.36 29 37 C30.32 37 31.64 37 33 37 C33 35.68 33 34.36 33 33 C39.93 33 46.86 33 54 33 C54 35.97 54 38.94 54 42 C52.68 42 51.36 42 50 42 C50 43.32 50 44.64 50 46 C48.68 46 47.36 46 46 46 C46 47.32 46 48.64 46 50 C44.68 50 43.36 50 42 50 C42 51.65 42 53.3 42 55 C40.68 55 39.36 55 38 55 C38 58.63 38 62.26 38 66 C39.32 66 40.64 66 42 66 C42 67.32 42 68.64 42 70 C43.32 70 44.64 70 46 70 C46 72.64 46 75.28 46 78 C47.32 78 48.64 78 50 78 C50 79.32 50 80.64 50 82 C51.32 82 52.64 82 54 82 C54 83.65 54 85.3 54 87 C55.32 87 56.64 87 58 87 C58 89.97 58 92.94 58 96 C49.75 96 41.5 96 33 96 C33 93.03 33 90.06 33 87 C31.68 87 30.36 87 29 87 C29 85.68 29 84.36 29 83 C27.68 83 26.36 83 25 83 C25 80.36 25 77.72 25 75 C23.68 75 22.36 75 21 75 C21 81.93 21 88.86 21 96 C14.07 96 7.14 96 0 96 C0 64.32 0 32.64 0 0 Z " fill="#10285E" transform="translate(1067,251)"/>
<path d="M0 0 C15.18 0 30.36 0 46 0 C46 1.32 46 2.64 46 4 C47.32 4 48.64 4 50 4 C50 5.32 50 6.64 50 8 C51.32 8 52.64 8 54 8 C54 10.97 54 13.94 54 17 C55.32 17 56.64 17 58 17 C58 26.57 58 36.14 58 46 C56.68 46 55.36 46 54 46 C54 48.64 54 51.28 54 54 C52.68 54 51.36 54 50 54 C49.67 55.65 49.34 57.3 49 59 C46.69 59 44.38 59 42 59 C42 60.32 42 61.64 42 63 C34.74 63 27.48 63 20 63 C20 61.68 20 60.36 20 59 C19.01 59 18.02 59 17 59 C17 68.24 17 77.48 17 87 C11.39 87 5.78 87 0 87 C0 58.29 0 29.58 0 0 Z M21 17 C21 18.65 21 20.3 21 22 C19.68 22 18.36 22 17 22 C17 28.27 17 34.54 17 41 C19.64 41 22.28 41 25 41 C25 42.32 25 43.64 25 45 C27.31 45 29.62 45 32 45 C32 43.68 32 42.36 32 41 C33.65 41 35.3 41 37 41 C37 39.68 37 38.36 37 37 C38.32 37 39.64 37 41 37 C41 33.37 41 29.74 41 26 C39.68 26 38.36 26 37 26 C37 24.68 37 23.36 37 22 C35.68 21.67 34.36 21.34 33 21 C32.67 19.68 32.34 18.36 32 17 C28.37 17 24.74 17 21 17 Z " fill="#10285E" transform="translate(780,284)"/>
<path d="M0 0 C5.61 0 11.22 0 17 0 C17 16.5 17 33 17 50 C17.99 50 18.98 50 20 50 C20 48.35 20 46.7 20 45 C21.32 45 22.64 45 24 45 C24 43.68 24 42.36 24 41 C25.32 41 26.64 41 28 41 C28 39.68 28 38.36 28 37 C29.65 37 31.3 37 33 37 C33 35.68 33 34.36 33 33 C39.93 33 46.86 33 54 33 C54 35.97 54 38.94 54 42 C52.68 42 51.36 42 50 42 C50 43.32 50 44.64 50 46 C48.68 46 47.36 46 46 46 C46 47.32 46 48.64 46 50 C44.68 50 43.36 50 42 50 C42 51.65 42 53.3 42 55 C40.68 55 39.36 55 38 55 C38 56.32 38 57.64 38 59 C36.68 59 35.36 59 34 59 C34 59.99 34 60.98 34 62 C35.32 62 36.64 62 38 62 C38 64.64 38 67.28 38 70 C39.32 70 40.64 70 42 70 C42 71.32 42 72.64 42 74 C43.32 74 44.64 74 46 74 C46 75.32 46 76.64 46 78 C47.32 78 48.64 78 50 78 C50 80.64 50 83.28 50 86 C51.32 86 52.64 86 54 86 C54 89.3 54 92.6 54 96 C47.07 96 40.14 96 33 96 C33 94.68 33 93.36 33 92 C31.35 91.67 29.7 91.34 28 91 C28 88.36 28 85.72 28 83 C26.68 83 25.36 83 24 83 C24 81.68 24 80.36 24 79 C22.68 79 21.36 79 20 79 C20 77.68 20 76.36 20 75 C19.01 75 18.02 75 17 75 C17 81.93 17 88.86 17 96 C11.39 96 5.78 96 0 96 C0 64.32 0 32.64 0 0 Z " fill="#10285E" transform="translate(903,251)"/>
<path d="M0 0 C11.22 0 22.44 0 34 0 C34 1.32 34 2.64 34 4 C35.32 4 36.64 4 38 4 C38 8.29 38 12.58 38 17 C39.32 17 40.64 17 42 17 C42 32.18 42 47.36 42 63 C36.39 63 30.78 63 25 63 C25 61.68 25 60.36 25 59 C24.01 59 23.02 59 22 59 C22 60.32 22 61.64 22 63 C15.07 63 8.14 63 1 63 C0.67 61.68 0.34 60.36 0 59 C-2.31 59 -4.62 59 -7 59 C-7.33 57.35 -7.66 55.7 -8 54 C-9.32 54 -10.64 54 -12 54 C-12 47.07 -12 40.14 -12 33 C-10.68 33 -9.36 33 -8 33 C-8 31.68 -8 30.36 -8 29 C-6.68 29 -5.36 29 -4 29 C-4 27.68 -4 26.36 -4 25 C-1.03 25 1.94 25 5 25 C5 24.01 5 23.02 5 22 C3.700625 22.020625 2.40125 22.04125 1.0625 22.0625 C-0.29165633 22.08399454 -1.64756083 22.07148199 -3 22 C-4 21 -4 21 -4.09765625 19.15234375 C-4.06510417 17.1015625 -4.03255208 15.05078125 -4 13 C-5.32 13 -6.64 13 -8 13 C-8 10.03 -8 7.06 -8 4 C-5.36 4 -2.72 4 0 4 C0 2.68 0 1.36 0 0 Z M14 13 C14 14.32 14 15.64 14 17 C11.36 17 8.72 17 6 17 C6 18.32 6 19.64 6 21 C10.95 21 15.9 21 21 21 C21 19.68 21 18.36 21 17 C19.68 17 18.36 17 17 17 C17 15.68 17 14.36 17 13 C16.01 13 15.02 13 14 13 Z M10 38 C10 40.31 10 42.62 10 45 C13.63 45 17.26 45 21 45 C21 42.69 21 40.38 21 38 C17.37 38 13.74 38 10 38 Z " fill="#10285E" transform="translate(853,284)"/>
<path d="M0 0 C5.94 0 11.88 0 18 0 C18 1.32 18 2.64 18 4 C19.32 4 20.64 4 22 4 C22 8.29 22 12.58 22 17 C23.32 17 24.64 17 26 17 C26 20.96 26 24.92 26 29 C28.31 29 30.62 29 33 29 C33 25.04 33 21.08 33 17 C34.32 17 35.64 17 37 17 C37 12.71 37 8.42 37 4 C38.32 4 39.64 4 41 4 C41 2.68 41 1.36 41 0 C46.94 0 52.88 0 59 0 C59 2.97 59 5.94 59 9 C57.68 9 56.36 9 55 9 C55 12.96 55 16.92 55 21 C53.68 21.33 52.36 21.66 51 22 C51 25.63 51 29.26 51 33 C48.525 33.495 48.525 33.495 46 34 C46 37.96 46 41.92 46 46 C44.68 46 43.36 46 42 46 C42 48.64 42 51.28 42 54 C40.68 54 39.36 54 38 54 C38 58.29 38 62.58 38 67 C36.68 67 35.36 67 34 67 C34 70.96 34 74.92 34 79 C32.68 79 31.36 79 30 79 C30 80.32 30 81.64 30 83 C28.68 83 27.36 83 26 83 C26 84.32 26 85.64 26 87 C17.42 87 8.84 87 0 87 C0 81.39 0 75.78 0 70 C5.61 70 11.22 70 17 70 C17 67.36 17 64.72 17 62 C18.32 62 19.64 62 21 62 C21 60.68 21 59.36 21 58 C19.68 58 18.36 58 17 58 C17 54.04 17 50.08 17 46 C15.68 46 14.36 46 13 46 C13 43.36 13 40.72 13 38 C11.68 38 10.36 38 9 38 C9 34.04 9 30.08 9 26 C7.35 25.67 5.7 25.34 4 25 C4 21.04 4 17.08 4 13 C2.68 13 1.36 13 0 13 C0 8.71 0 4.42 0 0 Z " fill="#10285E" transform="translate(652,284)"/>
<path d="M0 0 C9.57 0 19.14 0 29 0 C29 1.32 29 2.64 29 4 C30.32 4 31.64 4 33 4 C33 5.32 33 6.64 33 8 C34.32 8 35.64 8 37 8 C37 10.97 37 13.94 37 17 C38.65 17 40.3 17 42 17 C42 23.93 42 30.86 42 38 C37.71 38 33.42 38 29 38 C29 38.99 29 39.98 29 41 C30.32 41 31.64 41 33 41 C33 42.32 33 43.64 33 45 C34.32 45 35.64 45 37 45 C37 47.97 37 50.94 37 54 C35.68 54 34.36 54 33 54 C33 55.65 33 57.3 33 59 C31.68 59 30.36 59 29 59 C29 60.32 29 61.64 29 63 C20.75 63 12.5 63 4 63 C4 61.68 4 60.36 4 59 C1.36 59 -1.28 59 -4 59 C-4.33 57.35 -4.66 55.7 -5 54 C-6.32 54 -7.64 54 -9 54 C-9 52.68 -9 51.36 -9 50 C-10.32 50 -11.64 50 -13 50 C-13 47.36 -13 44.72 -13 42 C-14.32 42 -15.64 42 -17 42 C-17 35.07 -17 28.14 -17 21 C-15.68 21 -14.36 21 -13 21 C-13 18.03 -13 15.06 -13 12 C-11.68 12 -10.36 12 -9 12 C-9.020625 10.865625 -9.04125 9.73125 -9.0625 8.5625 C-9 5 -9 5 -8 4 C-5.32941149 3.85884839 -2.67567762 3.95752893 0 4 C0 2.68 0 1.36 0 0 Z M9 13 C9 14.32 9 15.64 9 17 C7.68 17 6.36 17 5 17 C5 18.32 5 19.64 5 21 C9.95 21 14.9 21 20 21 C20 19.68 20 18.36 20 17 C18.68 17 17.36 17 16 17 C16 15.68 16 14.36 16 13 C13.69 13 11.38 13 9 13 Z M5 38 C5 38.99 5 39.98 5 41 C6.32 41 7.64 41 9 41 C9 42.32 9 43.64 9 45 C12.63 45 16.26 45 20 45 C20 43.68 20 42.36 20 41 C21.32 41 22.64 41 24 41 C24 40.01 24 39.02 24 38 C17.73 38 11.46 38 5 38 Z " fill="#10285E" transform="translate(973,284)"/>
<path d="M0 0 C9.9 0 19.8 0 30 0 C30 1.32 30 2.64 30 4 C32.64 4 35.28 4 38 4 C38 6.64 38 9.28 38 12 C39.32 12 40.64 12 42 12 C42 14.97 42 17.94 42 21 C43.32 21 44.64 21 46 21 C46 27.93 46 34.86 46 42 C44.68 42 43.36 42 42 42 C42 44.64 42 47.28 42 50 C40.68 50 39.36 50 38 50 C38 51.32 38 52.64 38 54 C36.68 54 35.36 54 34 54 C34 55.65 34 57.3 34 59 C31.36 59 28.72 59 26 59 C26 60.32 26 61.64 26 63 C17.75 63 9.5 63 1 63 C0.67 61.68 0.34 60.36 0 59 C-1.32 59 -2.64 59 -4 59 C-4 57.35 -4 55.7 -4 54 C-5.32 54 -6.64 54 -8 54 C-8 52.68 -8 51.36 -8 50 C-9.32 50 -10.64 50 -12 50 C-12 47.36 -12 44.72 -12 42 C-13.32 42 -14.64 42 -16 42 C-16 33.75 -16 25.5 -16 17 C-14.68 17 -13.36 17 -12 17 C-12 14.03 -12 11.06 -12 8 C-10.68 8 -9.36 8 -8 8 C-8 6.68 -8 5.36 -8 4 C-5.36 4 -2.72 4 0 4 C0 2.68 0 1.36 0 0 Z M9 17 C9 18.65 9 20.3 9 22 C7.68 22 6.36 22 5 22 C5 23.32 5 24.64 5 26 C3.68 26 2.36 26 1 26 C1 28.31 1 30.62 1 33 C2.32 33 3.64 33 5 33 C5 35.64 5 38.28 5 41 C6.32 41 7.64 41 9 41 C9 42.32 9 43.64 9 45 C12.96 45 16.92 45 21 45 C21 43.68 21 42.36 21 41 C22.32 41 23.64 41 25 41 C25 38.36 25 35.72 25 33 C26.32 33 27.64 33 29 33 C29 32.01 29 31.02 29 30 C27.68 30 26.36 30 25 30 C25 27.36 25 24.72 25 22 C23.68 22 22.36 22 21 22 C21 20.35 21 18.7 21 17 C17.04 17 13.08 17 9 17 Z " fill="#10285E" transform="translate(726,284)"/>
<path d="M0 0 C9.9 0 19.8 0 30 0 C30 1.32 30 2.64 30 4 C31.32 4 32.64 4 34 4 C34 5.32 34 6.64 34 8 C35.32 8 36.64 8 38 8 C38 26.15 38 44.3 38 63 C24.14 63 10.28 63 -4 63 C-4 61.68 -4 60.36 -4 59 C-5.32 59 -6.64 59 -8 59 C-8 57.68 -8 56.36 -8 55 C-9.32 55 -10.64 55 -12 55 C-12 46.42 -12 37.84 -12 29 C-10.68 29 -9.36 29 -8 29 C-8 27.68 -8 26.36 -8 25 C-3.71 25 0.58 25 5 25 C5 23.68 5 22.36 5 21 C10.28 21 15.56 21 21 21 C21 20.01 21 19.02 21 18 C19.68 18 18.36 18 17 18 C17 16.68 17 15.36 17 14 C14.69 14 12.38 14 10 14 C10 15.32 10 16.64 10 18 C7.03 18 4.06 18 1 18 C1 19.32 1 20.64 1 22 C-0.65 22 -2.3 22 -4 22 C-4 20.68 -4 19.36 -4 18 C-5.32 18 -6.64 18 -8 18 C-8 13.38 -8 8.76 -8 4 C-5.36 4 -2.72 4 0 4 C0 2.68 0 1.36 0 0 Z M5 38 C5 40.31 5 42.62 5 45 C10.28 45 15.56 45 21 45 C21 42.69 21 40.38 21 38 C15.72 38 10.44 38 5 38 Z " fill="#10285E" transform="translate(656,173)"/>
<path d="M0 0 C20.46 0 40.92 0 62 0 C62 5.61 62 11.22 62 17 C55.4 17 48.8 17 42 17 C42 40.1 42 63.2 42 87 C34.74 87 27.48 87 20 87 C20 63.9 20 40.8 20 17 C13.4 17 6.8 17 0 17 C0 11.39 0 5.78 0 0 Z " fill="#10285E" transform="translate(591,149)"/>
<path d="M0 0 C1.58206422 0.00574487 3.16410406 0.01876032 4.74609375 0.03515625 C7.53046875 0.05578125 10.31484375 0.07640625 13.18359375 0.09765625 C13.18359375 10.98765625 13.18359375 21.87765625 13.18359375 33.09765625 C14.50359375 33.09765625 15.82359375 33.09765625 17.18359375 33.09765625 C17.18359375 37.05765625 17.18359375 41.01765625 17.18359375 45.09765625 C19.49359375 45.09765625 21.80359375 45.09765625 24.18359375 45.09765625 C24.18359375 43.77765625 24.18359375 42.45765625 24.18359375 41.09765625 C25.50359375 41.09765625 26.82359375 41.09765625 28.18359375 41.09765625 C28.18359375 39.77765625 28.18359375 38.45765625 28.18359375 37.09765625 C29.50359375 37.09765625 30.82359375 37.09765625 32.18359375 37.09765625 C32.18359375 24.88765625 32.18359375 12.67765625 32.18359375 0.09765625 C38.12359375 0.09765625 44.06359375 0.09765625 50.18359375 0.09765625 C50.18359375 20.88765625 50.18359375 41.67765625 50.18359375 63.09765625 C44.57359375 63.09765625 38.96359375 63.09765625 33.18359375 63.09765625 C32.68859375 61.11765625 32.68859375 61.11765625 32.18359375 59.09765625 C31.19359375 59.09765625 30.20359375 59.09765625 29.18359375 59.09765625 C29.18359375 60.41765625 29.18359375 61.73765625 29.18359375 63.09765625 C22.25359375 63.09765625 15.32359375 63.09765625 8.18359375 63.09765625 C8.18359375 61.77765625 8.18359375 60.45765625 8.18359375 59.09765625 C6.86359375 59.09765625 5.54359375 59.09765625 4.18359375 59.09765625 C4.18359375 57.44765625 4.18359375 55.79765625 4.18359375 54.09765625 C2.86359375 54.09765625 1.54359375 54.09765625 0.18359375 54.09765625 C0.18359375 51.45765625 0.18359375 48.81765625 0.18359375 46.09765625 C-1.46640625 46.09765625 -3.11640625 46.09765625 -4.81640625 46.09765625 C-4.84167687 39.70728394 -4.85923942 33.31692442 -4.87133789 26.92651367 C-4.87637933 24.75072752 -4.88321232 22.57494478 -4.8918457 20.39916992 C-4.90391963 17.27912558 -4.9096363 14.15912587 -4.9140625 11.0390625 C-4.91922379 10.05990372 -4.92438507 9.08074493 -4.92970276 8.07191467 C-4.92977829 7.17105637 -4.92985382 6.27019806 -4.92993164 5.34204102 C-4.93215225 4.54484146 -4.93437286 3.74764191 -4.93666077 2.92628479 C-4.70601625 -0.58096935 -3.6549377 0.09352451 0 0 Z " fill="#10285E" transform="translate(1128.81640625,283.90234375)"/>
<path d="M0 0 C9.9 0 19.8 0 30 0 C30 1.32 30 2.64 30 4 C31.32 4 32.64 4 34 4 C34 5.32 34 6.64 34 8 C35.32 8 36.64 8 38 8 C38 9.65 38 11.3 38 13 C36.68 13 35.36 13 34 13 C34 14.32 34 15.64 34 17 C32.68 17 31.36 17 30 17 C29.505 19.475 29.505 19.475 29 22 C26.36 22 23.72 22 21 22 C21 22.99 21 23.98 21 25 C25.29 25 29.58 25 34 25 C34 27.64 34 30.28 34 33 C35.32 33 36.64 33 38 33 C38 39.93 38 46.86 38 54 C36.68 54 35.36 54 34 54 C33.67 55.65 33.34 57.3 33 59 C30.69 59 28.38 59 26 59 C25.67 60.32 25.34 61.64 25 63 C16.75 63 8.5 63 0 63 C0 61.68 0 60.36 0 59 C-3.96 58.505 -3.96 58.505 -8 58 C-8 53.71 -8 49.42 -8 45 C-6.68 45 -5.36 45 -4 45 C-4 43.68 -4 42.36 -4 41 C0.29 41 4.58 41 9 41 C9 42.32 9 43.64 9 45 C12.63 45 16.26 45 20 45 C20 44.01 20 43.02 20 42 C18.68 42 17.36 42 16 42 C16 40.68 16 39.36 16 38 C10.72 38 5.44 38 0 38 C0 36.68 0 35.36 0 34 C-1.32 34 -2.64 34 -4 34 C-4 32.68 -4 31.36 -4 30 C-5.32 30 -6.64 30 -8 30 C-8 22.74 -8 15.48 -8 8 C-6.68 8 -5.36 8 -4 8 C-4 6.68 -4 5.36 -4 4 C-2.68 4 -1.36 4 0 4 C0 2.68 0 1.36 0 0 Z M9 17 C9 18.32 9 19.64 9 21 C12.63 21 16.26 21 20 21 C20 19.68 20 18.36 20 17 C16.37 17 12.74 17 9 17 Z " fill="#10285E" transform="translate(1026,284)"/>
<path d="M0 0 C9.9 0 19.8 0 30 0 C30 1.32 30 2.64 30 4 C31.32 4 32.64 4 34 4 C34 6.97 34 9.94 34 13 C32.68 13 31.36 13 30 13 C30 14.32 30 15.64 30 17 C28.68 17 27.36 17 26 17 C26 18.65 26 20.3 26 22 C24.35 22 22.7 22 21 22 C21 20.35 21 18.7 21 17 C17.04 17 13.08 17 9 17 C9 18.32 9 19.64 9 21 C11.97 21 14.94 21 18 21 C18 22.32 18 23.64 18 25 C21.96 25 25.92 25 30 25 C30 26.32 30 27.64 30 29 C31.32 29 32.64 29 34 29 C34 37.25 34 45.5 34 54 C32.68 54 31.36 54 30 54 C30 55.65 30 57.3 30 59 C28.68 59 27.36 59 26 59 C25.67 60.32 25.34 61.64 25 63 C15.76 63 6.52 63 -3 63 C-3.33 61.68 -3.66 60.36 -4 59 C-5.32 59 -6.64 59 -8 59 C-8 57.35 -8 55.7 -8 54 C-9.32 54 -10.64 54 -12 54 C-12 52.35 -12 50.7 -12 49 C-10.68 49 -9.36 49 -8 49 C-8 47.68 -8 46.36 -8 45 C-6.68 45 -5.36 45 -4 45 C-4 43.68 -4 42.36 -4 41 C-1.03 41 1.94 41 5 41 C5 42.32 5 43.64 5 45 C8.96 45 12.92 45 17 45 C17 44.01 17 43.02 17 42 C15.68 42 14.36 42 13 42 C13 40.68 13 39.36 13 38 C8.71 38 4.42 38 0 38 C0 36.68 0 35.36 0 34 C-2.64 34 -5.28 34 -8 34 C-8 24.1 -8 14.2 -8 4 C-5.36 4 -2.72 4 0 4 C0 2.68 0 1.36 0 0 Z " fill="#10285E" transform="translate(1194,284)"/>
<path d="M0 0 C1.58206057 0.00667536 3.16410534 0.0186375 4.74609375 0.03515625 C5.55240234 0.03966797 6.35871094 0.04417969 7.18945312 0.04882812 C9.18753131 0.06065107 11.18557158 0.07858711 13.18359375 0.09765625 C13.18359375 1.74765625 13.18359375 3.39765625 13.18359375 5.09765625 C14.17359375 5.09765625 15.16359375 5.09765625 16.18359375 5.09765625 C16.18359375 3.44765625 16.18359375 1.79765625 16.18359375 0.09765625 C18.93365983 0.07063595 21.68345921 0.05080742 24.43359375 0.03515625 C25.21089844 0.02677734 25.98820313 0.01839844 26.7890625 0.00976562 C27.92021484 0.00493164 27.92021484 0.00493164 29.07421875 0 C30.1111084 -0.00785522 30.1111084 -0.00785522 31.16894531 -0.01586914 C33.18359375 0.09765625 33.18359375 0.09765625 37.18359375 1.09765625 C37.18359375 6.70765625 37.18359375 12.31765625 37.18359375 18.09765625 C35.86359375 18.09765625 34.54359375 18.09765625 33.18359375 18.09765625 C33.18359375 19.41765625 33.18359375 20.73765625 33.18359375 22.09765625 C28.89359375 22.09765625 24.60359375 22.09765625 20.18359375 22.09765625 C20.18359375 20.77765625 20.18359375 19.45765625 20.18359375 18.09765625 C18.86359375 18.09765625 17.54359375 18.09765625 16.18359375 18.09765625 C16.18359375 16.77765625 16.18359375 15.45765625 16.18359375 14.09765625 C15.19359375 14.09765625 14.20359375 14.09765625 13.18359375 14.09765625 C13.18359375 15.41765625 13.18359375 16.73765625 13.18359375 18.09765625 C11.86359375 18.09765625 10.54359375 18.09765625 9.18359375 18.09765625 C9.18359375 19.41765625 9.18359375 20.73765625 9.18359375 22.09765625 C5.88359375 22.09765625 2.58359375 22.09765625 -0.81640625 22.09765625 C-0.81640625 20.77765625 -0.81640625 19.45765625 -0.81640625 18.09765625 C-2.13640625 18.09765625 -3.45640625 18.09765625 -4.81640625 18.09765625 C-4.84324937 15.28509344 -4.86316813 12.47278384 -4.87890625 9.66015625 C-4.88728516 8.85771484 -4.89566406 8.05527344 -4.90429688 7.22851562 C-4.91292055 5.18470404 -4.86868775 3.14081723 -4.81640625 1.09765625 C-3.81640625 0.09765625 -3.81640625 0.09765625 0 0 Z " fill="#10285E" transform="translate(853.81640625,258.90234375)"/>
<path d="M0 0 C5.61 0 11.22 0 17 0 C17 1.65 17 3.3 17 5 C18.32 5 19.64 5 21 5 C21 7.97 21 10.94 21 14 C19.68 14 18.36 14 17 14 C17 15.32 17 16.64 17 18 C15.68 18 14.36 18 13 18 C13 19.32 13 20.64 13 22 C10.03 22 7.06 22 4 22 C4 20.68 4 19.36 4 18 C2.68 18 1.36 18 0 18 C0 12.06 0 6.12 0 0 Z " fill="#10285E" transform="translate(743,259)"/>
<path d="M0 0 C1.32 0 2.64 0 4 0 C4 9.9 4 19.8 4 30 C2.68 30 1.36 30 0 30 C0 20.1 0 10.2 0 0 Z " fill="#1A5083" transform="translate(333,403)"/>
<path d="M0 0 C1.32 0 2.64 0 4 0 C4 9.9 4 19.8 4 30 C2.68 30 1.36 30 0 30 C0 20.1 0 10.2 0 0 Z " fill="#1A5083" transform="translate(333,87)"/>
</svg>
