<svg width="156" height="31" fill="none" xmlns="http://www.w3.org/2000/svg"><path fill-rule="evenodd" clip-rule="evenodd" d="M0 11.305c0-.514.146-.894.439-1.142.292-.246.701-.37 1.228-.37.331 0 .638.044.921.133.282.09.472.163.57.223v20.01H0V11.304zm12.516-.83a94.734 94.734 0 0 1 2.398 3.41c.545.81 1.14 1.703 1.784 2.682.643.978 1.296 1.976 1.96 2.994a290.83 290.83 0 0 1 1.93 3.009c.623.988 1.188 1.897 1.695 2.727V11.305c0-.514.146-.894.439-1.141.292-.247.691-.371 1.198-.371.351 0 .663.044.936.133.273.09.458.164.556.223v20.01h-3.304a274.289 274.289 0 0 1-1.623-2.535c-.595-.938-1.214-1.917-1.857-2.935a416.653 416.653 0 0 0-1.96-3.068 316.633 316.633 0 0 0-1.915-2.935 182.89 182.89 0 0 0-1.726-2.564 87.25 87.25 0 0 0-1.388-1.971v16.008h-3.1V11.483c0-.415.165-.8.497-1.156.331-.356.828-.534 1.491-.534.507 0 .922.084 1.243.252.322.168.57.312.746.43zm22.254 0c.194.257.506.687.935 1.29.429.602.916 1.309 1.462 2.12.546.81 1.14 1.703 1.784 2.682.643.978 1.297 1.976 1.96 2.994a241.401 241.401 0 0 1 3.626 5.736V11.305c0-.514.146-.894.438-1.141.293-.247.692-.371 1.199-.371.351 0 .663.044.936.133.273.09.458.164.556.223v20.01H44.36a276.409 276.409 0 0 1-1.623-2.535c-.595-.938-1.213-1.917-1.857-2.935a416.653 416.653 0 0 0-1.959-3.068 316.687 316.687 0 0 0-1.916-2.935 183.292 183.292 0 0 0-1.725-2.564 83.815 83.815 0 0 0-1.389-1.971v16.008h-3.1V11.483c0-.415.166-.8.497-1.156.332-.356.829-.534 1.492-.534.507 0 .921.084 1.243.252.322.168.57.312.745.43zm42.519.83c0-.514.146-.894.438-1.142.293-.246.702-.37 1.228-.37.332 0 .639.044.922.133.282.09.472.163.57.223v17.223h9.796v2.786H77.29V11.305zm24.973 1.127a56.353 56.353 0 0 0-.775 1.734 238.412 238.412 0 0 0-2.12 5.084c-.39.968-.77 1.937-1.14 2.905h7.982a120.09 120.09 0 0 0-1.125-2.92l-1.141-2.846c-.361-.899-.687-1.7-.98-2.401a21.848 21.848 0 0 0-.701-1.556zM92.056 30.159a204.03 204.03 0 0 1 1.959-5.158 629.03 629.03 0 0 1 2.062-5.158c.672-1.66 1.31-3.202 1.915-4.625a126.61 126.61 0 0 1 1.55-3.528c.39-.869.794-1.467 1.213-1.793.419-.326.951-.49 1.594-.49.604 0 1.063.1 1.375.297.311.198.545.376.701.534.352.613.77 1.458 1.258 2.535a153.676 153.676 0 0 1 1.55 3.557 200.253 200.253 0 0 1 1.652 4.046 448.962 448.962 0 0 1 3.729 9.783h-3.393a14.422 14.422 0 0 1-.365-.934l-.483-1.334c-.175-.484-.361-.988-.555-1.512-.195-.523-.381-1.022-.556-1.497H97.173a92.072 92.072 0 0 0-1.17 3.083c-.331.93-.594 1.66-.789 2.194h-3.158zm27.722-19.684c.195.257.507.687.936 1.29.429.602.916 1.309 1.462 2.12.546.81 1.141 1.703 1.784 2.682.644.978 1.296 1.976 1.959 2.994a248.06 248.06 0 0 1 3.626 5.736V11.305c0-.514.147-.894.439-1.141.293-.247.692-.371 1.199-.371.351 0 .663.044.936.133.273.09.458.164.555.223v20.01h-3.304a272.34 272.34 0 0 1-1.623-2.535 2184.37 2184.37 0 0 1-1.857-2.935 413.338 413.338 0 0 0-1.959-3.068 320.678 320.678 0 0 0-1.916-2.935 178.247 178.247 0 0 0-1.725-2.564 84.394 84.394 0 0 0-1.389-1.971v16.008h-3.1V11.483c0-.415.165-.8.497-1.156.331-.356.828-.534 1.492-.534.507 0 .921.084 1.243.252.321.168.57.312.745.43zm32.723 9.486c0-1.087-.166-2.09-.497-3.009a6.797 6.797 0 0 0-1.448-2.387c-.633-.671-1.418-1.19-2.354-1.556-.935-.365-2.018-.548-3.246-.548h-3.743v15.03h3.743c1.228 0 2.311-.188 3.246-.564.936-.375 1.721-.899 2.354-1.57a6.786 6.786 0 0 0 1.448-2.387c.331-.92.497-1.922.497-3.009zm3.275 0c0 1.541-.244 2.94-.731 4.194a8.84 8.84 0 0 1-2.12 3.217c-.926.89-2.047 1.576-3.363 2.06-1.316.485-2.793.726-4.43.726h-7.077V11.572c0-.573.156-1.013.468-1.32.311-.306.779-.459 1.404-.459h5.205c1.637 0 3.114.243 4.43.726 1.316.485 2.437 1.166 3.363 2.046.925.88 1.632 1.947 2.12 3.201.487 1.255.731 2.654.731 4.195z" fill="#141414"/><path fill-rule="evenodd" clip-rule="evenodd" d="M62.281 27.505c-3.873 0-7.024-3.194-7.024-7.12 0-3.927 3.15-7.12 7.024-7.12 3.873 0 7.024 3.193 7.024 7.12 0 3.926-3.15 7.12-7.024 7.12zm7.979-13.422c-.051-.131-.102-.263-.157-.392-.434-1.031-.97-2.023-1.48-3.024a21.165 21.165 0 0 1-.485-1.013c-.162-.361-.263-.753-.349-1.145-.101-.473-.127-.943-.013-1.417.057-.246.159-.479.308-.738-.38.16-.644.38-.85.657-.478.645-.659 1.384-.783 2.137-.028.181-.047.362-.072.543a9.992 9.992 0 0 0-.64-1.55c-.4-.787-.898-1.525-1.354-2.284-.56-.929-1.078-1.872-1.277-2.93a4.653 4.653 0 0 1 .054-1.905c.079-.35.222-.684.361-1.022a7.579 7.579 0 0 0-.932.663c-1.04.874-1.772 1.908-2.031 3.198-.159.796-.096 1.58.123 2.354.039.142.09.284.08.431-.029.47-.41.748-.83.6-.21-.075-.337-.235-.428-.413a2.155 2.155 0 0 1-.242-.974c-.009-.445 0-.892-.003-1.338 0-.042.035-.099-.044-.132-.066.075-.136.147-.197.226-.456.578-.703 1.23-.852 1.926-.21.961-.31 1.935-.34 2.909-.028 1.015-.58 1.768-1.283 2.489-.08.056-.16.113-.239.172a3.186 3.186 0 0 1 .097-.889c.113-.51.402-.959.63-1.429.089-.187.194-.37.254-.63-.184.139-.317.235-.447.335a7.88 7.88 0 0 0-2.545 3.475 8.997 8.997 0 0 0-.462 1.773 10.3 10.3 0 0 0-1.672 5.639c0 5.657 4.54 10.26 10.121 10.26s10.121-4.603 10.121-10.26a10.3 10.3 0 0 0-2.142-6.302z" fill="#0D83F9"/></svg>