<svg xmlns="http://www.w3.org/2000/svg" xmlns:xlink="http://www.w3.org/1999/xlink" width="40" zoomAndPan="magnify" viewBox="0 0 30 30.000001" height="40" preserveAspectRatio="xMidYMid meet" version="1.0"><defs><clipPath id="a66add7cea"><path d="M 0.484375 6 L 3 6 L 3 12 L 0.484375 12 Z M 0.484375 6 " clip-rule="nonzero"/></clipPath><clipPath id="c4d08e0403"><path d="M 23 9 L 29.515625 9 L 29.515625 27 L 23 27 Z M 23 9 " clip-rule="nonzero"/></clipPath><clipPath id="fd7898e750"><path d="M 0.484375 0 L 12 0 L 12 19 L 0.484375 19 Z M 0.484375 0 " clip-rule="nonzero"/></clipPath><clipPath id="703b0f01e0"><path d="M 27 12 L 29.515625 12 L 29.515625 21 L 27 21 Z M 27 12 " clip-rule="nonzero"/></clipPath><clipPath id="86e86cec9a"><path d="M 0.484375 4 L 5 4 L 5 14 L 0.484375 14 Z M 0.484375 4 " clip-rule="nonzero"/></clipPath><clipPath id="b089e54a56"><path d="M 0.484375 2 L 8 2 L 8 17 L 0.484375 17 Z M 0.484375 2 " clip-rule="nonzero"/></clipPath></defs><path fill="#030f4f" d="M 24.917969 18.46875 C 24.917969 13.429688 26.671875 10.605469 28.390625 9.046875 C 28.105469 8.339844 27.761719 7.65625 27.367188 7.003906 C 23.296875 10.644531 23.507812 17.070312 23.507812 17.070312 C 22.84375 28.675781 14.195312 28.496094 9.5625 27.554688 C 9.085938 27.496094 8.621094 27.40625 8.183594 27.292969 C 10.207031 28.367188 12.511719 28.976562 14.960938 28.976562 C 15.238281 28.976562 15.515625 28.964844 15.785156 28.949219 C 20.359375 28.136719 24.917969 24.890625 24.917969 18.46875 " fill-opacity="1" fill-rule="nonzero"/><path fill="#030f4f" d="M 22.507812 16.949219 C 22.507812 10.753906 25.164062 7.90625 27.144531 6.644531 C 26.757812 6.046875 26.328125 5.480469 25.863281 4.945312 C 20.960938 8.40625 21.199219 15.652344 21.199219 15.652344 C 20.535156 27.253906 11.882812 27.078125 7.253906 26.132812 C 6.84375 26.082031 6.445312 26.011719 6.0625 25.917969 C 6.648438 26.375 7.273438 26.789062 7.925781 27.152344 C 8.375 27.28125 8.933594 27.425781 9.5625 27.554688 C 14.976562 28.214844 22.507812 25.210938 22.507812 16.949219 " fill-opacity="1" fill-rule="nonzero"/><path fill="#030f4f" d="M 20.199219 15.53125 C 20.199219 8.382812 23.730469 5.691406 25.6875 4.75 C 25.160156 4.171875 24.589844 3.636719 23.976562 3.148438 C 18.929688 6.570312 19.171875 13.949219 19.171875 13.949219 C 18.507812 25.554688 9.855469 25.375 5.226562 24.429688 C 4.902344 24.390625 4.585938 24.339844 4.28125 24.273438 C 4.792969 24.832031 5.347656 25.347656 5.9375 25.820312 C 6.324219 25.925781 6.765625 26.03125 7.253906 26.132812 C 12.667969 26.792969 20.199219 23.789062 20.199219 15.53125 " fill-opacity="1" fill-rule="nonzero"/><path fill="#030f4f" d="M 11.214844 10.011719 C 11.214844 4.269531 13.496094 1.402344 15.40625 0.0078125 C 15.257812 0.00390625 15.109375 0 14.960938 0 C 14.070312 0 13.195312 0.0820312 12.347656 0.238281 C 9.746094 3.890625 9.90625 8.710938 9.90625 8.710938 C 9.460938 16.527344 5.386719 18.996094 1.363281 19.488281 C 1.492188 19.847656 1.640625 20.199219 1.796875 20.542969 C 6.464844 19.816406 11.214844 16.570312 11.214844 10.011719 " fill-opacity="1" fill-rule="nonzero"/><g clip-path="url(#a66add7cea)"><path fill="#030f4f" d="M 0.886719 11.054688 C 1.902344 9.8125 2.640625 8.265625 2.949219 6.390625 C 2.003906 7.789062 1.296875 9.363281 0.886719 11.054688 " fill-opacity="1" fill-rule="nonzero"/></g><path fill="#030f4f" d="M 18.171875 13.828125 C 18.171875 6.539062 21.847656 3.882812 23.777344 2.992188 C 23.078125 2.457031 22.328125 1.980469 21.539062 1.574219 C 16.589844 5.023438 16.828125 12.3125 16.828125 12.3125 C 16.179688 23.714844 7.8125 23.742188 3.128906 22.84375 C 3.460938 23.316406 3.824219 23.769531 4.214844 24.199219 C 4.523438 24.277344 4.863281 24.355469 5.226562 24.429688 C 10.640625 25.09375 18.171875 22.089844 18.171875 13.828125 " fill-opacity="1" fill-rule="nonzero"/><g clip-path="url(#c4d08e0403)"><path fill="#030f4f" d="M 25.914062 18.589844 C 25.710938 22.164062 24.75 24.617188 23.378906 26.277344 C 24.460938 25.503906 25.429688 24.585938 26.261719 23.550781 C 26.808594 22.289062 27.125 20.820312 27.125 19.132812 C 27.125 15.570312 28 13.113281 29.125 11.429688 C 29 10.847656 28.839844 10.28125 28.648438 9.726562 C 25.746094 13.417969 25.914062 18.589844 25.914062 18.589844 " fill-opacity="1" fill-rule="nonzero"/></g><g clip-path="url(#fd7898e750)"><path fill="#030f4f" d="M 8.90625 8.589844 C 8.90625 4.742188 9.929688 2.1875 11.179688 0.5 C 10.378906 0.71875 9.601562 1 8.863281 1.34375 C 7.789062 4.265625 7.878906 7.011719 7.878906 7.011719 C 7.484375 13.878906 4.292969 16.621094 0.792969 17.515625 C 0.882812 17.9375 0.992188 18.355469 1.117188 18.761719 C 5.199219 17.589844 8.90625 14.382812 8.90625 8.589844 " fill-opacity="1" fill-rule="nonzero"/></g><path fill="#030f4f" d="M 14.621094 11.648438 C 14.054688 21.601562 7.609375 22.886719 2.863281 22.457031 C 2.945312 22.578125 3.027344 22.699219 3.113281 22.820312 C 8.507812 23.371094 15.832031 20.335938 15.832031 12.191406 C 15.832031 5.113281 19.292969 2.40625 21.261719 1.4375 C 20.714844 1.175781 20.152344 0.945312 19.570312 0.75 C 14.375 4.125 14.621094 11.648438 14.621094 11.648438 " fill-opacity="1" fill-rule="nonzero"/><g clip-path="url(#703b0f01e0)"><path fill="#030f4f" d="M 28.121094 19.253906 C 28.089844 19.820312 28.039062 20.359375 27.96875 20.875 C 28.914062 18.949219 29.449219 16.78125 29.449219 14.488281 C 29.449219 13.964844 29.421875 13.445312 29.367188 12.9375 C 28.019531 16.085938 28.121094 19.253906 28.121094 19.253906 " fill-opacity="1" fill-rule="nonzero"/></g><g clip-path="url(#86e86cec9a)"><path fill="#030f4f" d="M 4.855469 5.378906 C 4.855469 4.925781 4.871094 4.488281 4.898438 4.066406 C 4.613281 4.34375 4.339844 4.632812 4.078125 4.929688 C 3.765625 9.117188 2.378906 11.710938 0.527344 13.273438 C 0.507812 13.507812 0.492188 13.742188 0.484375 13.976562 C 3.007812 12.273438 4.855469 9.472656 4.855469 5.378906 " fill-opacity="1" fill-rule="nonzero"/></g><g clip-path="url(#b089e54a56)"><path fill="#030f4f" d="M 6.878906 6.890625 C 6.878906 4.96875 7.136719 3.371094 7.546875 2.042969 C 7.019531 2.355469 6.511719 2.703125 6.03125 3.082031 C 5.824219 4.507812 5.855469 5.5 5.855469 5.5 C 5.527344 11.210938 3.269531 14.070312 0.503906 15.386719 C 0.527344 15.765625 0.566406 16.144531 0.617188 16.515625 C 4.054688 15.035156 6.878906 11.949219 6.878906 6.890625 " fill-opacity="1" fill-rule="nonzero"/></g><path fill="#030f4f" d="M 13.625 11.527344 C 13.625 4.148438 17.386719 1.519531 19.296875 0.660156 C 18.273438 0.339844 17.203125 0.132812 16.097656 0.046875 C 12.003906 3.679688 12.214844 10.132812 12.214844 10.132812 C 11.707031 19.023438 6.507812 20.996094 2.023438 21.007812 C 2.230469 21.421875 2.457031 21.820312 2.703125 22.207031 C 7.792969 21.996094 13.625 18.796875 13.625 11.527344 " fill-opacity="1" fill-rule="nonzero"/></svg>