<svg xmlns="http://www.w3.org/2000/svg" xmlns:xlink="http://www.w3.org/1999/xlink" width="127" zoomAndPan="magnify" viewBox="0 0 95.25 30.750001" height="41" preserveAspectRatio="xMidYMid meet" version="1.0"><defs><g/><clipPath id="7be6ce0f5a"><path d="M 0.0117188 0 L 94.492188 0 L 94.492188 30.503906 L 0.0117188 30.503906 Z M 0.0117188 0 " clip-rule="nonzero"/></clipPath><clipPath id="53e22023f0"><path d="M 8 7 L 30 7 L 30 30.503906 L 8 30.503906 Z M 8 7 " clip-rule="nonzero"/></clipPath><clipPath id="044687750e"><path d="M 0.0117188 0 L 16 0 L 16 22 L 0.0117188 22 Z M 0.0117188 0 " clip-rule="nonzero"/></clipPath><clipPath id="0ed4607cde"><path d="M 0.0117188 6 L 3 6 L 3 12 L 0.0117188 12 Z M 0.0117188 6 " clip-rule="nonzero"/></clipPath><clipPath id="943057cf42"><path d="M 24 10 L 30.566406 10 L 30.566406 28 L 24 28 Z M 24 10 " clip-rule="nonzero"/></clipPath><clipPath id="4f7793251c"><path d="M 0.0117188 0 L 12 0 L 12 20 L 0.0117188 20 Z M 0.0117188 0 " clip-rule="nonzero"/></clipPath><clipPath id="150befabb2"><path d="M 28 13 L 30.566406 13 L 30.566406 22 L 28 22 Z M 28 13 " clip-rule="nonzero"/></clipPath><clipPath id="7c7854f121"><path d="M 0.0117188 4 L 5 4 L 5 15 L 0.0117188 15 Z M 0.0117188 4 " clip-rule="nonzero"/></clipPath><clipPath id="12b8144cc2"><path d="M 0.0117188 2 L 8 2 L 8 18 L 0.0117188 18 Z M 0.0117188 2 " clip-rule="nonzero"/></clipPath><clipPath id="f6f648da38"><path d="M 35 0 L 94.492188 0 L 94.492188 23 L 35 23 Z M 35 0 " clip-rule="nonzero"/></clipPath><clipPath id="8a5df1793e"><rect x="0" width="60" y="0" height="23"/></clipPath><clipPath id="e7a8b5e15c"><path d="M 35 24 L 88 24 L 88 30.503906 L 35 30.503906 Z M 35 24 " clip-rule="nonzero"/></clipPath><clipPath id="baaceb6ceb"><path d="M 8 2 L 12 2 L 12 6.503906 L 8 6.503906 Z M 8 2 " clip-rule="nonzero"/></clipPath><clipPath id="6e30c0e812"><rect x="0" width="53" y="0" height="7"/></clipPath><clipPath id="bef2effc34"><rect x="0" width="95" y="0" height="31"/></clipPath></defs><g clip-path="url(#7be6ce0f5a)"><g transform="matrix(1, 0, 0, 1, 0.000000000000000003, 0.000000000000002089)"><g clip-path="url(#bef2effc34)"><g clip-path="url(#53e22023f0)"><path fill="#030f4f" d="M 25.726562 19.4375 C 25.726562 14.136719 27.574219 11.164062 29.382812 9.523438 C 29.082031 8.773438 28.722656 8.054688 28.308594 7.371094 C 24.023438 11.203125 24.242188 17.96875 24.242188 17.96875 C 23.546875 30.179688 14.441406 29.992188 9.566406 29 C 9.0625 28.9375 8.578125 28.847656 8.117188 28.726562 C 10.246094 29.855469 12.671875 30.496094 15.25 30.496094 C 15.542969 30.496094 15.832031 30.484375 16.117188 30.46875 C 20.929688 29.613281 25.726562 26.199219 25.726562 19.4375 " fill-opacity="1" fill-rule="nonzero"/></g><path fill="#030f4f" d="M 23.191406 17.839844 C 23.191406 11.320312 25.984375 8.324219 28.070312 6.992188 C 27.664062 6.363281 27.214844 5.765625 26.722656 5.203125 C 21.5625 8.847656 21.8125 16.472656 21.8125 16.472656 C 21.117188 28.683594 12.011719 28.496094 7.136719 27.503906 C 6.703125 27.449219 6.285156 27.375 5.882812 27.277344 C 6.5 27.757812 7.15625 28.195312 7.84375 28.578125 C 8.320312 28.714844 8.902344 28.863281 9.566406 29 C 15.265625 29.695312 23.191406 26.53125 23.191406 17.839844 " fill-opacity="1" fill-rule="nonzero"/><path fill="#030f4f" d="M 20.761719 16.34375 C 20.761719 8.824219 24.476562 5.992188 26.539062 4.996094 C 25.984375 4.390625 25.382812 3.824219 24.738281 3.3125 C 19.425781 6.914062 19.679688 14.683594 19.679688 14.683594 C 18.984375 26.894531 9.878906 26.707031 5.003906 25.710938 C 4.664062 25.671875 4.332031 25.617188 4.007812 25.546875 C 4.546875 26.132812 5.128906 26.679688 5.753906 27.175781 C 6.15625 27.285156 6.625 27.398438 7.136719 27.503906 C 12.835938 28.199219 20.761719 25.039062 20.761719 16.34375 " fill-opacity="1" fill-rule="nonzero"/><g clip-path="url(#044687750e)"><path fill="#030f4f" d="M 11.308594 10.535156 C 11.308594 4.492188 13.707031 1.476562 15.71875 0.0078125 C 15.5625 0.00390625 15.40625 0 15.25 0 C 14.308594 0 13.390625 0.0859375 12.5 0.25 C 9.761719 4.097656 9.925781 9.167969 9.925781 9.167969 C 9.457031 17.394531 5.171875 19.992188 0.9375 20.511719 C 1.074219 20.886719 1.226562 21.257812 1.394531 21.617188 C 6.308594 20.855469 11.308594 17.4375 11.308594 10.535156 " fill-opacity="1" fill-rule="nonzero"/></g><g clip-path="url(#0ed4607cde)"><path fill="#030f4f" d="M 0.433594 11.636719 C 1.503906 10.328125 2.28125 8.699219 2.605469 6.726562 C 1.609375 8.199219 0.867188 9.855469 0.433594 11.636719 " fill-opacity="1" fill-rule="nonzero"/></g><path fill="#030f4f" d="M 18.628906 14.554688 C 18.628906 6.878906 22.496094 4.085938 24.527344 3.148438 C 23.792969 2.585938 23.003906 2.082031 22.171875 1.660156 C 16.960938 5.289062 17.214844 12.960938 17.214844 12.960938 C 16.53125 24.960938 7.722656 24.988281 2.792969 24.042969 C 3.148438 24.539062 3.527344 25.015625 3.9375 25.46875 C 4.261719 25.550781 4.621094 25.636719 5.003906 25.710938 C 10.703125 26.410156 18.628906 23.246094 18.628906 14.554688 " fill-opacity="1" fill-rule="nonzero"/><g clip-path="url(#943057cf42)"><path fill="#030f4f" d="M 26.777344 19.5625 C 26.5625 23.324219 25.550781 25.910156 24.109375 27.65625 C 25.246094 26.84375 26.269531 25.875 27.144531 24.789062 C 27.71875 23.457031 28.050781 21.914062 28.050781 20.136719 C 28.050781 16.386719 28.972656 13.800781 30.15625 12.03125 C 30.023438 11.417969 29.855469 10.820312 29.652344 10.238281 C 26.597656 14.125 26.777344 19.5625 26.777344 19.5625 " fill-opacity="1" fill-rule="nonzero"/></g><g clip-path="url(#4f7793251c)"><path fill="#030f4f" d="M 8.878906 9.039062 C 8.878906 4.992188 9.953125 2.304688 11.269531 0.527344 C 10.425781 0.753906 9.609375 1.054688 8.832031 1.414062 C 7.699219 4.488281 7.792969 7.378906 7.792969 7.378906 C 7.382812 14.605469 4.023438 17.492188 0.335938 18.433594 C 0.433594 18.878906 0.546875 19.316406 0.679688 19.746094 C 4.976562 18.515625 8.878906 15.140625 8.878906 9.039062 " fill-opacity="1" fill-rule="nonzero"/></g><path fill="#030f4f" d="M 14.890625 12.261719 C 14.292969 22.734375 7.507812 24.085938 2.515625 23.632812 C 2.601562 23.761719 2.6875 23.890625 2.777344 24.019531 C 8.457031 24.597656 16.164062 21.40625 16.164062 12.832031 C 16.164062 5.382812 19.808594 2.53125 21.878906 1.515625 C 21.304688 1.238281 20.710938 0.992188 20.097656 0.789062 C 14.632812 4.34375 14.890625 12.261719 14.890625 12.261719 " fill-opacity="1" fill-rule="nonzero"/><g clip-path="url(#150befabb2)"><path fill="#030f4f" d="M 29.101562 20.265625 C 29.066406 20.863281 29.011719 21.429688 28.9375 21.96875 C 29.9375 19.941406 30.496094 17.660156 30.496094 15.246094 C 30.496094 14.695312 30.464844 14.152344 30.410156 13.617188 C 28.992188 16.929688 29.101562 20.265625 29.101562 20.265625 " fill-opacity="1" fill-rule="nonzero"/></g><g clip-path="url(#7c7854f121)"><path fill="#030f4f" d="M 4.613281 5.664062 C 4.613281 5.183594 4.628906 4.722656 4.660156 4.28125 C 4.359375 4.570312 4.070312 4.875 3.792969 5.1875 C 3.464844 9.59375 2.003906 12.328125 0.0585938 13.96875 C 0.0351562 14.214844 0.0234375 14.460938 0.0117188 14.710938 C 2.667969 12.917969 4.613281 9.96875 4.613281 5.664062 " fill-opacity="1" fill-rule="nonzero"/></g><g clip-path="url(#12b8144cc2)"><path fill="#030f4f" d="M 6.742188 7.25 C 6.742188 5.230469 7.011719 3.546875 7.445312 2.148438 C 6.890625 2.480469 6.355469 2.847656 5.847656 3.242188 C 5.628906 4.746094 5.664062 5.789062 5.664062 5.789062 C 5.320312 11.800781 2.941406 14.808594 0.0351562 16.191406 C 0.0585938 16.59375 0.0976562 16.992188 0.152344 17.382812 C 3.769531 15.824219 6.742188 12.574219 6.742188 7.25 " fill-opacity="1" fill-rule="nonzero"/></g><path fill="#030f4f" d="M 13.839844 12.132812 C 13.839844 4.367188 17.800781 1.601562 19.8125 0.695312 C 18.734375 0.359375 17.609375 0.136719 16.445312 0.046875 C 12.136719 3.875 12.359375 10.664062 12.359375 10.664062 C 11.824219 20.019531 6.355469 22.097656 1.632812 22.109375 C 1.851562 22.542969 2.089844 22.964844 2.347656 23.375 C 7.703125 23.148438 13.839844 19.78125 13.839844 12.132812 " fill-opacity="1" fill-rule="nonzero"/><g clip-path="url(#f6f648da38)"><g transform="matrix(1, 0, 0, 1, 35, 0.000000000000002089)"><g clip-path="url(#8a5df1793e)"><g fill="#030f4f" fill-opacity="1"><g transform="translate(0.879045, 16.613949)"><g><path d="M 5.546875 0.296875 C 4.785156 0.296875 4.070312 0.15625 3.40625 -0.125 C 2.738281 -0.414062 2.160156 -0.84375 1.671875 -1.40625 C 1.179688 -1.976562 0.8125 -2.671875 0.5625 -3.484375 L 2.9375 -4.421875 C 3.101562 -3.765625 3.40625 -3.210938 3.84375 -2.765625 C 4.28125 -2.316406 4.851562 -2.09375 5.5625 -2.09375 C 5.914062 -2.09375 6.242188 -2.148438 6.546875 -2.265625 C 6.859375 -2.390625 7.109375 -2.566406 7.296875 -2.796875 C 7.492188 -3.035156 7.59375 -3.328125 7.59375 -3.671875 C 7.59375 -4.015625 7.507812 -4.304688 7.34375 -4.546875 C 7.1875 -4.785156 6.914062 -5.015625 6.53125 -5.234375 C 6.15625 -5.453125 5.644531 -5.679688 5 -5.921875 L 4.1875 -6.21875 C 3.820312 -6.351562 3.457031 -6.523438 3.09375 -6.734375 C 2.726562 -6.941406 2.390625 -7.195312 2.078125 -7.5 C 1.773438 -7.800781 1.53125 -8.148438 1.34375 -8.546875 C 1.15625 -8.953125 1.0625 -9.410156 1.0625 -9.921875 C 1.0625 -10.609375 1.238281 -11.234375 1.59375 -11.796875 C 1.957031 -12.367188 2.460938 -12.820312 3.109375 -13.15625 C 3.765625 -13.5 4.519531 -13.671875 5.375 -13.671875 C 6.269531 -13.671875 7.007812 -13.515625 7.59375 -13.203125 C 8.1875 -12.898438 8.644531 -12.53125 8.96875 -12.09375 C 9.300781 -11.664062 9.535156 -11.242188 9.671875 -10.828125 L 7.453125 -9.890625 C 7.378906 -10.140625 7.253906 -10.375 7.078125 -10.59375 C 6.898438 -10.820312 6.675781 -11.003906 6.40625 -11.140625 C 6.132812 -11.285156 5.804688 -11.359375 5.421875 -11.359375 C 5.054688 -11.359375 4.726562 -11.296875 4.4375 -11.171875 C 4.15625 -11.054688 3.929688 -10.894531 3.765625 -10.6875 C 3.609375 -10.476562 3.53125 -10.238281 3.53125 -9.96875 C 3.53125 -9.570312 3.703125 -9.226562 4.046875 -8.9375 C 4.390625 -8.65625 4.9375 -8.390625 5.6875 -8.140625 L 6.53125 -7.859375 C 7.007812 -7.703125 7.460938 -7.515625 7.890625 -7.296875 C 8.316406 -7.078125 8.695312 -6.804688 9.03125 -6.484375 C 9.375 -6.160156 9.640625 -5.773438 9.828125 -5.328125 C 10.023438 -4.878906 10.125 -4.34375 10.125 -3.71875 C 10.125 -3.03125 9.984375 -2.429688 9.703125 -1.921875 C 9.429688 -1.410156 9.070312 -0.992188 8.625 -0.671875 C 8.175781 -0.347656 7.679688 -0.109375 7.140625 0.046875 C 6.597656 0.210938 6.066406 0.296875 5.546875 0.296875 Z M 5.546875 0.296875 "/></g></g></g><g fill="#030f4f" fill-opacity="1"><g transform="translate(11.745746, 16.613949)"><g><path d="M 1.171875 0 L 1.171875 -13.375 L 3.625 -13.375 L 3.625 0 Z M 2.609375 -2 L 2.609375 -5.015625 L 7.171875 -9.515625 L 10.171875 -9.515625 L 10.171875 -9.375 Z M 7.453125 0 L 4.234375 -5.140625 L 5.9375 -6.796875 L 10.34375 -0.15625 L 10.34375 0 Z M 7.453125 0 "/></g></g></g><g fill="#030f4f" fill-opacity="1"><g transform="translate(21.865469, 16.613949)"><g><path d="M 5.734375 0.296875 C 4.734375 0.296875 3.847656 0.078125 3.078125 -0.359375 C 2.316406 -0.804688 1.722656 -1.410156 1.296875 -2.171875 C 0.867188 -2.941406 0.65625 -3.804688 0.65625 -4.765625 C 0.65625 -5.722656 0.867188 -6.582031 1.296875 -7.34375 C 1.722656 -8.113281 2.316406 -8.71875 3.078125 -9.15625 C 3.847656 -9.601562 4.734375 -9.828125 5.734375 -9.828125 C 6.722656 -9.828125 7.597656 -9.601562 8.359375 -9.15625 C 9.117188 -8.707031 9.710938 -8.101562 10.140625 -7.34375 C 10.578125 -6.582031 10.796875 -5.722656 10.796875 -4.765625 C 10.796875 -3.804688 10.578125 -2.941406 10.140625 -2.171875 C 9.710938 -1.410156 9.117188 -0.804688 8.359375 -0.359375 C 7.597656 0.078125 6.722656 0.296875 5.734375 0.296875 Z M 5.734375 -1.984375 C 6.203125 -1.984375 6.632812 -2.085938 7.03125 -2.296875 C 7.425781 -2.515625 7.742188 -2.832031 7.984375 -3.25 C 8.222656 -3.675781 8.34375 -4.179688 8.34375 -4.765625 C 8.34375 -5.347656 8.222656 -5.84375 7.984375 -6.25 C 7.742188 -6.664062 7.425781 -6.984375 7.03125 -7.203125 C 6.632812 -7.429688 6.207031 -7.546875 5.75 -7.546875 C 5.28125 -7.546875 4.84375 -7.429688 4.4375 -7.203125 C 4.03125 -6.984375 3.703125 -6.664062 3.453125 -6.25 C 3.210938 -5.84375 3.09375 -5.347656 3.09375 -4.765625 C 3.09375 -4.179688 3.210938 -3.675781 3.453125 -3.25 C 3.703125 -2.832031 4.03125 -2.515625 4.4375 -2.296875 C 4.84375 -2.085938 5.273438 -1.984375 5.734375 -1.984375 Z M 5.734375 -1.984375 "/></g></g></g><g fill="#030f4f" fill-opacity="1"><g transform="translate(33.31098, 16.613949)"><g><path d="M 1.171875 0 L 1.171875 -13.375 L 3.625 -13.375 L 3.625 0 Z M 1.171875 0 "/></g></g></g><g fill="#030f4f" fill-opacity="1"><g transform="translate(38.109507, 16.613949)"><g><path d="M 4.875 3.609375 C 4.832031 3.691406 4.796875 3.765625 4.765625 3.828125 C 4.734375 3.898438 4.707031 3.96875 4.6875 4.03125 L 2.046875 4.03125 C 2.097656 3.9375 2.195312 3.726562 2.34375 3.40625 C 2.488281 3.09375 2.609375 2.820312 2.703125 2.59375 C 2.773438 2.445312 2.863281 2.253906 2.96875 2.015625 C 3.070312 1.773438 3.175781 1.539062 3.28125 1.3125 C 3.382812 1.082031 3.46875 0.90625 3.53125 0.78125 L 4.96875 -2.40625 L 5.46875 -3.609375 L 7.84375 -9.515625 L 10.5625 -9.515625 L 5.65625 1.796875 C 5.519531 2.117188 5.398438 2.394531 5.296875 2.625 C 5.191406 2.863281 5.109375 3.0625 5.046875 3.21875 C 4.984375 3.375 4.925781 3.503906 4.875 3.609375 Z M 4.21875 -0.15625 L 0.078125 -9.515625 L 2.859375 -9.515625 L 5.328125 -3.609375 L 5.609375 -3.609375 Z M 4.21875 -0.15625 "/></g></g></g><g fill="#030f4f" fill-opacity="1"><g transform="translate(48.752152, 16.613949)"><g><path d="M 1.171875 0 L 1.171875 -9.515625 L 3.46875 -9.515625 L 3.46875 -8.328125 L 3.625 -8.328125 C 3.90625 -8.785156 4.304688 -9.148438 4.828125 -9.421875 C 5.359375 -9.691406 5.925781 -9.828125 6.53125 -9.828125 C 7.707031 -9.828125 8.585938 -9.46875 9.171875 -8.75 C 9.753906 -8.039062 10.046875 -7.097656 10.046875 -5.921875 L 10.046875 0 L 7.59375 0 L 7.59375 -5.625 C 7.59375 -6.238281 7.429688 -6.710938 7.109375 -7.046875 C 6.796875 -7.378906 6.367188 -7.546875 5.828125 -7.546875 C 5.378906 -7.546875 4.988281 -7.421875 4.65625 -7.171875 C 4.320312 -6.929688 4.066406 -6.609375 3.890625 -6.203125 C 3.710938 -5.804688 3.625 -5.359375 3.625 -4.859375 L 3.625 0 Z M 1.171875 0 "/></g></g></g></g></g></g><g clip-path="url(#e7a8b5e15c)"><g transform="matrix(1, 0, 0, 1, 35, 24)"><g clip-path="url(#6e30c0e812)"><g fill="#030f4f" fill-opacity="1"><g transform="translate(0.879045, 4.990509)"><g><path d="M 0.375 0 L 0.375 -3.40625 L 2.34375 -3.40625 L 2.34375 -3.03125 L 0.78125 -3.03125 L 0.78125 -0.390625 L 2.34375 -0.390625 L 2.34375 0 Z M 0.59375 -1.515625 L 0.59375 -1.890625 L 2.203125 -1.890625 L 2.203125 -1.515625 Z M 0.59375 -1.515625 "/></g></g></g><g fill="#030f4f" fill-opacity="1"><g transform="translate(3.404072, 4.990509)"><g><path d="M 1.078125 0.078125 C 0.898438 0.078125 0.742188 0.0390625 0.609375 -0.03125 C 0.472656 -0.101562 0.363281 -0.195312 0.28125 -0.3125 C 0.207031 -0.4375 0.171875 -0.578125 0.171875 -0.734375 C 0.171875 -0.910156 0.210938 -1.0625 0.296875 -1.1875 C 0.390625 -1.3125 0.515625 -1.398438 0.671875 -1.453125 C 0.828125 -1.515625 1 -1.546875 1.1875 -1.546875 C 1.300781 -1.546875 1.398438 -1.535156 1.484375 -1.515625 C 1.578125 -1.503906 1.65625 -1.484375 1.71875 -1.453125 C 1.789062 -1.429688 1.847656 -1.410156 1.890625 -1.390625 L 1.890625 -1.546875 C 1.890625 -1.734375 1.820312 -1.878906 1.6875 -1.984375 C 1.5625 -2.085938 1.40625 -2.140625 1.21875 -2.140625 C 1.082031 -2.140625 0.957031 -2.109375 0.84375 -2.046875 C 0.726562 -1.992188 0.632812 -1.914062 0.5625 -1.8125 L 0.265625 -2.046875 C 0.328125 -2.140625 0.40625 -2.21875 0.5 -2.28125 C 0.59375 -2.351562 0.703125 -2.40625 0.828125 -2.4375 C 0.953125 -2.476562 1.082031 -2.5 1.21875 -2.5 C 1.539062 -2.5 1.796875 -2.410156 1.984375 -2.234375 C 2.171875 -2.066406 2.265625 -1.835938 2.265625 -1.546875 L 2.265625 0 L 1.890625 0 L 1.890625 -0.34375 L 1.875 -0.34375 C 1.832031 -0.28125 1.769531 -0.210938 1.6875 -0.140625 C 1.613281 -0.078125 1.523438 -0.0234375 1.421875 0.015625 C 1.316406 0.0546875 1.203125 0.078125 1.078125 0.078125 Z M 1.125 -0.28125 C 1.257812 -0.28125 1.382812 -0.3125 1.5 -0.375 C 1.613281 -0.445312 1.707031 -0.539062 1.78125 -0.65625 C 1.851562 -0.78125 1.890625 -0.910156 1.890625 -1.046875 C 1.816406 -1.097656 1.722656 -1.140625 1.609375 -1.171875 C 1.503906 -1.203125 1.382812 -1.21875 1.25 -1.21875 C 1.019531 -1.21875 0.847656 -1.171875 0.734375 -1.078125 C 0.628906 -0.984375 0.578125 -0.867188 0.578125 -0.734375 C 0.578125 -0.597656 0.628906 -0.488281 0.734375 -0.40625 C 0.835938 -0.320312 0.96875 -0.28125 1.125 -0.28125 Z M 1.125 -0.28125 "/></g></g></g><g fill="#030f4f" fill-opacity="1"><g transform="translate(5.93864, 4.990509)"><g><path d="M 0.296875 0 L 0.296875 -2.4375 L 0.6875 -2.4375 L 0.6875 -2.046875 L 0.703125 -2.046875 C 0.734375 -2.128906 0.785156 -2.203125 0.859375 -2.265625 C 0.929688 -2.335938 1.015625 -2.394531 1.109375 -2.4375 C 1.210938 -2.476562 1.3125 -2.5 1.40625 -2.5 C 1.476562 -2.5 1.535156 -2.492188 1.578125 -2.484375 C 1.617188 -2.484375 1.65625 -2.472656 1.6875 -2.453125 L 1.6875 -2.015625 C 1.632812 -2.035156 1.578125 -2.050781 1.515625 -2.0625 C 1.460938 -2.082031 1.40625 -2.09375 1.34375 -2.09375 C 1.226562 -2.09375 1.117188 -2.054688 1.015625 -1.984375 C 0.921875 -1.921875 0.84375 -1.832031 0.78125 -1.71875 C 0.726562 -1.613281 0.703125 -1.492188 0.703125 -1.359375 L 0.703125 0 Z M 0.296875 0 "/></g></g></g><g fill="#030f4f" fill-opacity="1"><g transform="translate(7.704726, 4.990509)"><g><path d="M 0.296875 0 L 0.296875 -3.40625 L 0.703125 -3.40625 L 0.703125 0 Z M 0.296875 0 "/></g></g></g><g clip-path="url(#baaceb6ceb)"><g fill="#030f4f" fill-opacity="1"><g transform="translate(8.702323, 4.990509)"><g><path d="M 0.953125 0.90625 C 0.941406 0.925781 0.929688 0.945312 0.921875 0.96875 C 0.910156 1 0.90625 1.019531 0.90625 1.03125 L 0.484375 1.03125 C 0.503906 0.988281 0.523438 0.941406 0.546875 0.890625 C 0.566406 0.835938 0.59375 0.78125 0.625 0.71875 C 0.644531 0.675781 0.660156 0.632812 0.671875 0.59375 C 0.691406 0.5625 0.710938 0.523438 0.734375 0.484375 C 0.753906 0.441406 0.78125 0.390625 0.8125 0.328125 L 1.140625 -0.40625 L 1.234375 -0.625 L 1.96875 -2.4375 L 2.40625 -2.4375 L 1.140625 0.46875 C 1.128906 0.5 1.109375 0.546875 1.078125 0.609375 C 1.054688 0.671875 1.03125 0.726562 1 0.78125 C 0.976562 0.84375 0.960938 0.882812 0.953125 0.90625 Z M 1.046875 -0.09375 L 0.015625 -2.4375 L 0.453125 -2.4375 L 1.21875 -0.625 L 1.265625 -0.625 Z M 1.046875 -0.09375 "/></g></g></g></g><g fill="#030f4f" fill-opacity="1"><g transform="translate(10.840717, 4.990509)"><g><path d="M 0.5625 0.03125 C 0.476562 0.03125 0.40625 0.00390625 0.34375 -0.046875 C 0.28125 -0.109375 0.25 -0.1875 0.25 -0.28125 C 0.25 -0.363281 0.28125 -0.429688 0.34375 -0.484375 C 0.40625 -0.546875 0.476562 -0.578125 0.5625 -0.578125 C 0.644531 -0.578125 0.71875 -0.546875 0.78125 -0.484375 C 0.84375 -0.429688 0.875 -0.363281 0.875 -0.28125 C 0.875 -0.1875 0.84375 -0.109375 0.78125 -0.046875 C 0.71875 0.00390625 0.644531 0.03125 0.5625 0.03125 Z M 0.5625 0.03125 "/></g></g></g><g fill="#030f4f" fill-opacity="1"><g transform="translate(11.967191, 4.990509)"><g/></g></g><g fill="#030f4f" fill-opacity="1"><g transform="translate(13.074577, 4.990509)"><g><path d="M 0.078125 0 L 1.375 -3.40625 L 1.828125 -3.40625 L 3.125 0 L 2.671875 0 L 1.734375 -2.546875 L 1.609375 -2.921875 L 1.59375 -2.921875 L 1.453125 -2.546875 L 0.515625 0 Z M 1.546875 -0.9375 L 1.546875 -1.3125 L 2.328125 -1.3125 L 2.46875 -0.9375 Z M 0.625 -0.9375 L 0.765625 -1.3125 L 1.546875 -1.3125 L 1.546875 -0.9375 Z M 0.625 -0.9375 "/></g></g></g><g fill="#030f4f" fill-opacity="1"><g transform="translate(16.272622, 4.990509)"><g><path d="M 1.390625 0.078125 C 1.148438 0.078125 0.9375 0.0195312 0.75 -0.09375 C 0.570312 -0.207031 0.429688 -0.359375 0.328125 -0.546875 C 0.222656 -0.742188 0.171875 -0.96875 0.171875 -1.21875 C 0.171875 -1.46875 0.222656 -1.6875 0.328125 -1.875 C 0.429688 -2.070312 0.570312 -2.222656 0.75 -2.328125 C 0.9375 -2.441406 1.148438 -2.5 1.390625 -2.5 C 1.671875 -2.5 1.894531 -2.4375 2.0625 -2.3125 C 2.238281 -2.1875 2.363281 -2.023438 2.4375 -1.828125 L 2.078125 -1.6875 C 2.015625 -1.832031 1.921875 -1.941406 1.796875 -2.015625 C 1.679688 -2.097656 1.539062 -2.140625 1.375 -2.140625 C 1.226562 -2.140625 1.09375 -2.097656 0.96875 -2.015625 C 0.851562 -1.941406 0.753906 -1.835938 0.671875 -1.703125 C 0.597656 -1.566406 0.5625 -1.40625 0.5625 -1.21875 C 0.5625 -1.03125 0.597656 -0.863281 0.671875 -0.71875 C 0.753906 -0.582031 0.851562 -0.476562 0.96875 -0.40625 C 1.09375 -0.332031 1.226562 -0.296875 1.375 -0.296875 C 1.550781 -0.296875 1.695312 -0.332031 1.8125 -0.40625 C 1.9375 -0.488281 2.03125 -0.601562 2.09375 -0.75 L 2.453125 -0.59375 C 2.378906 -0.40625 2.253906 -0.242188 2.078125 -0.109375 C 1.898438 0.015625 1.671875 0.078125 1.390625 0.078125 Z M 1.390625 0.078125 "/></g></g></g><g fill="#030f4f" fill-opacity="1"><g transform="translate(18.80242, 4.990509)"><g><path d="M 1.390625 0.078125 C 1.148438 0.078125 0.9375 0.0195312 0.75 -0.09375 C 0.570312 -0.207031 0.429688 -0.359375 0.328125 -0.546875 C 0.222656 -0.742188 0.171875 -0.96875 0.171875 -1.21875 C 0.171875 -1.46875 0.222656 -1.6875 0.328125 -1.875 C 0.429688 -2.070312 0.570312 -2.222656 0.75 -2.328125 C 0.9375 -2.441406 1.148438 -2.5 1.390625 -2.5 C 1.671875 -2.5 1.894531 -2.4375 2.0625 -2.3125 C 2.238281 -2.1875 2.363281 -2.023438 2.4375 -1.828125 L 2.078125 -1.6875 C 2.015625 -1.832031 1.921875 -1.941406 1.796875 -2.015625 C 1.679688 -2.097656 1.539062 -2.140625 1.375 -2.140625 C 1.226562 -2.140625 1.09375 -2.097656 0.96875 -2.015625 C 0.851562 -1.941406 0.753906 -1.835938 0.671875 -1.703125 C 0.597656 -1.566406 0.5625 -1.40625 0.5625 -1.21875 C 0.5625 -1.03125 0.597656 -0.863281 0.671875 -0.71875 C 0.753906 -0.582031 0.851562 -0.476562 0.96875 -0.40625 C 1.09375 -0.332031 1.226562 -0.296875 1.375 -0.296875 C 1.550781 -0.296875 1.695312 -0.332031 1.8125 -0.40625 C 1.9375 -0.488281 2.03125 -0.601562 2.09375 -0.75 L 2.453125 -0.59375 C 2.378906 -0.40625 2.253906 -0.242188 2.078125 -0.109375 C 1.898438 0.015625 1.671875 0.078125 1.390625 0.078125 Z M 1.390625 0.078125 "/></g></g></g><g fill="#030f4f" fill-opacity="1"><g transform="translate(21.379947, 4.990509)"><g><path d="M 1.171875 0.078125 C 0.878906 0.078125 0.65625 -0.0078125 0.5 -0.1875 C 0.351562 -0.363281 0.28125 -0.601562 0.28125 -0.90625 L 0.28125 -2.4375 L 0.6875 -2.4375 L 0.6875 -0.96875 C 0.6875 -0.71875 0.738281 -0.539062 0.84375 -0.4375 C 0.957031 -0.34375 1.097656 -0.296875 1.265625 -0.296875 C 1.410156 -0.296875 1.535156 -0.332031 1.640625 -0.40625 C 1.742188 -0.476562 1.820312 -0.570312 1.875 -0.6875 C 1.9375 -0.8125 1.96875 -0.9375 1.96875 -1.0625 L 1.96875 -2.4375 L 2.375 -2.4375 L 2.375 0 L 1.984375 0 L 1.984375 -0.359375 L 1.96875 -0.359375 C 1.925781 -0.273438 1.863281 -0.203125 1.78125 -0.140625 C 1.695312 -0.078125 1.601562 -0.0234375 1.5 0.015625 C 1.394531 0.0546875 1.285156 0.078125 1.171875 0.078125 Z M 1.171875 0.078125 "/></g></g></g><g fill="#030f4f" fill-opacity="1"><g transform="translate(24.04817, 4.990509)"><g><path d="M 0.296875 0 L 0.296875 -2.4375 L 0.6875 -2.4375 L 0.6875 -2.046875 L 0.703125 -2.046875 C 0.734375 -2.128906 0.785156 -2.203125 0.859375 -2.265625 C 0.929688 -2.335938 1.015625 -2.394531 1.109375 -2.4375 C 1.210938 -2.476562 1.3125 -2.5 1.40625 -2.5 C 1.476562 -2.5 1.535156 -2.492188 1.578125 -2.484375 C 1.617188 -2.484375 1.65625 -2.472656 1.6875 -2.453125 L 1.6875 -2.015625 C 1.632812 -2.035156 1.578125 -2.050781 1.515625 -2.0625 C 1.460938 -2.082031 1.40625 -2.09375 1.34375 -2.09375 C 1.226562 -2.09375 1.117188 -2.054688 1.015625 -1.984375 C 0.921875 -1.921875 0.84375 -1.832031 0.78125 -1.71875 C 0.726562 -1.613281 0.703125 -1.492188 0.703125 -1.359375 L 0.703125 0 Z M 0.296875 0 "/></g></g></g><g fill="#030f4f" fill-opacity="1"><g transform="translate(25.742661, 4.990509)"><g><path d="M 1.078125 0.078125 C 0.898438 0.078125 0.742188 0.0390625 0.609375 -0.03125 C 0.472656 -0.101562 0.363281 -0.195312 0.28125 -0.3125 C 0.207031 -0.4375 0.171875 -0.578125 0.171875 -0.734375 C 0.171875 -0.910156 0.210938 -1.0625 0.296875 -1.1875 C 0.390625 -1.3125 0.515625 -1.398438 0.671875 -1.453125 C 0.828125 -1.515625 1 -1.546875 1.1875 -1.546875 C 1.300781 -1.546875 1.398438 -1.535156 1.484375 -1.515625 C 1.578125 -1.503906 1.65625 -1.484375 1.71875 -1.453125 C 1.789062 -1.429688 1.847656 -1.410156 1.890625 -1.390625 L 1.890625 -1.546875 C 1.890625 -1.734375 1.820312 -1.878906 1.6875 -1.984375 C 1.5625 -2.085938 1.40625 -2.140625 1.21875 -2.140625 C 1.082031 -2.140625 0.957031 -2.109375 0.84375 -2.046875 C 0.726562 -1.992188 0.632812 -1.914062 0.5625 -1.8125 L 0.265625 -2.046875 C 0.328125 -2.140625 0.40625 -2.21875 0.5 -2.28125 C 0.59375 -2.351562 0.703125 -2.40625 0.828125 -2.4375 C 0.953125 -2.476562 1.082031 -2.5 1.21875 -2.5 C 1.539062 -2.5 1.796875 -2.410156 1.984375 -2.234375 C 2.171875 -2.066406 2.265625 -1.835938 2.265625 -1.546875 L 2.265625 0 L 1.890625 0 L 1.890625 -0.34375 L 1.875 -0.34375 C 1.832031 -0.28125 1.769531 -0.210938 1.6875 -0.140625 C 1.613281 -0.078125 1.523438 -0.0234375 1.421875 0.015625 C 1.316406 0.0546875 1.203125 0.078125 1.078125 0.078125 Z M 1.125 -0.28125 C 1.257812 -0.28125 1.382812 -0.3125 1.5 -0.375 C 1.613281 -0.445312 1.707031 -0.539062 1.78125 -0.65625 C 1.851562 -0.78125 1.890625 -0.910156 1.890625 -1.046875 C 1.816406 -1.097656 1.722656 -1.140625 1.609375 -1.171875 C 1.503906 -1.203125 1.382812 -1.21875 1.25 -1.21875 C 1.019531 -1.21875 0.847656 -1.171875 0.734375 -1.078125 C 0.628906 -0.984375 0.578125 -0.867188 0.578125 -0.734375 C 0.578125 -0.597656 0.628906 -0.488281 0.734375 -0.40625 C 0.835938 -0.320312 0.96875 -0.28125 1.125 -0.28125 Z M 1.125 -0.28125 "/></g></g></g><g fill="#030f4f" fill-opacity="1"><g transform="translate(28.205635, 4.990509)"><g><path d="M 0.125 -2.0625 L 0.125 -2.4375 L 0.578125 -2.4375 L 0.578125 -2.0625 Z M 1.21875 0.03125 C 1.019531 0.03125 0.859375 -0.0234375 0.734375 -0.140625 C 0.609375 -0.265625 0.546875 -0.429688 0.546875 -0.640625 L 0.546875 -3.109375 L 0.953125 -3.109375 L 0.953125 -0.734375 C 0.953125 -0.597656 0.976562 -0.5 1.03125 -0.4375 C 1.082031 -0.375 1.164062 -0.34375 1.28125 -0.34375 C 1.332031 -0.34375 1.378906 -0.347656 1.421875 -0.359375 C 1.460938 -0.367188 1.503906 -0.390625 1.546875 -0.421875 L 1.546875 -0.03125 C 1.503906 -0.0078125 1.453125 0.00390625 1.390625 0.015625 C 1.335938 0.0234375 1.28125 0.03125 1.21875 0.03125 Z M 0.921875 -2.0625 L 0.921875 -2.4375 L 1.546875 -2.4375 L 1.546875 -2.0625 Z M 0.921875 -2.0625 "/></g></g></g><g fill="#030f4f" fill-opacity="1"><g transform="translate(29.823748, 4.990509)"><g><path d="M 1.375 0.078125 C 1.144531 0.078125 0.9375 0.0234375 0.75 -0.078125 C 0.5625 -0.191406 0.414062 -0.347656 0.3125 -0.546875 C 0.21875 -0.742188 0.171875 -0.960938 0.171875 -1.203125 C 0.171875 -1.441406 0.21875 -1.660156 0.3125 -1.859375 C 0.40625 -2.054688 0.539062 -2.210938 0.71875 -2.328125 C 0.894531 -2.441406 1.101562 -2.5 1.34375 -2.5 C 1.582031 -2.5 1.785156 -2.445312 1.953125 -2.34375 C 2.128906 -2.238281 2.265625 -2.09375 2.359375 -1.90625 C 2.453125 -1.71875 2.5 -1.503906 2.5 -1.265625 C 2.5 -1.242188 2.5 -1.21875 2.5 -1.1875 C 2.5 -1.164062 2.5 -1.148438 2.5 -1.140625 L 0.40625 -1.140625 L 0.40625 -1.46875 L 2.078125 -1.46875 C 2.078125 -1.539062 2.0625 -1.613281 2.03125 -1.6875 C 2 -1.769531 1.953125 -1.84375 1.890625 -1.90625 C 1.835938 -1.976562 1.765625 -2.035156 1.671875 -2.078125 C 1.585938 -2.117188 1.476562 -2.140625 1.34375 -2.140625 C 1.1875 -2.140625 1.046875 -2.097656 0.921875 -2.015625 C 0.804688 -1.929688 0.71875 -1.820312 0.65625 -1.6875 C 0.601562 -1.550781 0.578125 -1.390625 0.578125 -1.203125 C 0.578125 -1.003906 0.613281 -0.832031 0.6875 -0.6875 C 0.769531 -0.550781 0.875 -0.453125 1 -0.390625 C 1.125 -0.328125 1.253906 -0.296875 1.390625 -0.296875 C 1.566406 -0.296875 1.710938 -0.335938 1.828125 -0.421875 C 1.941406 -0.503906 2.035156 -0.609375 2.109375 -0.734375 L 2.453125 -0.5625 C 2.359375 -0.375 2.222656 -0.21875 2.046875 -0.09375 C 1.867188 0.0195312 1.644531 0.078125 1.375 0.078125 Z M 1.375 0.078125 "/></g></g></g><g fill="#030f4f" fill-opacity="1"><g transform="translate(32.501512, 4.990509)"><g><path d="M 0.5625 0.03125 C 0.476562 0.03125 0.40625 0.00390625 0.34375 -0.046875 C 0.28125 -0.109375 0.25 -0.1875 0.25 -0.28125 C 0.25 -0.363281 0.28125 -0.429688 0.34375 -0.484375 C 0.40625 -0.546875 0.476562 -0.578125 0.5625 -0.578125 C 0.644531 -0.578125 0.71875 -0.546875 0.78125 -0.484375 C 0.84375 -0.429688 0.875 -0.363281 0.875 -0.28125 C 0.875 -0.1875 0.84375 -0.109375 0.78125 -0.046875 C 0.71875 0.00390625 0.644531 0.03125 0.5625 0.03125 Z M 0.5625 0.03125 "/></g></g></g><g fill="#030f4f" fill-opacity="1"><g transform="translate(33.627986, 4.990509)"><g/></g></g><g fill="#030f4f" fill-opacity="1"><g transform="translate(34.735372, 4.990509)"><g><path d="M 1.0625 0 L 1.0625 -3.171875 L 1.46875 -3.171875 L 1.46875 0 Z M 0.109375 -3.03125 L 0.109375 -3.40625 L 2.421875 -3.40625 L 2.421875 -3.03125 Z M 0.109375 -3.03125 "/></g></g></g><g fill="#030f4f" fill-opacity="1"><g transform="translate(36.978779, 4.990509)"><g><path d="M 0.296875 0 L 0.296875 -2.4375 L 0.6875 -2.4375 L 0.6875 -2.046875 L 0.703125 -2.046875 C 0.734375 -2.128906 0.785156 -2.203125 0.859375 -2.265625 C 0.929688 -2.335938 1.015625 -2.394531 1.109375 -2.4375 C 1.210938 -2.476562 1.3125 -2.5 1.40625 -2.5 C 1.476562 -2.5 1.535156 -2.492188 1.578125 -2.484375 C 1.617188 -2.484375 1.65625 -2.472656 1.6875 -2.453125 L 1.6875 -2.015625 C 1.632812 -2.035156 1.578125 -2.050781 1.515625 -2.0625 C 1.460938 -2.082031 1.40625 -2.09375 1.34375 -2.09375 C 1.226562 -2.09375 1.117188 -2.054688 1.015625 -1.984375 C 0.921875 -1.921875 0.84375 -1.832031 0.78125 -1.71875 C 0.726562 -1.613281 0.703125 -1.492188 0.703125 -1.359375 L 0.703125 0 Z M 0.296875 0 "/></g></g></g><g fill="#030f4f" fill-opacity="1"><g transform="translate(38.744865, 4.990509)"><g><path d="M 1.171875 0.078125 C 0.878906 0.078125 0.65625 -0.0078125 0.5 -0.1875 C 0.351562 -0.363281 0.28125 -0.601562 0.28125 -0.90625 L 0.28125 -2.4375 L 0.6875 -2.4375 L 0.6875 -0.96875 C 0.6875 -0.71875 0.738281 -0.539062 0.84375 -0.4375 C 0.957031 -0.34375 1.097656 -0.296875 1.265625 -0.296875 C 1.410156 -0.296875 1.535156 -0.332031 1.640625 -0.40625 C 1.742188 -0.476562 1.820312 -0.570312 1.875 -0.6875 C 1.9375 -0.8125 1.96875 -0.9375 1.96875 -1.0625 L 1.96875 -2.4375 L 2.375 -2.4375 L 2.375 0 L 1.984375 0 L 1.984375 -0.359375 L 1.96875 -0.359375 C 1.925781 -0.273438 1.863281 -0.203125 1.78125 -0.140625 C 1.695312 -0.078125 1.601562 -0.0234375 1.5 0.015625 C 1.394531 0.0546875 1.285156 0.078125 1.171875 0.078125 Z M 1.171875 0.078125 "/></g></g></g><g fill="#030f4f" fill-opacity="1"><g transform="translate(41.413087, 4.990509)"><g><path d="M 1.140625 0.078125 C 0.960938 0.078125 0.800781 0.0507812 0.65625 0 C 0.519531 -0.0625 0.40625 -0.144531 0.3125 -0.25 C 0.226562 -0.351562 0.164062 -0.460938 0.125 -0.578125 L 0.484375 -0.734375 C 0.546875 -0.585938 0.632812 -0.472656 0.75 -0.390625 C 0.875 -0.316406 1.015625 -0.28125 1.171875 -0.28125 C 1.316406 -0.28125 1.441406 -0.3125 1.546875 -0.375 C 1.648438 -0.4375 1.703125 -0.523438 1.703125 -0.640625 C 1.703125 -0.710938 1.679688 -0.769531 1.640625 -0.8125 C 1.597656 -0.863281 1.535156 -0.90625 1.453125 -0.9375 C 1.367188 -0.976562 1.269531 -1.015625 1.15625 -1.046875 L 0.875 -1.125 C 0.757812 -1.15625 0.648438 -1.195312 0.546875 -1.25 C 0.441406 -1.3125 0.359375 -1.382812 0.296875 -1.46875 C 0.234375 -1.5625 0.203125 -1.675781 0.203125 -1.8125 C 0.203125 -1.957031 0.242188 -2.082031 0.328125 -2.1875 C 0.421875 -2.289062 0.535156 -2.367188 0.671875 -2.421875 C 0.804688 -2.472656 0.957031 -2.5 1.125 -2.5 C 1.257812 -2.5 1.390625 -2.476562 1.515625 -2.4375 C 1.640625 -2.40625 1.742188 -2.347656 1.828125 -2.265625 C 1.921875 -2.191406 1.992188 -2.097656 2.046875 -1.984375 L 1.6875 -1.828125 C 1.625 -1.941406 1.539062 -2.019531 1.4375 -2.0625 C 1.34375 -2.113281 1.234375 -2.140625 1.109375 -2.140625 C 0.972656 -2.140625 0.851562 -2.109375 0.75 -2.046875 C 0.65625 -1.992188 0.609375 -1.914062 0.609375 -1.8125 C 0.609375 -1.707031 0.648438 -1.628906 0.734375 -1.578125 C 0.816406 -1.535156 0.914062 -1.5 1.03125 -1.46875 L 1.390625 -1.375 C 1.628906 -1.3125 1.804688 -1.21875 1.921875 -1.09375 C 2.046875 -0.976562 2.109375 -0.835938 2.109375 -0.671875 C 2.109375 -0.515625 2.0625 -0.378906 1.96875 -0.265625 C 1.882812 -0.160156 1.769531 -0.078125 1.625 -0.015625 C 1.476562 0.046875 1.316406 0.078125 1.140625 0.078125 Z M 1.140625 0.078125 "/></g></g></g><g fill="#030f4f" fill-opacity="1"><g transform="translate(43.661265, 4.990509)"><g><path d="M 0.125 -2.0625 L 0.125 -2.4375 L 0.578125 -2.4375 L 0.578125 -2.0625 Z M 1.21875 0.03125 C 1.019531 0.03125 0.859375 -0.0234375 0.734375 -0.140625 C 0.609375 -0.265625 0.546875 -0.429688 0.546875 -0.640625 L 0.546875 -3.109375 L 0.953125 -3.109375 L 0.953125 -0.734375 C 0.953125 -0.597656 0.976562 -0.5 1.03125 -0.4375 C 1.082031 -0.375 1.164062 -0.34375 1.28125 -0.34375 C 1.332031 -0.34375 1.378906 -0.347656 1.421875 -0.359375 C 1.460938 -0.367188 1.503906 -0.390625 1.546875 -0.421875 L 1.546875 -0.03125 C 1.503906 -0.0078125 1.453125 0.00390625 1.390625 0.015625 C 1.335938 0.0234375 1.28125 0.03125 1.21875 0.03125 Z M 0.921875 -2.0625 L 0.921875 -2.4375 L 1.546875 -2.4375 L 1.546875 -2.0625 Z M 0.921875 -2.0625 "/></g></g></g><g fill="#030f4f" fill-opacity="1"><g transform="translate(45.279379, 4.990509)"><g><path d="M 1.375 0.078125 C 1.144531 0.078125 0.9375 0.0234375 0.75 -0.078125 C 0.5625 -0.191406 0.414062 -0.347656 0.3125 -0.546875 C 0.21875 -0.742188 0.171875 -0.960938 0.171875 -1.203125 C 0.171875 -1.441406 0.21875 -1.660156 0.3125 -1.859375 C 0.40625 -2.054688 0.539062 -2.210938 0.71875 -2.328125 C 0.894531 -2.441406 1.101562 -2.5 1.34375 -2.5 C 1.582031 -2.5 1.785156 -2.445312 1.953125 -2.34375 C 2.128906 -2.238281 2.265625 -2.09375 2.359375 -1.90625 C 2.453125 -1.71875 2.5 -1.503906 2.5 -1.265625 C 2.5 -1.242188 2.5 -1.21875 2.5 -1.1875 C 2.5 -1.164062 2.5 -1.148438 2.5 -1.140625 L 0.40625 -1.140625 L 0.40625 -1.46875 L 2.078125 -1.46875 C 2.078125 -1.539062 2.0625 -1.613281 2.03125 -1.6875 C 2 -1.769531 1.953125 -1.84375 1.890625 -1.90625 C 1.835938 -1.976562 1.765625 -2.035156 1.671875 -2.078125 C 1.585938 -2.117188 1.476562 -2.140625 1.34375 -2.140625 C 1.1875 -2.140625 1.046875 -2.097656 0.921875 -2.015625 C 0.804688 -1.929688 0.71875 -1.820312 0.65625 -1.6875 C 0.601562 -1.550781 0.578125 -1.390625 0.578125 -1.203125 C 0.578125 -1.003906 0.613281 -0.832031 0.6875 -0.6875 C 0.769531 -0.550781 0.875 -0.453125 1 -0.390625 C 1.125 -0.328125 1.253906 -0.296875 1.390625 -0.296875 C 1.566406 -0.296875 1.710938 -0.335938 1.828125 -0.421875 C 1.941406 -0.503906 2.035156 -0.609375 2.109375 -0.734375 L 2.453125 -0.5625 C 2.359375 -0.375 2.222656 -0.21875 2.046875 -0.09375 C 1.867188 0.0195312 1.644531 0.078125 1.375 0.078125 Z M 1.375 0.078125 "/></g></g></g><g fill="#030f4f" fill-opacity="1"><g transform="translate(47.957143, 4.990509)"><g><path d="M 1.328125 0.078125 C 1.109375 0.078125 0.910156 0.0234375 0.734375 -0.078125 C 0.554688 -0.191406 0.414062 -0.347656 0.3125 -0.546875 C 0.21875 -0.742188 0.171875 -0.96875 0.171875 -1.21875 C 0.171875 -1.46875 0.21875 -1.6875 0.3125 -1.875 C 0.414062 -2.070312 0.554688 -2.222656 0.734375 -2.328125 C 0.910156 -2.441406 1.109375 -2.5 1.328125 -2.5 C 1.460938 -2.5 1.582031 -2.476562 1.6875 -2.4375 C 1.789062 -2.394531 1.882812 -2.34375 1.96875 -2.28125 C 2.050781 -2.21875 2.113281 -2.144531 2.15625 -2.0625 L 2.171875 -2.0625 L 2.15625 -2.40625 L 2.15625 -3.40625 L 2.5625 -3.40625 L 2.5625 0 L 2.171875 0 L 2.171875 -0.359375 L 2.15625 -0.359375 C 2.113281 -0.285156 2.050781 -0.210938 1.96875 -0.140625 C 1.882812 -0.078125 1.789062 -0.0234375 1.6875 0.015625 C 1.582031 0.0546875 1.460938 0.078125 1.328125 0.078125 Z M 1.375 -0.296875 C 1.507812 -0.296875 1.640625 -0.332031 1.765625 -0.40625 C 1.890625 -0.476562 1.988281 -0.582031 2.0625 -0.71875 C 2.132812 -0.851562 2.171875 -1.019531 2.171875 -1.21875 C 2.171875 -1.40625 2.132812 -1.566406 2.0625 -1.703125 C 1.988281 -1.847656 1.890625 -1.957031 1.765625 -2.03125 C 1.640625 -2.101562 1.507812 -2.140625 1.375 -2.140625 C 1.226562 -2.140625 1.09375 -2.101562 0.96875 -2.03125 C 0.851562 -1.957031 0.753906 -1.847656 0.671875 -1.703125 C 0.597656 -1.566406 0.5625 -1.40625 0.5625 -1.21875 C 0.5625 -1.03125 0.597656 -0.863281 0.671875 -0.71875 C 0.753906 -0.582031 0.851562 -0.476562 0.96875 -0.40625 C 1.09375 -0.332031 1.226562 -0.296875 1.375 -0.296875 Z M 1.375 -0.296875 "/></g></g></g><g fill="#030f4f" fill-opacity="1"><g transform="translate(50.821067, 4.990509)"><g><path d="M 0.5625 0.03125 C 0.476562 0.03125 0.40625 0.00390625 0.34375 -0.046875 C 0.28125 -0.109375 0.25 -0.1875 0.25 -0.28125 C 0.25 -0.363281 0.28125 -0.429688 0.34375 -0.484375 C 0.40625 -0.546875 0.476562 -0.578125 0.5625 -0.578125 C 0.644531 -0.578125 0.71875 -0.546875 0.78125 -0.484375 C 0.84375 -0.429688 0.875 -0.363281 0.875 -0.28125 C 0.875 -0.1875 0.84375 -0.109375 0.78125 -0.046875 C 0.71875 0.00390625 0.644531 0.03125 0.5625 0.03125 Z M 0.5625 0.03125 "/></g></g></g></g></g></g></g></g></g></svg>