<svg xmlns="http://www.w3.org/2000/svg" xmlns:xlink="http://www.w3.org/1999/xlink" width="127" zoomAndPan="magnify" viewBox="0 0 95.25 30.750001" height="41" preserveAspectRatio="xMidYMid meet" version="1.0"><defs><g/><clipPath id="6c06546ac1"><path d="M 8 7 L 30 7 L 30 30.503906 L 8 30.503906 Z M 8 7 " clip-rule="nonzero"/></clipPath><clipPath id="f0c43d2f0f"><path d="M 0.0117188 0 L 16 0 L 16 22 L 0.0117188 22 Z M 0.0117188 0 " clip-rule="nonzero"/></clipPath><clipPath id="b52c1ef4d5"><path d="M 0.0117188 6 L 3 6 L 3 12 L 0.0117188 12 Z M 0.0117188 6 " clip-rule="nonzero"/></clipPath><clipPath id="5cb998f704"><path d="M 24 10 L 30.515625 10 L 30.515625 28 L 24 28 Z M 24 10 " clip-rule="nonzero"/></clipPath><clipPath id="90e1b031c0"><path d="M 0.0117188 0 L 12 0 L 12 20 L 0.0117188 20 Z M 0.0117188 0 " clip-rule="nonzero"/></clipPath><clipPath id="7835d7a5aa"><path d="M 28 13 L 30.515625 13 L 30.515625 22 L 28 22 Z M 28 13 " clip-rule="nonzero"/></clipPath><clipPath id="4e59f65e39"><path d="M 0.0117188 4 L 5 4 L 5 15 L 0.0117188 15 Z M 0.0117188 4 " clip-rule="nonzero"/></clipPath><clipPath id="043f65d3f5"><path d="M 0.0117188 2 L 8 2 L 8 18 L 0.0117188 18 Z M 0.0117188 2 " clip-rule="nonzero"/></clipPath><clipPath id="8bcfd6b83e"><path d="M 35 0 L 94.492188 0 L 94.492188 23 L 35 23 Z M 35 0 " clip-rule="nonzero"/></clipPath><clipPath id="0eb64f64e0"><rect x="0" width="60" y="0" height="23"/></clipPath><clipPath id="b1e033a90b"><path d="M 35 24 L 88 24 L 88 30.503906 L 35 30.503906 Z M 35 24 " clip-rule="nonzero"/></clipPath><clipPath id="067b41be4e"><path d="M 8 2 L 12 2 L 12 6.503906 L 8 6.503906 Z M 8 2 " clip-rule="nonzero"/></clipPath><clipPath id="c3d638f7a7"><rect x="0" width="53" y="0" height="7"/></clipPath></defs><g clip-path="url(#6c06546ac1)"><path fill="#ffffff" d="M 25.730469 19.441406 C 25.730469 14.136719 27.578125 11.164062 29.390625 9.523438 C 29.085938 8.777344 28.726562 8.058594 28.3125 7.375 C 24.027344 11.207031 24.25 17.972656 24.25 17.972656 C 23.550781 30.1875 14.445312 30 9.570312 29.003906 C 9.066406 28.941406 8.578125 28.851562 8.117188 28.730469 C 10.246094 29.859375 12.675781 30.5 15.253906 30.5 C 15.542969 30.5 15.832031 30.492188 16.121094 30.476562 C 20.933594 29.617188 25.730469 26.203125 25.730469 19.441406 " fill-opacity="1" fill-rule="nonzero"/></g><path fill="#ffffff" d="M 23.199219 17.84375 C 23.199219 11.320312 25.992188 8.324219 28.078125 6.996094 C 27.671875 6.367188 27.21875 5.765625 26.726562 5.207031 C 21.566406 8.851562 21.816406 16.476562 21.816406 16.476562 C 21.121094 28.691406 12.011719 28.503906 7.136719 27.507812 C 6.707031 27.457031 6.285156 27.378906 5.886719 27.285156 C 6.503906 27.765625 7.15625 28.199219 7.847656 28.582031 C 8.320312 28.71875 8.90625 28.871094 9.570312 29.003906 C 15.269531 29.703125 23.199219 26.539062 23.199219 17.84375 " fill-opacity="1" fill-rule="nonzero"/><path fill="#ffffff" d="M 20.765625 16.347656 C 20.765625 8.824219 24.480469 5.992188 26.542969 5 C 25.988281 4.390625 25.386719 3.828125 24.742188 3.3125 C 19.429688 6.914062 19.683594 14.683594 19.683594 14.683594 C 18.988281 26.898438 9.878906 26.710938 5.003906 25.71875 C 4.664062 25.675781 4.332031 25.621094 4.007812 25.554688 C 4.546875 26.140625 5.132812 26.683594 5.753906 27.179688 C 6.160156 27.289062 6.625 27.402344 7.136719 27.507812 C 12.839844 28.207031 20.765625 25.042969 20.765625 16.347656 " fill-opacity="1" fill-rule="nonzero"/><g clip-path="url(#f0c43d2f0f)"><path fill="#ffffff" d="M 11.308594 10.539062 C 11.308594 4.492188 13.710938 1.476562 15.722656 0.0078125 C 15.566406 0.00390625 15.410156 0 15.253906 0 C 14.3125 0 13.394531 0.0859375 12.5 0.25 C 9.761719 4.097656 9.929688 9.167969 9.929688 9.167969 C 9.460938 17.398438 5.175781 19.996094 0.9375 20.515625 C 1.074219 20.890625 1.226562 21.261719 1.394531 21.625 C 6.308594 20.859375 11.308594 17.441406 11.308594 10.539062 " fill-opacity="1" fill-rule="nonzero"/></g><g clip-path="url(#b52c1ef4d5)"><path fill="#ffffff" d="M 0.433594 11.636719 C 1.503906 10.332031 2.285156 8.703125 2.605469 6.726562 C 1.609375 8.199219 0.867188 9.859375 0.433594 11.636719 " fill-opacity="1" fill-rule="nonzero"/></g><path fill="#ffffff" d="M 18.632812 14.558594 C 18.632812 6.882812 22.5 4.089844 24.535156 3.148438 C 23.796875 2.585938 23.007812 2.085938 22.175781 1.660156 C 16.964844 5.289062 17.21875 12.960938 17.21875 12.960938 C 16.535156 24.964844 7.726562 24.992188 2.792969 24.046875 C 3.148438 24.546875 3.53125 25.023438 3.9375 25.472656 C 4.261719 25.558594 4.621094 25.640625 5.003906 25.71875 C 10.703125 26.414062 18.632812 23.253906 18.632812 14.558594 " fill-opacity="1" fill-rule="nonzero"/><g clip-path="url(#5cb998f704)"><path fill="#ffffff" d="M 26.78125 19.570312 C 26.566406 23.332031 25.554688 25.914062 24.113281 27.664062 C 25.253906 26.847656 26.273438 25.882812 27.148438 24.792969 C 27.722656 23.464844 28.054688 21.917969 28.054688 20.140625 C 28.054688 16.390625 28.980469 13.804688 30.160156 12.03125 C 30.03125 11.421875 29.863281 10.824219 29.660156 10.238281 C 26.605469 14.125 26.78125 19.570312 26.78125 19.570312 " fill-opacity="1" fill-rule="nonzero"/></g><g clip-path="url(#90e1b031c0)"><path fill="#ffffff" d="M 8.878906 9.042969 C 8.878906 4.992188 9.957031 2.304688 11.269531 0.527344 C 10.425781 0.753906 9.613281 1.054688 8.832031 1.414062 C 7.699219 4.488281 7.796875 7.378906 7.796875 7.378906 C 7.382812 14.609375 4.023438 17.496094 0.335938 18.4375 C 0.433594 18.882812 0.546875 19.320312 0.679688 19.75 C 4.976562 18.519531 8.878906 15.140625 8.878906 9.042969 " fill-opacity="1" fill-rule="nonzero"/></g><path fill="#ffffff" d="M 14.894531 12.261719 C 14.296875 22.738281 7.511719 24.09375 2.515625 23.636719 C 2.601562 23.765625 2.6875 23.894531 2.777344 24.023438 C 8.457031 24.605469 16.167969 21.410156 16.167969 12.835938 C 16.167969 5.382812 19.8125 2.535156 21.886719 1.515625 C 21.308594 1.238281 20.714844 0.996094 20.105469 0.789062 C 14.632812 4.34375 14.894531 12.261719 14.894531 12.261719 " fill-opacity="1" fill-rule="nonzero"/><g clip-path="url(#7835d7a5aa)"><path fill="#ffffff" d="M 29.105469 20.269531 C 29.070312 20.867188 29.015625 21.433594 28.945312 21.972656 C 29.941406 19.945312 30.503906 17.664062 30.503906 15.25 C 30.503906 14.699219 30.472656 14.15625 30.417969 13.617188 C 28.996094 16.933594 29.105469 20.269531 29.105469 20.269531 " fill-opacity="1" fill-rule="nonzero"/></g><g clip-path="url(#4e59f65e39)"><path fill="#ffffff" d="M 4.617188 5.664062 C 4.617188 5.183594 4.632812 4.722656 4.660156 4.28125 C 4.359375 4.574219 4.070312 4.875 3.792969 5.1875 C 3.464844 9.597656 2.007812 12.328125 0.0585938 13.972656 C 0.0351562 14.21875 0.0234375 14.464844 0.0117188 14.714844 C 2.667969 12.917969 4.617188 9.96875 4.617188 5.664062 " fill-opacity="1" fill-rule="nonzero"/></g><g clip-path="url(#043f65d3f5)"><path fill="#ffffff" d="M 6.746094 7.253906 C 6.746094 5.230469 7.015625 3.546875 7.445312 2.148438 C 6.890625 2.480469 6.359375 2.847656 5.851562 3.242188 C 5.632812 4.746094 5.667969 5.792969 5.667969 5.792969 C 5.324219 11.800781 2.941406 14.808594 0.0351562 16.195312 C 0.0585938 16.597656 0.0976562 16.996094 0.152344 17.386719 C 3.769531 15.828125 6.746094 12.578125 6.746094 7.253906 " fill-opacity="1" fill-rule="nonzero"/></g><path fill="#ffffff" d="M 13.84375 12.136719 C 13.84375 4.367188 17.804688 1.601562 19.816406 0.695312 C 18.738281 0.359375 17.613281 0.136719 16.449219 0.046875 C 12.136719 3.875 12.359375 10.664062 12.359375 10.664062 C 11.828125 20.023438 6.355469 22.101562 1.632812 22.117188 C 1.851562 22.546875 2.089844 22.96875 2.347656 23.378906 C 7.707031 23.152344 13.84375 19.785156 13.84375 12.136719 " fill-opacity="1" fill-rule="nonzero"/><g clip-path="url(#8bcfd6b83e)"><g transform="matrix(1, 0, 0, 1, 35, 0.000000000000002089)"><g clip-path="url(#0eb64f64e0)"><g fill="#ffffff" fill-opacity="1"><g transform="translate(0.879048, 16.613949)"><g><path d="M 5.546875 0.296875 C 4.785156 0.296875 4.070312 0.15625 3.40625 -0.125 C 2.738281 -0.414062 2.160156 -0.84375 1.671875 -1.40625 C 1.179688 -1.976562 0.8125 -2.671875 0.5625 -3.484375 L 2.9375 -4.421875 C 3.101562 -3.765625 3.40625 -3.210938 3.84375 -2.765625 C 4.28125 -2.316406 4.851562 -2.09375 5.5625 -2.09375 C 5.914062 -2.09375 6.242188 -2.148438 6.546875 -2.265625 C 6.859375 -2.390625 7.109375 -2.566406 7.296875 -2.796875 C 7.492188 -3.035156 7.59375 -3.328125 7.59375 -3.671875 C 7.59375 -4.015625 7.507812 -4.304688 7.34375 -4.546875 C 7.1875 -4.785156 6.914062 -5.015625 6.53125 -5.234375 C 6.15625 -5.453125 5.644531 -5.679688 5 -5.921875 L 4.1875 -6.21875 C 3.820312 -6.351562 3.457031 -6.523438 3.09375 -6.734375 C 2.726562 -6.941406 2.390625 -7.195312 2.078125 -7.5 C 1.773438 -7.800781 1.53125 -8.148438 1.34375 -8.546875 C 1.15625 -8.953125 1.0625 -9.410156 1.0625 -9.921875 C 1.0625 -10.609375 1.238281 -11.234375 1.59375 -11.796875 C 1.957031 -12.367188 2.460938 -12.820312 3.109375 -13.15625 C 3.765625 -13.5 4.519531 -13.671875 5.375 -13.671875 C 6.269531 -13.671875 7.007812 -13.515625 7.59375 -13.203125 C 8.1875 -12.898438 8.644531 -12.53125 8.96875 -12.09375 C 9.300781 -11.664062 9.535156 -11.242188 9.671875 -10.828125 L 7.453125 -9.890625 C 7.378906 -10.140625 7.253906 -10.375 7.078125 -10.59375 C 6.898438 -10.820312 6.675781 -11.003906 6.40625 -11.140625 C 6.132812 -11.285156 5.804688 -11.359375 5.421875 -11.359375 C 5.054688 -11.359375 4.726562 -11.296875 4.4375 -11.171875 C 4.15625 -11.054688 3.929688 -10.894531 3.765625 -10.6875 C 3.609375 -10.476562 3.53125 -10.238281 3.53125 -9.96875 C 3.53125 -9.570312 3.703125 -9.226562 4.046875 -8.9375 C 4.390625 -8.65625 4.9375 -8.390625 5.6875 -8.140625 L 6.53125 -7.859375 C 7.007812 -7.703125 7.460938 -7.515625 7.890625 -7.296875 C 8.316406 -7.078125 8.695312 -6.804688 9.03125 -6.484375 C 9.375 -6.160156 9.640625 -5.773438 9.828125 -5.328125 C 10.023438 -4.878906 10.125 -4.34375 10.125 -3.71875 C 10.125 -3.03125 9.984375 -2.429688 9.703125 -1.921875 C 9.429688 -1.410156 9.070312 -0.992188 8.625 -0.671875 C 8.175781 -0.347656 7.679688 -0.109375 7.140625 0.046875 C 6.597656 0.210938 6.066406 0.296875 5.546875 0.296875 Z M 5.546875 0.296875 "/></g></g></g><g fill="#ffffff" fill-opacity="1"><g transform="translate(11.74575, 16.613949)"><g><path d="M 1.171875 0 L 1.171875 -13.375 L 3.625 -13.375 L 3.625 0 Z M 2.609375 -2 L 2.609375 -5.015625 L 7.171875 -9.515625 L 10.171875 -9.515625 L 10.171875 -9.375 Z M 7.453125 0 L 4.234375 -5.140625 L 5.9375 -6.796875 L 10.34375 -0.15625 L 10.34375 0 Z M 7.453125 0 "/></g></g></g><g fill="#ffffff" fill-opacity="1"><g transform="translate(21.865472, 16.613949)"><g><path d="M 5.734375 0.296875 C 4.734375 0.296875 3.847656 0.078125 3.078125 -0.359375 C 2.316406 -0.804688 1.722656 -1.410156 1.296875 -2.171875 C 0.867188 -2.941406 0.65625 -3.804688 0.65625 -4.765625 C 0.65625 -5.722656 0.867188 -6.582031 1.296875 -7.34375 C 1.722656 -8.113281 2.316406 -8.71875 3.078125 -9.15625 C 3.847656 -9.601562 4.734375 -9.828125 5.734375 -9.828125 C 6.722656 -9.828125 7.597656 -9.601562 8.359375 -9.15625 C 9.117188 -8.707031 9.710938 -8.101562 10.140625 -7.34375 C 10.578125 -6.582031 10.796875 -5.722656 10.796875 -4.765625 C 10.796875 -3.804688 10.578125 -2.941406 10.140625 -2.171875 C 9.710938 -1.410156 9.117188 -0.804688 8.359375 -0.359375 C 7.597656 0.078125 6.722656 0.296875 5.734375 0.296875 Z M 5.734375 -1.984375 C 6.203125 -1.984375 6.632812 -2.085938 7.03125 -2.296875 C 7.425781 -2.515625 7.742188 -2.832031 7.984375 -3.25 C 8.222656 -3.675781 8.34375 -4.179688 8.34375 -4.765625 C 8.34375 -5.347656 8.222656 -5.84375 7.984375 -6.25 C 7.742188 -6.664062 7.425781 -6.984375 7.03125 -7.203125 C 6.632812 -7.429688 6.207031 -7.546875 5.75 -7.546875 C 5.28125 -7.546875 4.84375 -7.429688 4.4375 -7.203125 C 4.03125 -6.984375 3.703125 -6.664062 3.453125 -6.25 C 3.210938 -5.84375 3.09375 -5.347656 3.09375 -4.765625 C 3.09375 -4.179688 3.210938 -3.675781 3.453125 -3.25 C 3.703125 -2.832031 4.03125 -2.515625 4.4375 -2.296875 C 4.84375 -2.085938 5.273438 -1.984375 5.734375 -1.984375 Z M 5.734375 -1.984375 "/></g></g></g><g fill="#ffffff" fill-opacity="1"><g transform="translate(33.310984, 16.613949)"><g><path d="M 1.171875 0 L 1.171875 -13.375 L 3.625 -13.375 L 3.625 0 Z M 1.171875 0 "/></g></g></g><g fill="#ffffff" fill-opacity="1"><g transform="translate(38.10951, 16.613949)"><g><path d="M 4.875 3.609375 C 4.832031 3.691406 4.796875 3.765625 4.765625 3.828125 C 4.734375 3.898438 4.707031 3.96875 4.6875 4.03125 L 2.046875 4.03125 C 2.097656 3.9375 2.195312 3.726562 2.34375 3.40625 C 2.488281 3.09375 2.609375 2.820312 2.703125 2.59375 C 2.773438 2.445312 2.863281 2.253906 2.96875 2.015625 C 3.070312 1.773438 3.175781 1.539062 3.28125 1.3125 C 3.382812 1.082031 3.46875 0.90625 3.53125 0.78125 L 4.96875 -2.40625 L 5.46875 -3.609375 L 7.84375 -9.515625 L 10.5625 -9.515625 L 5.65625 1.796875 C 5.519531 2.117188 5.398438 2.394531 5.296875 2.625 C 5.191406 2.863281 5.109375 3.0625 5.046875 3.21875 C 4.984375 3.375 4.925781 3.503906 4.875 3.609375 Z M 4.21875 -0.15625 L 0.078125 -9.515625 L 2.859375 -9.515625 L 5.328125 -3.609375 L 5.609375 -3.609375 Z M 4.21875 -0.15625 "/></g></g></g><g fill="#ffffff" fill-opacity="1"><g transform="translate(48.752156, 16.613949)"><g><path d="M 1.171875 0 L 1.171875 -9.515625 L 3.46875 -9.515625 L 3.46875 -8.328125 L 3.625 -8.328125 C 3.90625 -8.785156 4.304688 -9.148438 4.828125 -9.421875 C 5.359375 -9.691406 5.925781 -9.828125 6.53125 -9.828125 C 7.707031 -9.828125 8.585938 -9.46875 9.171875 -8.75 C 9.753906 -8.039062 10.046875 -7.097656 10.046875 -5.921875 L 10.046875 0 L 7.59375 0 L 7.59375 -5.625 C 7.59375 -6.238281 7.429688 -6.710938 7.109375 -7.046875 C 6.796875 -7.378906 6.367188 -7.546875 5.828125 -7.546875 C 5.378906 -7.546875 4.988281 -7.421875 4.65625 -7.171875 C 4.320312 -6.929688 4.066406 -6.609375 3.890625 -6.203125 C 3.710938 -5.804688 3.625 -5.359375 3.625 -4.859375 L 3.625 0 Z M 1.171875 0 "/></g></g></g></g></g></g><g clip-path="url(#b1e033a90b)"><g transform="matrix(1, 0, 0, 1, 35, 24)"><g clip-path="url(#c3d638f7a7)"><g fill="#ffffff" fill-opacity="1"><g transform="translate(0.879048, 4.990513)"><g><path d="M 0.375 0 L 0.375 -3.40625 L 2.34375 -3.40625 L 2.34375 -3.03125 L 0.78125 -3.03125 L 0.78125 -0.390625 L 2.34375 -0.390625 L 2.34375 0 Z M 0.59375 -1.515625 L 0.59375 -1.890625 L 2.203125 -1.890625 L 2.203125 -1.515625 Z M 0.59375 -1.515625 "/></g></g></g><g fill="#ffffff" fill-opacity="1"><g transform="translate(3.404076, 4.990513)"><g><path d="M 1.078125 0.078125 C 0.898438 0.078125 0.742188 0.0390625 0.609375 -0.03125 C 0.472656 -0.101562 0.363281 -0.195312 0.28125 -0.3125 C 0.207031 -0.4375 0.171875 -0.578125 0.171875 -0.734375 C 0.171875 -0.910156 0.210938 -1.0625 0.296875 -1.1875 C 0.390625 -1.3125 0.515625 -1.398438 0.671875 -1.453125 C 0.828125 -1.515625 1 -1.546875 1.1875 -1.546875 C 1.300781 -1.546875 1.398438 -1.535156 1.484375 -1.515625 C 1.578125 -1.503906 1.65625 -1.484375 1.71875 -1.453125 C 1.789062 -1.429688 1.847656 -1.410156 1.890625 -1.390625 L 1.890625 -1.546875 C 1.890625 -1.734375 1.820312 -1.878906 1.6875 -1.984375 C 1.5625 -2.085938 1.40625 -2.140625 1.21875 -2.140625 C 1.082031 -2.140625 0.957031 -2.109375 0.84375 -2.046875 C 0.726562 -1.992188 0.632812 -1.914062 0.5625 -1.8125 L 0.265625 -2.046875 C 0.328125 -2.140625 0.40625 -2.21875 0.5 -2.28125 C 0.59375 -2.351562 0.703125 -2.40625 0.828125 -2.4375 C 0.953125 -2.476562 1.082031 -2.5 1.21875 -2.5 C 1.539062 -2.5 1.796875 -2.410156 1.984375 -2.234375 C 2.171875 -2.066406 2.265625 -1.835938 2.265625 -1.546875 L 2.265625 0 L 1.890625 0 L 1.890625 -0.34375 L 1.875 -0.34375 C 1.832031 -0.28125 1.769531 -0.210938 1.6875 -0.140625 C 1.613281 -0.078125 1.523438 -0.0234375 1.421875 0.015625 C 1.316406 0.0546875 1.203125 0.078125 1.078125 0.078125 Z M 1.125 -0.28125 C 1.257812 -0.28125 1.382812 -0.3125 1.5 -0.375 C 1.613281 -0.445312 1.707031 -0.539062 1.78125 -0.65625 C 1.851562 -0.78125 1.890625 -0.910156 1.890625 -1.046875 C 1.816406 -1.097656 1.722656 -1.140625 1.609375 -1.171875 C 1.503906 -1.203125 1.382812 -1.21875 1.25 -1.21875 C 1.019531 -1.21875 0.847656 -1.171875 0.734375 -1.078125 C 0.628906 -0.984375 0.578125 -0.867188 0.578125 -0.734375 C 0.578125 -0.597656 0.628906 -0.488281 0.734375 -0.40625 C 0.835938 -0.320312 0.96875 -0.28125 1.125 -0.28125 Z M 1.125 -0.28125 "/></g></g></g><g fill="#ffffff" fill-opacity="1"><g transform="translate(5.938644, 4.990513)"><g><path d="M 0.296875 0 L 0.296875 -2.4375 L 0.6875 -2.4375 L 0.6875 -2.046875 L 0.703125 -2.046875 C 0.734375 -2.128906 0.785156 -2.203125 0.859375 -2.265625 C 0.929688 -2.335938 1.015625 -2.394531 1.109375 -2.4375 C 1.210938 -2.476562 1.3125 -2.5 1.40625 -2.5 C 1.476562 -2.5 1.535156 -2.492188 1.578125 -2.484375 C 1.617188 -2.484375 1.65625 -2.472656 1.6875 -2.453125 L 1.6875 -2.015625 C 1.632812 -2.035156 1.578125 -2.050781 1.515625 -2.0625 C 1.460938 -2.082031 1.40625 -2.09375 1.34375 -2.09375 C 1.226562 -2.09375 1.117188 -2.054688 1.015625 -1.984375 C 0.921875 -1.921875 0.84375 -1.832031 0.78125 -1.71875 C 0.726562 -1.613281 0.703125 -1.492188 0.703125 -1.359375 L 0.703125 0 Z M 0.296875 0 "/></g></g></g><g fill="#ffffff" fill-opacity="1"><g transform="translate(7.70473, 4.990513)"><g><path d="M 0.296875 0 L 0.296875 -3.40625 L 0.703125 -3.40625 L 0.703125 0 Z M 0.296875 0 "/></g></g></g><g clip-path="url(#067b41be4e)"><g fill="#ffffff" fill-opacity="1"><g transform="translate(8.702327, 4.990513)"><g><path d="M 0.953125 0.90625 C 0.941406 0.925781 0.929688 0.945312 0.921875 0.96875 C 0.910156 1 0.90625 1.019531 0.90625 1.03125 L 0.484375 1.03125 C 0.503906 0.988281 0.523438 0.941406 0.546875 0.890625 C 0.566406 0.835938 0.59375 0.78125 0.625 0.71875 C 0.644531 0.675781 0.660156 0.632812 0.671875 0.59375 C 0.691406 0.5625 0.710938 0.523438 0.734375 0.484375 C 0.753906 0.441406 0.78125 0.390625 0.8125 0.328125 L 1.140625 -0.40625 L 1.234375 -0.625 L 1.96875 -2.4375 L 2.40625 -2.4375 L 1.140625 0.46875 C 1.128906 0.5 1.109375 0.546875 1.078125 0.609375 C 1.054688 0.671875 1.03125 0.726562 1 0.78125 C 0.976562 0.84375 0.960938 0.882812 0.953125 0.90625 Z M 1.046875 -0.09375 L 0.015625 -2.4375 L 0.453125 -2.4375 L 1.21875 -0.625 L 1.265625 -0.625 Z M 1.046875 -0.09375 "/></g></g></g></g><g fill="#ffffff" fill-opacity="1"><g transform="translate(10.840721, 4.990513)"><g><path d="M 0.5625 0.03125 C 0.476562 0.03125 0.40625 0.00390625 0.34375 -0.046875 C 0.28125 -0.109375 0.25 -0.1875 0.25 -0.28125 C 0.25 -0.363281 0.28125 -0.429688 0.34375 -0.484375 C 0.40625 -0.546875 0.476562 -0.578125 0.5625 -0.578125 C 0.644531 -0.578125 0.71875 -0.546875 0.78125 -0.484375 C 0.84375 -0.429688 0.875 -0.363281 0.875 -0.28125 C 0.875 -0.1875 0.84375 -0.109375 0.78125 -0.046875 C 0.71875 0.00390625 0.644531 0.03125 0.5625 0.03125 Z M 0.5625 0.03125 "/></g></g></g><g fill="#ffffff" fill-opacity="1"><g transform="translate(11.967196, 4.990513)"><g/></g></g><g fill="#ffffff" fill-opacity="1"><g transform="translate(13.074582, 4.990513)"><g><path d="M 0.078125 0 L 1.375 -3.40625 L 1.828125 -3.40625 L 3.125 0 L 2.671875 0 L 1.734375 -2.546875 L 1.609375 -2.921875 L 1.59375 -2.921875 L 1.453125 -2.546875 L 0.515625 0 Z M 1.546875 -0.9375 L 1.546875 -1.3125 L 2.328125 -1.3125 L 2.46875 -0.9375 Z M 0.625 -0.9375 L 0.765625 -1.3125 L 1.546875 -1.3125 L 1.546875 -0.9375 Z M 0.625 -0.9375 "/></g></g></g><g fill="#ffffff" fill-opacity="1"><g transform="translate(16.272627, 4.990513)"><g><path d="M 1.390625 0.078125 C 1.148438 0.078125 0.9375 0.0195312 0.75 -0.09375 C 0.570312 -0.207031 0.429688 -0.359375 0.328125 -0.546875 C 0.222656 -0.742188 0.171875 -0.96875 0.171875 -1.21875 C 0.171875 -1.46875 0.222656 -1.6875 0.328125 -1.875 C 0.429688 -2.070312 0.570312 -2.222656 0.75 -2.328125 C 0.9375 -2.441406 1.148438 -2.5 1.390625 -2.5 C 1.671875 -2.5 1.894531 -2.4375 2.0625 -2.3125 C 2.238281 -2.1875 2.363281 -2.023438 2.4375 -1.828125 L 2.078125 -1.6875 C 2.015625 -1.832031 1.921875 -1.941406 1.796875 -2.015625 C 1.679688 -2.097656 1.539062 -2.140625 1.375 -2.140625 C 1.226562 -2.140625 1.09375 -2.097656 0.96875 -2.015625 C 0.851562 -1.941406 0.753906 -1.835938 0.671875 -1.703125 C 0.597656 -1.566406 0.5625 -1.40625 0.5625 -1.21875 C 0.5625 -1.03125 0.597656 -0.863281 0.671875 -0.71875 C 0.753906 -0.582031 0.851562 -0.476562 0.96875 -0.40625 C 1.09375 -0.332031 1.226562 -0.296875 1.375 -0.296875 C 1.550781 -0.296875 1.695312 -0.332031 1.8125 -0.40625 C 1.9375 -0.488281 2.03125 -0.601562 2.09375 -0.75 L 2.453125 -0.59375 C 2.378906 -0.40625 2.253906 -0.242188 2.078125 -0.109375 C 1.898438 0.015625 1.671875 0.078125 1.390625 0.078125 Z M 1.390625 0.078125 "/></g></g></g><g fill="#ffffff" fill-opacity="1"><g transform="translate(18.802425, 4.990513)"><g><path d="M 1.390625 0.078125 C 1.148438 0.078125 0.9375 0.0195312 0.75 -0.09375 C 0.570312 -0.207031 0.429688 -0.359375 0.328125 -0.546875 C 0.222656 -0.742188 0.171875 -0.96875 0.171875 -1.21875 C 0.171875 -1.46875 0.222656 -1.6875 0.328125 -1.875 C 0.429688 -2.070312 0.570312 -2.222656 0.75 -2.328125 C 0.9375 -2.441406 1.148438 -2.5 1.390625 -2.5 C 1.671875 -2.5 1.894531 -2.4375 2.0625 -2.3125 C 2.238281 -2.1875 2.363281 -2.023438 2.4375 -1.828125 L 2.078125 -1.6875 C 2.015625 -1.832031 1.921875 -1.941406 1.796875 -2.015625 C 1.679688 -2.097656 1.539062 -2.140625 1.375 -2.140625 C 1.226562 -2.140625 1.09375 -2.097656 0.96875 -2.015625 C 0.851562 -1.941406 0.753906 -1.835938 0.671875 -1.703125 C 0.597656 -1.566406 0.5625 -1.40625 0.5625 -1.21875 C 0.5625 -1.03125 0.597656 -0.863281 0.671875 -0.71875 C 0.753906 -0.582031 0.851562 -0.476562 0.96875 -0.40625 C 1.09375 -0.332031 1.226562 -0.296875 1.375 -0.296875 C 1.550781 -0.296875 1.695312 -0.332031 1.8125 -0.40625 C 1.9375 -0.488281 2.03125 -0.601562 2.09375 -0.75 L 2.453125 -0.59375 C 2.378906 -0.40625 2.253906 -0.242188 2.078125 -0.109375 C 1.898438 0.015625 1.671875 0.078125 1.390625 0.078125 Z M 1.390625 0.078125 "/></g></g></g><g fill="#ffffff" fill-opacity="1"><g transform="translate(21.379952, 4.990513)"><g><path d="M 1.171875 0.078125 C 0.878906 0.078125 0.65625 -0.0078125 0.5 -0.1875 C 0.351562 -0.363281 0.28125 -0.601562 0.28125 -0.90625 L 0.28125 -2.4375 L 0.6875 -2.4375 L 0.6875 -0.96875 C 0.6875 -0.71875 0.738281 -0.539062 0.84375 -0.4375 C 0.957031 -0.34375 1.097656 -0.296875 1.265625 -0.296875 C 1.410156 -0.296875 1.535156 -0.332031 1.640625 -0.40625 C 1.742188 -0.476562 1.820312 -0.570312 1.875 -0.6875 C 1.9375 -0.8125 1.96875 -0.9375 1.96875 -1.0625 L 1.96875 -2.4375 L 2.375 -2.4375 L 2.375 0 L 1.984375 0 L 1.984375 -0.359375 L 1.96875 -0.359375 C 1.925781 -0.273438 1.863281 -0.203125 1.78125 -0.140625 C 1.695312 -0.078125 1.601562 -0.0234375 1.5 0.015625 C 1.394531 0.0546875 1.285156 0.078125 1.171875 0.078125 Z M 1.171875 0.078125 "/></g></g></g><g fill="#ffffff" fill-opacity="1"><g transform="translate(24.048175, 4.990513)"><g><path d="M 0.296875 0 L 0.296875 -2.4375 L 0.6875 -2.4375 L 0.6875 -2.046875 L 0.703125 -2.046875 C 0.734375 -2.128906 0.785156 -2.203125 0.859375 -2.265625 C 0.929688 -2.335938 1.015625 -2.394531 1.109375 -2.4375 C 1.210938 -2.476562 1.3125 -2.5 1.40625 -2.5 C 1.476562 -2.5 1.535156 -2.492188 1.578125 -2.484375 C 1.617188 -2.484375 1.65625 -2.472656 1.6875 -2.453125 L 1.6875 -2.015625 C 1.632812 -2.035156 1.578125 -2.050781 1.515625 -2.0625 C 1.460938 -2.082031 1.40625 -2.09375 1.34375 -2.09375 C 1.226562 -2.09375 1.117188 -2.054688 1.015625 -1.984375 C 0.921875 -1.921875 0.84375 -1.832031 0.78125 -1.71875 C 0.726562 -1.613281 0.703125 -1.492188 0.703125 -1.359375 L 0.703125 0 Z M 0.296875 0 "/></g></g></g><g fill="#ffffff" fill-opacity="1"><g transform="translate(25.742666, 4.990513)"><g><path d="M 1.078125 0.078125 C 0.898438 0.078125 0.742188 0.0390625 0.609375 -0.03125 C 0.472656 -0.101562 0.363281 -0.195312 0.28125 -0.3125 C 0.207031 -0.4375 0.171875 -0.578125 0.171875 -0.734375 C 0.171875 -0.910156 0.210938 -1.0625 0.296875 -1.1875 C 0.390625 -1.3125 0.515625 -1.398438 0.671875 -1.453125 C 0.828125 -1.515625 1 -1.546875 1.1875 -1.546875 C 1.300781 -1.546875 1.398438 -1.535156 1.484375 -1.515625 C 1.578125 -1.503906 1.65625 -1.484375 1.71875 -1.453125 C 1.789062 -1.429688 1.847656 -1.410156 1.890625 -1.390625 L 1.890625 -1.546875 C 1.890625 -1.734375 1.820312 -1.878906 1.6875 -1.984375 C 1.5625 -2.085938 1.40625 -2.140625 1.21875 -2.140625 C 1.082031 -2.140625 0.957031 -2.109375 0.84375 -2.046875 C 0.726562 -1.992188 0.632812 -1.914062 0.5625 -1.8125 L 0.265625 -2.046875 C 0.328125 -2.140625 0.40625 -2.21875 0.5 -2.28125 C 0.59375 -2.351562 0.703125 -2.40625 0.828125 -2.4375 C 0.953125 -2.476562 1.082031 -2.5 1.21875 -2.5 C 1.539062 -2.5 1.796875 -2.410156 1.984375 -2.234375 C 2.171875 -2.066406 2.265625 -1.835938 2.265625 -1.546875 L 2.265625 0 L 1.890625 0 L 1.890625 -0.34375 L 1.875 -0.34375 C 1.832031 -0.28125 1.769531 -0.210938 1.6875 -0.140625 C 1.613281 -0.078125 1.523438 -0.0234375 1.421875 0.015625 C 1.316406 0.0546875 1.203125 0.078125 1.078125 0.078125 Z M 1.125 -0.28125 C 1.257812 -0.28125 1.382812 -0.3125 1.5 -0.375 C 1.613281 -0.445312 1.707031 -0.539062 1.78125 -0.65625 C 1.851562 -0.78125 1.890625 -0.910156 1.890625 -1.046875 C 1.816406 -1.097656 1.722656 -1.140625 1.609375 -1.171875 C 1.503906 -1.203125 1.382812 -1.21875 1.25 -1.21875 C 1.019531 -1.21875 0.847656 -1.171875 0.734375 -1.078125 C 0.628906 -0.984375 0.578125 -0.867188 0.578125 -0.734375 C 0.578125 -0.597656 0.628906 -0.488281 0.734375 -0.40625 C 0.835938 -0.320312 0.96875 -0.28125 1.125 -0.28125 Z M 1.125 -0.28125 "/></g></g></g><g fill="#ffffff" fill-opacity="1"><g transform="translate(28.20564, 4.990513)"><g><path d="M 0.125 -2.0625 L 0.125 -2.4375 L 0.578125 -2.4375 L 0.578125 -2.0625 Z M 1.21875 0.03125 C 1.019531 0.03125 0.859375 -0.0234375 0.734375 -0.140625 C 0.609375 -0.265625 0.546875 -0.429688 0.546875 -0.640625 L 0.546875 -3.109375 L 0.953125 -3.109375 L 0.953125 -0.734375 C 0.953125 -0.597656 0.976562 -0.5 1.03125 -0.4375 C 1.082031 -0.375 1.164062 -0.34375 1.28125 -0.34375 C 1.332031 -0.34375 1.378906 -0.347656 1.421875 -0.359375 C 1.460938 -0.367188 1.503906 -0.390625 1.546875 -0.421875 L 1.546875 -0.03125 C 1.503906 -0.0078125 1.453125 0.00390625 1.390625 0.015625 C 1.335938 0.0234375 1.28125 0.03125 1.21875 0.03125 Z M 0.921875 -2.0625 L 0.921875 -2.4375 L 1.546875 -2.4375 L 1.546875 -2.0625 Z M 0.921875 -2.0625 "/></g></g></g><g fill="#ffffff" fill-opacity="1"><g transform="translate(29.823754, 4.990513)"><g><path d="M 1.375 0.078125 C 1.144531 0.078125 0.9375 0.0234375 0.75 -0.078125 C 0.5625 -0.191406 0.414062 -0.347656 0.3125 -0.546875 C 0.21875 -0.742188 0.171875 -0.960938 0.171875 -1.203125 C 0.171875 -1.441406 0.21875 -1.660156 0.3125 -1.859375 C 0.40625 -2.054688 0.539062 -2.210938 0.71875 -2.328125 C 0.894531 -2.441406 1.101562 -2.5 1.34375 -2.5 C 1.582031 -2.5 1.785156 -2.445312 1.953125 -2.34375 C 2.128906 -2.238281 2.265625 -2.09375 2.359375 -1.90625 C 2.453125 -1.71875 2.5 -1.503906 2.5 -1.265625 C 2.5 -1.242188 2.5 -1.21875 2.5 -1.1875 C 2.5 -1.164062 2.5 -1.148438 2.5 -1.140625 L 0.40625 -1.140625 L 0.40625 -1.46875 L 2.078125 -1.46875 C 2.078125 -1.539062 2.0625 -1.613281 2.03125 -1.6875 C 2 -1.769531 1.953125 -1.84375 1.890625 -1.90625 C 1.835938 -1.976562 1.765625 -2.035156 1.671875 -2.078125 C 1.585938 -2.117188 1.476562 -2.140625 1.34375 -2.140625 C 1.1875 -2.140625 1.046875 -2.097656 0.921875 -2.015625 C 0.804688 -1.929688 0.71875 -1.820312 0.65625 -1.6875 C 0.601562 -1.550781 0.578125 -1.390625 0.578125 -1.203125 C 0.578125 -1.003906 0.613281 -0.832031 0.6875 -0.6875 C 0.769531 -0.550781 0.875 -0.453125 1 -0.390625 C 1.125 -0.328125 1.253906 -0.296875 1.390625 -0.296875 C 1.566406 -0.296875 1.710938 -0.335938 1.828125 -0.421875 C 1.941406 -0.503906 2.035156 -0.609375 2.109375 -0.734375 L 2.453125 -0.5625 C 2.359375 -0.375 2.222656 -0.21875 2.046875 -0.09375 C 1.867188 0.0195312 1.644531 0.078125 1.375 0.078125 Z M 1.375 0.078125 "/></g></g></g><g fill="#ffffff" fill-opacity="1"><g transform="translate(32.501518, 4.990513)"><g><path d="M 0.5625 0.03125 C 0.476562 0.03125 0.40625 0.00390625 0.34375 -0.046875 C 0.28125 -0.109375 0.25 -0.1875 0.25 -0.28125 C 0.25 -0.363281 0.28125 -0.429688 0.34375 -0.484375 C 0.40625 -0.546875 0.476562 -0.578125 0.5625 -0.578125 C 0.644531 -0.578125 0.71875 -0.546875 0.78125 -0.484375 C 0.84375 -0.429688 0.875 -0.363281 0.875 -0.28125 C 0.875 -0.1875 0.84375 -0.109375 0.78125 -0.046875 C 0.71875 0.00390625 0.644531 0.03125 0.5625 0.03125 Z M 0.5625 0.03125 "/></g></g></g><g fill="#ffffff" fill-opacity="1"><g transform="translate(33.627992, 4.990513)"><g/></g></g><g fill="#ffffff" fill-opacity="1"><g transform="translate(34.735378, 4.990513)"><g><path d="M 1.0625 0 L 1.0625 -3.171875 L 1.46875 -3.171875 L 1.46875 0 Z M 0.109375 -3.03125 L 0.109375 -3.40625 L 2.421875 -3.40625 L 2.421875 -3.03125 Z M 0.109375 -3.03125 "/></g></g></g><g fill="#ffffff" fill-opacity="1"><g transform="translate(36.978786, 4.990513)"><g><path d="M 0.296875 0 L 0.296875 -2.4375 L 0.6875 -2.4375 L 0.6875 -2.046875 L 0.703125 -2.046875 C 0.734375 -2.128906 0.785156 -2.203125 0.859375 -2.265625 C 0.929688 -2.335938 1.015625 -2.394531 1.109375 -2.4375 C 1.210938 -2.476562 1.3125 -2.5 1.40625 -2.5 C 1.476562 -2.5 1.535156 -2.492188 1.578125 -2.484375 C 1.617188 -2.484375 1.65625 -2.472656 1.6875 -2.453125 L 1.6875 -2.015625 C 1.632812 -2.035156 1.578125 -2.050781 1.515625 -2.0625 C 1.460938 -2.082031 1.40625 -2.09375 1.34375 -2.09375 C 1.226562 -2.09375 1.117188 -2.054688 1.015625 -1.984375 C 0.921875 -1.921875 0.84375 -1.832031 0.78125 -1.71875 C 0.726562 -1.613281 0.703125 -1.492188 0.703125 -1.359375 L 0.703125 0 Z M 0.296875 0 "/></g></g></g><g fill="#ffffff" fill-opacity="1"><g transform="translate(38.744871, 4.990513)"><g><path d="M 1.171875 0.078125 C 0.878906 0.078125 0.65625 -0.0078125 0.5 -0.1875 C 0.351562 -0.363281 0.28125 -0.601562 0.28125 -0.90625 L 0.28125 -2.4375 L 0.6875 -2.4375 L 0.6875 -0.96875 C 0.6875 -0.71875 0.738281 -0.539062 0.84375 -0.4375 C 0.957031 -0.34375 1.097656 -0.296875 1.265625 -0.296875 C 1.410156 -0.296875 1.535156 -0.332031 1.640625 -0.40625 C 1.742188 -0.476562 1.820312 -0.570312 1.875 -0.6875 C 1.9375 -0.8125 1.96875 -0.9375 1.96875 -1.0625 L 1.96875 -2.4375 L 2.375 -2.4375 L 2.375 0 L 1.984375 0 L 1.984375 -0.359375 L 1.96875 -0.359375 C 1.925781 -0.273438 1.863281 -0.203125 1.78125 -0.140625 C 1.695312 -0.078125 1.601562 -0.0234375 1.5 0.015625 C 1.394531 0.0546875 1.285156 0.078125 1.171875 0.078125 Z M 1.171875 0.078125 "/></g></g></g><g fill="#ffffff" fill-opacity="1"><g transform="translate(41.413094, 4.990513)"><g><path d="M 1.140625 0.078125 C 0.960938 0.078125 0.800781 0.0507812 0.65625 0 C 0.519531 -0.0625 0.40625 -0.144531 0.3125 -0.25 C 0.226562 -0.351562 0.164062 -0.460938 0.125 -0.578125 L 0.484375 -0.734375 C 0.546875 -0.585938 0.632812 -0.472656 0.75 -0.390625 C 0.875 -0.316406 1.015625 -0.28125 1.171875 -0.28125 C 1.316406 -0.28125 1.441406 -0.3125 1.546875 -0.375 C 1.648438 -0.4375 1.703125 -0.523438 1.703125 -0.640625 C 1.703125 -0.710938 1.679688 -0.769531 1.640625 -0.8125 C 1.597656 -0.863281 1.535156 -0.90625 1.453125 -0.9375 C 1.367188 -0.976562 1.269531 -1.015625 1.15625 -1.046875 L 0.875 -1.125 C 0.757812 -1.15625 0.648438 -1.195312 0.546875 -1.25 C 0.441406 -1.3125 0.359375 -1.382812 0.296875 -1.46875 C 0.234375 -1.5625 0.203125 -1.675781 0.203125 -1.8125 C 0.203125 -1.957031 0.242188 -2.082031 0.328125 -2.1875 C 0.421875 -2.289062 0.535156 -2.367188 0.671875 -2.421875 C 0.804688 -2.472656 0.957031 -2.5 1.125 -2.5 C 1.257812 -2.5 1.390625 -2.476562 1.515625 -2.4375 C 1.640625 -2.40625 1.742188 -2.347656 1.828125 -2.265625 C 1.921875 -2.191406 1.992188 -2.097656 2.046875 -1.984375 L 1.6875 -1.828125 C 1.625 -1.941406 1.539062 -2.019531 1.4375 -2.0625 C 1.34375 -2.113281 1.234375 -2.140625 1.109375 -2.140625 C 0.972656 -2.140625 0.851562 -2.109375 0.75 -2.046875 C 0.65625 -1.992188 0.609375 -1.914062 0.609375 -1.8125 C 0.609375 -1.707031 0.648438 -1.628906 0.734375 -1.578125 C 0.816406 -1.535156 0.914062 -1.5 1.03125 -1.46875 L 1.390625 -1.375 C 1.628906 -1.3125 1.804688 -1.21875 1.921875 -1.09375 C 2.046875 -0.976562 2.109375 -0.835938 2.109375 -0.671875 C 2.109375 -0.515625 2.0625 -0.378906 1.96875 -0.265625 C 1.882812 -0.160156 1.769531 -0.078125 1.625 -0.015625 C 1.476562 0.046875 1.316406 0.078125 1.140625 0.078125 Z M 1.140625 0.078125 "/></g></g></g><g fill="#ffffff" fill-opacity="1"><g transform="translate(43.661272, 4.990513)"><g><path d="M 0.125 -2.0625 L 0.125 -2.4375 L 0.578125 -2.4375 L 0.578125 -2.0625 Z M 1.21875 0.03125 C 1.019531 0.03125 0.859375 -0.0234375 0.734375 -0.140625 C 0.609375 -0.265625 0.546875 -0.429688 0.546875 -0.640625 L 0.546875 -3.109375 L 0.953125 -3.109375 L 0.953125 -0.734375 C 0.953125 -0.597656 0.976562 -0.5 1.03125 -0.4375 C 1.082031 -0.375 1.164062 -0.34375 1.28125 -0.34375 C 1.332031 -0.34375 1.378906 -0.347656 1.421875 -0.359375 C 1.460938 -0.367188 1.503906 -0.390625 1.546875 -0.421875 L 1.546875 -0.03125 C 1.503906 -0.0078125 1.453125 0.00390625 1.390625 0.015625 C 1.335938 0.0234375 1.28125 0.03125 1.21875 0.03125 Z M 0.921875 -2.0625 L 0.921875 -2.4375 L 1.546875 -2.4375 L 1.546875 -2.0625 Z M 0.921875 -2.0625 "/></g></g></g><g fill="#ffffff" fill-opacity="1"><g transform="translate(45.279386, 4.990513)"><g><path d="M 1.375 0.078125 C 1.144531 0.078125 0.9375 0.0234375 0.75 -0.078125 C 0.5625 -0.191406 0.414062 -0.347656 0.3125 -0.546875 C 0.21875 -0.742188 0.171875 -0.960938 0.171875 -1.203125 C 0.171875 -1.441406 0.21875 -1.660156 0.3125 -1.859375 C 0.40625 -2.054688 0.539062 -2.210938 0.71875 -2.328125 C 0.894531 -2.441406 1.101562 -2.5 1.34375 -2.5 C 1.582031 -2.5 1.785156 -2.445312 1.953125 -2.34375 C 2.128906 -2.238281 2.265625 -2.09375 2.359375 -1.90625 C 2.453125 -1.71875 2.5 -1.503906 2.5 -1.265625 C 2.5 -1.242188 2.5 -1.21875 2.5 -1.1875 C 2.5 -1.164062 2.5 -1.148438 2.5 -1.140625 L 0.40625 -1.140625 L 0.40625 -1.46875 L 2.078125 -1.46875 C 2.078125 -1.539062 2.0625 -1.613281 2.03125 -1.6875 C 2 -1.769531 1.953125 -1.84375 1.890625 -1.90625 C 1.835938 -1.976562 1.765625 -2.035156 1.671875 -2.078125 C 1.585938 -2.117188 1.476562 -2.140625 1.34375 -2.140625 C 1.1875 -2.140625 1.046875 -2.097656 0.921875 -2.015625 C 0.804688 -1.929688 0.71875 -1.820312 0.65625 -1.6875 C 0.601562 -1.550781 0.578125 -1.390625 0.578125 -1.203125 C 0.578125 -1.003906 0.613281 -0.832031 0.6875 -0.6875 C 0.769531 -0.550781 0.875 -0.453125 1 -0.390625 C 1.125 -0.328125 1.253906 -0.296875 1.390625 -0.296875 C 1.566406 -0.296875 1.710938 -0.335938 1.828125 -0.421875 C 1.941406 -0.503906 2.035156 -0.609375 2.109375 -0.734375 L 2.453125 -0.5625 C 2.359375 -0.375 2.222656 -0.21875 2.046875 -0.09375 C 1.867188 0.0195312 1.644531 0.078125 1.375 0.078125 Z M 1.375 0.078125 "/></g></g></g><g fill="#ffffff" fill-opacity="1"><g transform="translate(47.95715, 4.990513)"><g><path d="M 1.328125 0.078125 C 1.109375 0.078125 0.910156 0.0234375 0.734375 -0.078125 C 0.554688 -0.191406 0.414062 -0.347656 0.3125 -0.546875 C 0.21875 -0.742188 0.171875 -0.96875 0.171875 -1.21875 C 0.171875 -1.46875 0.21875 -1.6875 0.3125 -1.875 C 0.414062 -2.070312 0.554688 -2.222656 0.734375 -2.328125 C 0.910156 -2.441406 1.109375 -2.5 1.328125 -2.5 C 1.460938 -2.5 1.582031 -2.476562 1.6875 -2.4375 C 1.789062 -2.394531 1.882812 -2.34375 1.96875 -2.28125 C 2.050781 -2.21875 2.113281 -2.144531 2.15625 -2.0625 L 2.171875 -2.0625 L 2.15625 -2.40625 L 2.15625 -3.40625 L 2.5625 -3.40625 L 2.5625 0 L 2.171875 0 L 2.171875 -0.359375 L 2.15625 -0.359375 C 2.113281 -0.285156 2.050781 -0.210938 1.96875 -0.140625 C 1.882812 -0.078125 1.789062 -0.0234375 1.6875 0.015625 C 1.582031 0.0546875 1.460938 0.078125 1.328125 0.078125 Z M 1.375 -0.296875 C 1.507812 -0.296875 1.640625 -0.332031 1.765625 -0.40625 C 1.890625 -0.476562 1.988281 -0.582031 2.0625 -0.71875 C 2.132812 -0.851562 2.171875 -1.019531 2.171875 -1.21875 C 2.171875 -1.40625 2.132812 -1.566406 2.0625 -1.703125 C 1.988281 -1.847656 1.890625 -1.957031 1.765625 -2.03125 C 1.640625 -2.101562 1.507812 -2.140625 1.375 -2.140625 C 1.226562 -2.140625 1.09375 -2.101562 0.96875 -2.03125 C 0.851562 -1.957031 0.753906 -1.847656 0.671875 -1.703125 C 0.597656 -1.566406 0.5625 -1.40625 0.5625 -1.21875 C 0.5625 -1.03125 0.597656 -0.863281 0.671875 -0.71875 C 0.753906 -0.582031 0.851562 -0.476562 0.96875 -0.40625 C 1.09375 -0.332031 1.226562 -0.296875 1.375 -0.296875 Z M 1.375 -0.296875 "/></g></g></g><g fill="#ffffff" fill-opacity="1"><g transform="translate(50.821074, 4.990513)"><g><path d="M 0.5625 0.03125 C 0.476562 0.03125 0.40625 0.00390625 0.34375 -0.046875 C 0.28125 -0.109375 0.25 -0.1875 0.25 -0.28125 C 0.25 -0.363281 0.28125 -0.429688 0.34375 -0.484375 C 0.40625 -0.546875 0.476562 -0.578125 0.5625 -0.578125 C 0.644531 -0.578125 0.71875 -0.546875 0.78125 -0.484375 C 0.84375 -0.429688 0.875 -0.363281 0.875 -0.28125 C 0.875 -0.1875 0.84375 -0.109375 0.78125 -0.046875 C 0.71875 0.00390625 0.644531 0.03125 0.5625 0.03125 Z M 0.5625 0.03125 "/></g></g></g></g></g></g></svg>